<?xml version="1.0" encoding="utf-8"?>
<!-- Generator: Adobe Illustrator 18.1.0, SVG Export Plug-In . SVG Version: 6.00 Build 0)  -->
<!DOCTYPE svg PUBLIC "-//W3C//DTD SVG 1.1//EN" "http://www.w3.org/Graphics/SVG/1.1/DTD/svg11.dtd">
<svg version="1.1" xmlns="http://www.w3.org/2000/svg" xmlns:xlink="http://www.w3.org/1999/xlink" x="0px" y="0px"
	 viewBox="0 0 360.3 240" enable-background="new 0 0 360.3 240" xml:space="preserve">
<g id="Base">
</g>
<g id="_x31_">
	<path fill="none" stroke="#000000" d="M297.3,183.6l-5.5-2.4l-2.8-0.5l-2.1-3.1l-3-1.8l-1-2.6l0.4-2l-0.4-1.1l-1.2-1.3l-2-1.8
		l-0.4-1.5l0.9-2.1l1.3-1.3l0.7-0.6l-0.5-2.9c0,0-1.1-1.5-1.1-1.6c0,0-1.3-1-1.3-1l-1-0.3l-2.7,0.9l-2.1,1l-1.7,0.1l-1.7-1.3
		l-0.7-0.9l2.6-3.1l-0.1-1.6l0.3-3l0.2-0.6l-1.3-0.7H271l-0.8-1.3l-0.3-1.6l-0.7-1.5l3.5-0.6l2.2,0.2l2.6,1.3l1.7,1.3l1,0.5l1.5,0.2
		l0.4,0l1.1,1.4l1.1,0.7l0.6,0.3l1,0l1,0l0.7,0l1.1,0.8c0,0,0.8,0.7,0.9,0.8c0.2,0.1,0.9,0.9,0.9,0.9l0.8,0.1l1.4,0.2l1.2,0.1
		l0.7,0.1c0,0,0.7,0.3,1,0.3c0.3-0.1,0.9,0,0.9,0l0.8,0l0.8-1.1c0,0,0-0.2,0.4-0.5c0.3-0.2,0.7-0.4,0.7-0.4l0.9-0.3l0.8-0.1l0.7,0.6
		l0.8,0.6l1.4,0.7c0,0-0.3,0.5-0.5,0.7c-0.1,0.2-1.1,1.7-1.1,1.7l-0.9,1.4l-0.9,1.3l-0.9,1.4l-0.5,1l-0.6,0.6l-0.9,0.5l-1.1,0.7
		l-1.1,0.9l-0.7,0.7l-0.4,0.6l-0.4,0.7l0.7,0.5l1,1.4l0.5,1.3l0.5,1.1l0.6,1l1.2,1.5l0.7,0.6l-0.7,1.2l-0.5,1.2l-0.4,1.6l-0.3,1.3
		l0,1.6l-1.1,0.8l1,1.3l0.1,1.6l0.1,1.3L297.3,183.6z"/>
</g>
<g id="_x32_">
	<polygon fill="none" stroke="#000000" points="298.9,169.7 298.2,169.1 297.1,167.6 296,165.4 295.6,164.2 294.6,162.7 
		293.9,162.2 294.7,160.9 296.5,159.3 298.5,158.2 299.1,157.6 299.6,156.6 300.5,155.2 301.4,153.9 302.2,152.5 303.3,150.9 
		303.8,150.1 302.4,149.4 300.9,148.2 300,148.3 299.2,148.6 298.5,149 298.1,149.5 297.3,150.6 296.5,150.6 295.6,150.6 
		294.6,150.4 293.9,150.3 292.8,150.2 291.3,150 290.5,149.9 289.7,148.9 288.7,148.2 287.6,147.4 287,147.4 285.9,147.3 
		284.9,147.3 283.2,146.3 282.2,144.9 282.8,143.9 284.3,142.8 285.6,142.1 286.4,141.3 287.3,140.2 288.2,139.5 289.2,139.5 
		289.6,139.5 291,138.5 292,137.7 292.6,136.8 293.1,135.9 294.6,136 295.1,135.9 296.4,136 298.1,135.6 299.2,135.2 300.4,136.5 
		301.5,137.6 302.7,138.2 303.6,138.7 305.3,139 306.3,139 307.8,139 309.3,138.8 310.3,138.6 311.4,138.3 311.4,139.1 311.2,140.9 
		310.8,142.3 310.2,143.8 309.3,145.5 308.4,147.2 307.6,148.7 307.1,149.6 306.9,151.2 306.6,152.5 306.7,154.7 306.6,156.5 
		306.4,158.4 306.3,159.9 306.3,161.3 306.4,163.6 306.5,165.6 306.7,168.1 305.7,169.2 304.9,170 303.8,170.9 302.7,171.8 
		301.6,172.5 301,172.9 300.6,172.1 300.8,170.7 301.1,169.4 301.6,168.3 302.1,167.4 302.5,166.7 303.1,165.8 302.3,165.8 
		301.5,166.4 300.8,167.1 300.5,167.5 299.9,168.3 299.6,168.7 	"/>
</g>
<g id="_x33_">
	<path fill="none" stroke="#000000" d="M297.3,183.6l-2.2-0.9l-2-0.9l-1.3-0.6l-2.8-0.5l-2.1-3.1l-3-1.8l-0.7-1.9l-2.2,0.9l0.4,1.3
		l0.1,1.1l-0.4,1.4l-0.5,1.4l-0.8,1.9l-1.1,1.6l-0.8,1l-1,1.4l-0.4,0.8l-0.6,1.1l-0.7,1l-0.7,0.8l-1.4,1.1l-0.8,0.7l-1.2,1.4
		l-0.8,1.2l-0.5,1l-0.3,0.5l-1.4-0.3l-1.3-0.1L265,195l-1.4,0.2l-1.1,0.5l-0.9,0.6l-0.9,0.9l-0.9,1l1.4,0.5l1.3,0.5l1.1,0.5l0.9,0.3
		l0.9,0.4l0.7,0.4l0.7,0.9l0.3,0.9l0.2,1l0.1,0.4c0,0,1.2-0.9,1.5-1.1c0.3-0.2,1.6-1.1,1.6-1.1l1.1-1.1l1.5-1.6l0.8-0.9l1.7-1.9
		l1.4-1.7l0.9-0.9l0.4,0.5l0.7,0.4l1.4,0.5l0.4,0.1l1.1,0.4l0.8,0.6l0.4,0.5l0.6,0.2l1,0.1l1,0.1l1.1,0.1l0.5,0.6l1.4,0.1l0.9,0
		l1,0.1l1,0.3l-0.6-1.3l2.1-0.9l3.3,5.8l8.5,0.5l0.6-0.9l-3.4-3.1l-1.6,1.3l-1-1l2.3-2.5l-0.3-1l-1-2.2l-1.5-3l-1.1-2l-0.9-1.7
		l-0.8-1.4l0.7-0.6L297.3,183.6z"/>
</g>
<g id="_x34_">
	<g>
		<path fill="none" stroke="#000000" stroke-miterlimit="10" d="M267.6,203.9l1.5-1.1l1.6-1.1l1.1-1.1l1.5-1.6l0.8-0.9l1.7-1.9
			l1.4-1.7l0.9-0.9l0.4,0.5l0.7,0.4l1.4,0.5l1.5,0.5l0.8,0.6l0.4,0.5l1.5,0.4l1,0.1l1.1,0.1l0.5,0.6l1.4,0.1l0.9,0l1,0.1l1,0.3
			l0.8,1.7l1.1-0.3l2.7,5.6l-1.8,1.5l1.7,1.9l0.8-0.4l1.4,0.9l5.7-5.7l9.9,11.3l-6.3,5.8l-2.8-1.8l-1.3,0.3l-1.7,0.1l-1.7-0.4
			l-2.3-0.7l-2.7-0.9l-1.5-0.3l-1.2,0l-1.3,0.4l-1.5,0.6l-1.6,0.3c0,0-0.7-0.1-1.2-0.1c-0.5,0-2.2-0.3-2.2-0.3l-1.8,0.4l-1.8,0.6
			l-1.3,0.2l-1.4-0.4l-0.8-1.7l-0.1-2.1l0.3-1.6l-0.4-1.3l-1.2-1.1l-2.2-0.6l-2.1-0.4l-1.4-0.4l-1.1-0.4l-0.8-0.7l-0.7-1.8
			L267.6,203.9z"/>
		<polygon fill="none" stroke="#000000" stroke-miterlimit="10" points="297.5,203.7 297,206.2 298.9,207.1 301.5,203.8 		"/>
	</g>
</g>
<g id="_x35_">
	<polygon fill="none" stroke="#000000" stroke-miterlimit="10" points="259.9,198.1 261.7,196.3 263.6,195.2 265,195 266.7,195.3 
		267.9,195.4 269.3,195.7 270.2,194.1 271,192.9 272.3,191.6 274.4,189.8 275.1,189 275.8,188 276.8,186.1 277.8,184.7 278.6,183.7 
		279.7,182.1 280.6,180.2 281.1,178.8 281.5,177.4 281.4,176.2 281,174.9 280.3,173.5 279.4,172.6 278.1,172.4 276.8,171.9 
		269.4,165.9 268.6,165.5 267.7,166.1 267.1,167.2 267.5,168.1 264.8,170.5 263.3,171.1 261,171.1 259.6,171.4 259.2,172.9 
		259.1,175.4 259.3,178 259.1,178.7 256.8,180.5 254.7,181.8 252.9,183.3 251.3,185.1 249.7,187.4 247.9,189.9 250.9,191.6 
		253.6,193.2 255.7,194.8 257.6,196.7 258.4,197.4 	"/>
</g>
<g id="_x36_">
	<path fill="none" stroke="#000000" stroke-miterlimit="10" d="M247.6,189.8l-2.2-1.1l-2.9-1.1l-2.8-1l-2.5-1l0.5-2.3l0.7-1.8
		l0.3-2.2l-0.4-2l-0.5-1.9l0-1.6l0.7-3l-0.8-2.2c0,0-0.8-1.9-0.8-2.3s0.3-2,0.3-2l-0.5-2.6l1.8-4.6l2.6,0.7l2.2,1.3l2.5,2.2l2.4,0
		l2.6-0.3l1.3,0.7l2.3,1.2l1.8,0.1l2.2-0.3l2.1-0.3l1.5-0.3l0.9,0.9l1.4-0.2l1.4-0.5l0.7,0.6l1,2.1l0.4,1l-0.6,1.1l0.4,0.9l-2.7,2.4
		l-1.5,0.6l-2.3,0l-1.4,0.3l-0.4,1.5l-0.1,2.5l0.3,2.6l-0.3,0.8l-2.2,1.7l-2.1,1.4l-1.8,1.4l-1.6,1.9l-1.6,2.3l-1.8,2.5L247.6,189.8
		z"/>
</g>
<g id="_x37_">
	<path fill="none" stroke="#000000" stroke-miterlimit="10" d="M267.7,166.1l1-0.5l0.8,0.3l7.4,6l1.2,0.5l1.3,0.2
		c0,0,0.6,0.2,0.9,0.9c0.3,0.6,0.7,1.4,0.7,1.4l2.2-0.9l-0.2-0.8l0.4-2l-0.4-1.1l-1.2-1.3l-2-1.8l-0.4-1.5l0.9-2.1l1.9-1.9l-0.5-2.9
		l-1.1-1.6l-1.3-1l-1-0.3l-2.7,0.9l-2.1,1l-1.7,0.1l-1.7-1.3l-0.7-0.9l2.6-3.1l0-2.1l0.3-2.5l0.2-0.6l-1.3-0.7H271l-0.8-1.3
		l-0.3-1.6l-0.7-1.5l-0.9-1.1l-1.2-0.9l-1.8-0.6h-1.5l-1.2,0.1l-1.2,0.4l-1.5,0.6l-0.8,0.2l-1.4-0.4l-1.2-1.1l-1.2-1.2l-1.3-0.4
		c0,0-1.7,0.2-1.6,0.2c0,0.1,1,2,1,2l1.3,1.8l1.5,1.2l1.9,0.5l1.6,0.9l1.1,1.1l1.5,0.7l0.8,1l-0.2,1.7l-0.4,1.4l0.1,1.2l0.7,1.7
		l0.2,1.1l0.1,3l-0.3,2.1l-0.8,2l-0.5,1l0.9,0.9l1.4-0.2l1.4-0.5l0.7,0.6l1,2.1L267.7,166.1z"/>
</g>
<g id="_x38_">
	<polygon fill="none" stroke="#000000" stroke-miterlimit="10" points="252.3,137.9 253.4,139.8 254.6,141.6 256.2,142.8 
		258.1,143.3 259.6,144.1 260.7,145.2 262.2,145.9 263,146.9 262.8,148.6 262.3,150.1 262.4,151.3 263.1,153 263.3,154.1 
		263.4,157.1 263.1,159.2 261.9,162.2 260.3,162.5 258.3,162.8 256.1,163.1 254.3,163 252,161.8 250.7,161.1 248.1,161.3 
		246.7,161.5 245.7,161.3 243.2,159.1 241,157.8 238.4,157.1 238.3,155.9 238.6,154.1 239,152.7 239.5,151.3 239.7,149.9 
		239.5,148.9 238.9,148.2 238.3,147.7 237.4,147.2 238.9,145.2 240,144.2 241.3,143.6 242.4,142.6 244.3,141.4 246.3,140.3 
		248.3,139.8 249.5,139.4 251.2,138.6 	"/>
</g>
<g id="_x39_">
	<polygon fill="none" stroke="#000000" stroke-miterlimit="10" points="237.4,147.2 238.9,145.2 240,144.2 241.3,143.6 242.4,142.6 
		244.3,141.4 246.3,140.3 248.3,139.8 249.5,139.4 251.2,138.6 252.3,137.9 254,137.6 255.3,138 256.5,139.3 257.7,140.4 
		259.1,140.8 261.4,139.9 260.6,136.9 259.5,133.9 258.1,130.4 257.4,128 256.8,125.9 255.5,124 253.2,123.1 251.6,121.3 
		250.1,119.7 248.1,119.4 247,120.8 245.7,121.7 244.3,122 242.8,121.8 241.2,120.9 239.5,119.9 238.5,119.7 237.1,120 235.8,121 
		234.6,122.5 233.2,124 232.3,124.6 230.9,125 229.6,125.1 228.6,124.9 229.3,127.3 230,129.8 230.9,132.9 231.1,134.3 230.8,136.5 
		230.3,138.5 230.1,139.8 230.5,142.1 231.2,143 232.2,143.7 233,144 233.8,144.5 234.5,145.6 236,146.6 	"/>
</g>
<g id="_x31_0">
	<polygon fill="none" stroke="#000000" stroke-miterlimit="10" points="261.5,140.2 263.4,139.5 265.2,139.5 265.6,139.5 267.1,140 
		268.3,141 269.2,142 270.6,141.8 271.8,141.5 272.8,141.5 274.9,141.6 277.5,142.9 279.3,144.2 280.3,144.7 282.2,144.9 
		282.8,143.9 284.3,142.8 285.6,142.1 286.4,141.3 287.3,140.2 288.2,139.4 289.6,139.3 291,138.4 292.3,137.1 293.1,135.9 
		291.4,135.2 289.8,134.6 288.2,134.1 286.8,133.9 285.2,134.4 284.1,134.6 282.8,134.5 281.5,134.1 280.9,133.3 280.6,132.2 
		279.7,132.3 278.7,133 277.4,133.9 276.8,134.3 275.7,134.7 274.6,134.5 273.9,134.2 273,134.7 271.9,135.2 270.9,135.4 
		269.4,135.6 268.6,134.5 267.7,133 266.4,131.5 265.6,130.3 265.3,129.1 265.2,128.1 264.7,126.9 264.1,126.2 262.3,125.5 
		260.6,124.9 259.1,124.5 257.7,124.3 255.5,124 256.8,125.9 257.4,128 258.1,130.4 259.5,133.9 260.6,137 	"/>
</g>
<g id="_x31_1">
	<polygon fill="none" stroke="#000000" stroke-miterlimit="10" points="248.1,119.3 250.1,119.7 251.6,121.2 253.2,123.1 255.5,124 
		257.7,124.3 259.1,124.5 260.6,124.9 262.3,125.5 263.5,126 264.7,126.9 265.2,128.1 265.3,129.1 265.6,130.3 266.4,131.5 
		267.7,133 268.6,134.5 269.4,135.6 270.9,135.4 271.9,135.2 273,134.7 273.9,134.2 274.6,134.5 275.7,134.7 276.8,134.3 
		277.4,133.9 278.7,133 279.7,132.3 280.6,132.2 282.1,126.8 281.7,126.1 280.2,125.6 278.7,125.1 277.7,124.7 276.8,123.7 
		276,121.5 275.5,119.4 275.2,118.2 274.9,116.9 274.3,116.1 272.7,115.6 271.6,115.1 271.5,113.8 272.1,111.2 272.5,109.5 
		272.8,108.1 272.9,107.5 271.9,107.5 271,107.9 270,108.7 268.2,110 267.2,110.7 266.1,111.1 264.4,111.2 262.6,111 260.8,110.6 
		259.2,110.4 257.7,110.3 256.5,110.4 255.5,110.8 253.7,112.1 252.3,113.4 251.2,114.8 250.1,116.3 249.3,117.5 	"/>
</g>
<g id="_x31_2">
	<path fill="none" stroke="#000000" stroke-miterlimit="10" d="M272.8,107.1l-0.1,0.8l-0.3,1.6l-0.4,1.6l-0.6,2.6l0.1,1.3l1.1,0.5
		l1.6,0.5l0.6,0.8l0.6,2.5l0.6,2.1l0.8,2.2l0.9,1l1,0.4l1.5,0.6l1.5,0.4l0.5,0.8l-1.6,5.3l0.3,1.1l0.6,0.8l1.3,0.4l1.3,0.1l1.1-0.2
		l1.6-0.5l1.3,0.3l1.6,0.4l1.6,0.7l1.7,0.6l2.1,0.1l1.3,0c0,0,1.2-0.2,1.7-0.4c0.5-0.2,1.2-0.8,1.2-0.8l0.2-1v-1.1l-0.3-1.2
		l-1.1-1.1l-1.3-1l-1.2-0.9l-0.7-0.7l-0.5-1.3l0.1-1.8l1.2,0.2l1.7,0.2l1.3,0.3l1.6,0.4l1,0.5l1.4,0.7l-0.1-6.3l-1.6-0.7l-0.3-2.9
		v-1.8l-0.3-3.2l-0.3-1.7l-0.7-2.2l-0.6-1.7l-0.8-1.8l-0.6-1.4l-1.3,0.6l-0.9,0.6l-0.7,0.8l-0.4,1.8l0.1,1.2l0.3,1.6l0.5,2.1
		l-0.1,1.4l-0.9,1.4l-0.9,0.7l-1.2,0.5l-1-0.1l-0.9-0.9l-0.6-1.3l-0.8-1l-1.5-0.6c0,0-1.8,0-2,0c-0.2,0-2.1,0.3-2.1,0.3l-1.3,0.2
		l-1.6-0.3l-1.9-1.1l-1.6-1.4l-1.2-1.2l-1-0.8L272.8,107.1z"/>
</g>
<g id="_x31_3">
	<path fill="none" stroke="#000000" stroke-miterlimit="10" d="M297.3,103l0.6,1.4l0.8,1.8l0.6,1.7l0.8,2.2l0.2,1.7l0.3,3.1v2
		l0.3,2.9l1.6,0.7l0.1,1.9v2.2l0.1,2.3l1.2,0.9l1.4,1.2l1.4,1.7l1.1,0.9h0.9l2.1-0.8l1.1,0l1.5-0.2l0.5-1l-0.6-1.2l-0.5-1.1
		l-0.4-0.3l0.3-1.2l0.9-0.2l1.1,0.4l1.5,0.4l0.7-0.6l0.7-0.7l1,0.4l0.4,0l1.2-1.4l0.8-1.6l0.7-1.5l0.4-0.9l0.6,0l0.9,0.7l1.5,1.7
		l1.1,0.4l0.8-0.4l0.1-1l-0.2-1.1l-0.4-1.2l-0.4-1.4l-0.5-1.2l-0.5-1.2l-0.3-0.9l-0.3-1.4l0-1.2l0.3-1.3l-1.1-0.5l-1.1-0.1
		c0,0-1.1,0.1-1.3,0.1c-0.2,0-1.7,0.2-1.7,0.2l-1.2,0.1l-1.3-0.2l-1.4-0.9l-0.6-1.6l-0.4-1.8l-0.6-1.3l-1.3-0.6l-0.7,0.1l-1.4,0.7
		l-1,0.7l-0.9,0.7l-1.1,0.7l-0.9,0.2l-1.3-0.3l-1.1-0.6l-1.3-0.9l-1-0.8l-0.9-0.6l-0.9-0.5l-1.1-0.4l-0.9-0.1L297.3,103z"/>
</g>
<g id="_x31_4">
	<polygon fill="none" stroke="#000000" stroke-miterlimit="10" points="294.5,124.6 294.5,125.9 294.4,126.4 294.9,127.7 
		295.6,128.4 296.8,129.4 298.1,130.4 299.2,131.5 299.5,132.7 299.5,133.6 299.1,135.2 300.3,136.5 301.5,137.6 302.7,138.2 
		303.6,138.7 305.3,139 306.3,139 307.8,139 309.3,138.8 311.4,138.3 311.4,139.1 311.2,140.9 310.8,142.3 310.2,143.8 308.4,147.2 
		307.1,149.6 306.9,151.2 306.6,152.5 308.2,153.8 309.4,154.5 310.4,154.5 312,153 313.8,150.9 315.1,150 317.3,150.3 319,149.8 
		320.3,149.3 321.1,148.3 321.5,146.6 321.8,144.9 321.5,143.9 321.3,142.9 322.1,142.3 323,141.9 322,140.8 321,139.9 319.3,138.9 
		318.3,138.3 317.6,137.6 316.8,135.9 316.4,135.2 316,134.5 315.1,133.6 314,132.7 313.6,132.2 313.4,131.6 313.4,130.5 
		312.3,130.6 310.7,130.7 309.5,131.2 308.1,131.6 306.6,130.7 305.2,128.9 303.8,127.7 302.6,126.8 301.2,126.1 300.2,125.7 
		296.9,124.9 	"/>
</g>
<g id="_x31_5">
	<g>
		<path fill="none" stroke="#000000" stroke-miterlimit="10" d="M326.6,157.3l-1.4-2.5l-1.4-1.7l-1.4-1.2l-1.1-0.5l-0.7-0.6
			l-0.3-1.5l-1.3,0.4l-1.7,0.6l-2.1-0.3l-1.3,0.9L312,153l-1.6,1.5h-0.9l-1.3-0.7l-1.6-1.3l0.1,2.2l-0.3,3.7l-0.1,2.8l0.1,2.3l0.1,2
			l0.1,2.5l1.3,1l-5.1,5.7l1.2,1.1l4.9-3.5l2.6-1.7l3.4-0.6l3.7-0.4l3.1-0.3l2.2-0.2l0.5,0.4l-0.4,1.7l1,1c0,0,0.7-12.9,0.9-13.5
			S326.6,157.3,326.6,157.3z"/>
		<path fill="none" stroke="#000000" stroke-miterlimit="10" d="M324.8,172.9l-0.2,6.3l-6.3,0.7l-0.2-0.6l4.3-0.6l0.2-3.9l-3.6,0.3
			l-0.7-4l0.4-0.5l1.1-0.1c0,0,0.1,1.2,0.1,1.2c0,0,3.3-0.4,3.3-0.4l0.2,0.7L324.8,172.9z"/>
		<polygon fill="none" stroke="#000000" stroke-miterlimit="10" points="318.8,175.2 317.8,177 318.1,178.9 319.5,178.7 
			319.5,177.5 321.9,177.2 321.8,176.3 319.5,176.4 319.9,175.3 		"/>
		<path fill="none" stroke="#000000" stroke-miterlimit="10" d="M318.2,175.2L318,173l-1.7-0.3l-0.4-2l-2.8,0.2c0,0-0.2,1.6-0.1,1.9
			c0.1,0.3,0.4,1.2,0.4,1.2l0.2,1.1l0,0.7L318.2,175.2z"/>
		<polygon fill="none" stroke="#000000" stroke-miterlimit="10" points="312.4,171.5 312.7,173.8 313.2,177.7 310.8,178.1 
			310.5,177.6 309.9,178.4 310.1,179.1 310.7,179.1 311.7,182.2 310.5,183.8 308.1,180.8 306.4,181.6 303.6,177.7 304.4,177.2 
			305.3,178 310,174.8 310.1,172.8 		"/>
		<polygon fill="none" stroke="#000000" stroke-miterlimit="10" points="303,178.1 305.5,182.5 304.5,183.3 308.3,189.4 
			306.3,192.4 301.9,185.8 302.6,185.1 302.2,184.7 300.8,185.3 300.1,184.3 299.8,182.3 303,180 302.3,178.4 		"/>
		<polygon fill="none" stroke="#000000" stroke-miterlimit="10" points="305.9,182.8 309.2,187.8 310,185.7 307.6,181.9 		"/>
		<polygon fill="none" stroke="#000000" stroke-miterlimit="10" points="319.8,180.6 320.3,184.9 321.9,184.3 322.3,185.1 
			321.4,185.7 323.3,188 324.2,187.2 324.6,180.2 		"/>
		<polygon fill="none" stroke="#000000" stroke-miterlimit="10" points="310,190.4 308.6,193.2 309.2,194.3 309.3,195 312.5,193.2 
			312.5,192.4 315.5,189.7 315.5,188.8 313.7,188 		"/>
		<path fill="none" stroke="#000000" stroke-miterlimit="10" d="M308.4,196.5l3.4-2.3l1.2,1.7c0,0,0.8-0.2,0.7-0.4
			c-0.1-0.2-1.2-1.8-1.2-1.8l5.4-3.2l2.2,4.3l-6.9,4.6L308.4,196.5z"/>
	</g>
</g>
<g id="_x31_6">
	<path fill="none" stroke="#000000" stroke-miterlimit="10" d="M322.7,141.9l-0.7,0.4l-0.7,0.6l0.1,1l0.4,1l-0.3,1.7l-0.4,1.8
		l-0.7,1l0.3,1.5l0.7,0.6l1.1,0.5l1.4,1.2l1.4,1.7l1.4,2.5l0.8-1.7l0.3-1l0.1-3.7l0.7,1.6l-0.1,2.1l0.1,1.3l-0.1,0.7L328,159l-0.5,2
		l-0.5,12.2c0,0,0.1,1.8,0.2,1.8s0.9,2.2,0.9,2.2l0.9,1.7l0.8,0.9l1,0.5l1.3,0.1h1.3l2-0.3l1.4-0.1l2.7-5.8l0-1.3v-1.7v-1.4l0.2-1.8
		l0-1.6l0.2-1.9l0.5-1.5l0.7-1.3l1.2-1.5l1.3-1.3l1.8-1.8l1.4-1.7l0.8-1.3l0.6-1.9l0.3-1.5v-1.2v-1.4l-0.9-1.9l-1.1-1.6l-1.5-1.8
		l-1.1-1.2l-0.8-1.3l-0.4-1.4l0-2l0.2-1.6l-1.8,0.2l-1.5,0.2l-1.9,0.2l-1.4,0.2l-2,0.2l-2.5,7.7l-0.5,0.2l-1.3-0.3l-0.9-0.1l-1,0.7
		l-1.3,0.8l-1,0.3l-0.5-0.9l-0.7-0.8l-0.7-1.1L322.7,141.9z"/>
</g>
<g id="_x31_7">
	<polygon fill="none" stroke="#000000" stroke-miterlimit="10" points="342.8,135.4 337.6,136.1 334.2,136.4 331.6,144.1 
		331.2,144.4 328.9,144 325.6,145.8 323,141.9 322,140.8 321,139.9 319.3,138.9 318.3,138.3 317.6,137.6 316.8,135.9 316,134.5 
		315.1,133.6 314,132.7 313.6,132.2 313.4,130.5 313.9,129.5 313.3,128.3 312.8,127.2 312.5,126.9 312.8,125.7 313.6,125.5 
		314.7,125.9 316.3,126.3 317,125.7 317.7,125 318.7,125.4 319.4,125.2 320.3,124 321.1,122.4 321.8,120.9 322.2,120 322.9,120 
		323.7,120.7 325.2,122.4 326.3,122.8 327.1,122.4 327.2,121.4 327.1,120.3 326.6,119.1 326.2,117.7 325.7,116.5 325.2,115.3 
		324.9,114.4 324.6,112.9 324.6,111.8 324.9,110.5 325.9,111.2 326.6,111.9 327.2,112.4 328.1,112.7 329.1,112.7 330.3,112.4 
		331.5,112 332.8,111.8 333.4,111.9 333.9,112.4 334.4,113.7 334.9,116.6 335.4,117 336.2,116.7 338.2,115.7 339.6,115.4 
		340.4,115.5 341.5,116.4 341.9,117.7 341.9,119.5 341.5,121.2 341.1,122.9 340.9,124 341,125 341.2,126.5 342,128.1 342.6,129.1 
		343.3,130.3 343.5,131.6 343.2,133.1 342.9,134.5 	"/>
</g>
<g id="_x31_8">
	<path fill="none" stroke="#000000" stroke-miterlimit="10" d="M230.8,142.2l-1.7,0.4l-1.7,0.6l-2.1,1.1l-1.7,1l-0.6,0.4l-1-0.5
		l-1-1.2l-0.9,0.5l-1.5,0.7l-1.2,0.4l-1,0.2l-0.8-0.5l-0.4-1.1l-1.3,0l-1.4,0l-1,0.3l-0.7,1.3l-1.1,1.3l-1.1,0.1l-1.6,0.6l-0.9,0.6
		l-1,0.9l-0.7,1.7l-0.2,1.3l0,0.6l-0.8,0.7l-1.2,1.2l-1.1,0.9l-0.9,0.9l-1,0.1l-1.2-0.1h-0.9l-1.6-0.2l-1.3-0.6l-0.9-0.7l-0.8-1.4
		l-0.8,1.4l-0.1,1.9l0.2,1.2v1.7l-0.7,1.7l-0.5,1.2l-0.8,0.7l-1.4,0.2l-1.8-0.3l-1.4-0.1l-1.2,0l-1.1,0.1l5.4,6.8l1.1-0.4l1.4,0.4
		l1.3,0.5l1.6-0.2l1.4,0h1.5l2.6,2h1.4l2.3-0.2l3,0.2l3.9,1.1l1.7,0.4l3.7,0.1c0,0,0.9-5.9,1-6.3c0-0.4-0.2-1.9-0.2-1.9l-0.9-4
		c0,0-0.1-1.8,0-2.5c0.1-0.6,0.7-1.9,0.7-1.9l0.9-1l1.9-0.4l1.1-0.1l0.8-0.6l0.6-2l0.5-1.3l0.7-1.1l1.2-0.4l1.5,0.3l1.8,0.5l1.6,0.6
		l1.4,0.1l1.5-0.5l1.9-0.5l1.5-0.2l1.7,0.3l1.2,0.5l1.6,0.9l0.5-1.4l0.2-1.4c0,0,0.2-0.5-0.2-0.9s-1.2-1.3-1.2-1.3l-3.8-2l-0.7-1.2
		l-1.6-0.8L230.8,142.2z"/>
</g>
<g id="_x31_9">
	<path fill="none" stroke="#000000" stroke-miterlimit="10" d="M228.5,124.9l0.8,2.4l0.7,2.5l0.8,3.1l0.2,1.4l-0.2,2.2l-0.5,2
		l-0.2,1.3l0.3,2.3l-1.4,0.5l-1.7,0.6l-2.1,1.1l-1.7,1l-0.6,0.4l-1-0.5l-1-1.2l-0.9,0.5l-1.5,0.7l-1.2,0.4l-1,0.2l-0.8-0.5l-0.4-1.1
		l-1.6-0.2l-1.1,0.1l-1,0.3l-1,1.7l-0.8,0.9l-1.1,0.1l-1.6,0.6l-0.9,0.6l-1,0.9l-0.7,1.7l-0.2,1.9l-0.8,0.7l-1.2,1.2l-1.1,0.9
		l-0.9,0.9l-1,0.3l-1.2,0.1l-2.5-0.4l-1.3-0.7l-0.9-0.7l-0.8-1.4l-0.8,1.3l-0.3,1.9l0,2.9l-0.5,1.7l-0.4,1.2l-0.7,0.7l-1.4,0.2
		l-1.8-0.3l-1.3-0.1l-2.4,0.1c0,0-1.2-1.4-1.2-1.6c0-0.2-1.3-1.5-1.3-1.5l-1.9-1.4l1.3-0.7l1.3-0.5l1.4-0.2l1.1-0.7l0.1-1.1l-1-1.8
		l-0.5-1l0.1-1.1l0.7-0.5l1.2,0l1-0.3l-0.3-1.3l-1.1-2.5l-0.9-1.5v-0.8l0.6-0.6l1.1,0.3l1.8,1.3l1.1,0.7l1.6,0.7l0.7-0.7l0.9-1.1
		l-1.6-0.5l-1.6-1.1l-1.3-1.2l-1.6-1.7l-1.5-1l-1.5-0.9l-1.4-0.7l-1.1-0.9l3.6-0.5l3.4-0.3c0,0,2.7-0.1,3-0.1c0.2,0,3-1.1,3-1.1
		l1.1-0.9l1.2-0.8l0.5-0.1l1,0.9l0.9,1.2l0.7,0.1l1-0.2l1.4,0.5l1.3,0.6l0.6,0.3l0.8-0.1l0.5-1.2l0.8-0.4l1-0.5l1.2,0.2l1.2,0.9
		l1.1,1l1.1,0.4l0.5-0.1l1.3-0.7l1-0.5l1.2,0.5l1.4,0.4l1.6,0.6l1,0.4l0.6-1.8c0,0-0.1-1.9-0.1-2.2c0.1-0.3,0.3-0.9,0.4-1
		c0.1-0.1,1.6-1,1.6-1l1.8-0.8c0,0,1.1-0.6,1.2-0.8s0.8-1.9,0.8-1.9l0.9-1.7l0.7-1.3l0.8-1.3l0.9,0.5l0.8,0.2L228.5,124.9z"/>
</g>
<g id="_x32_0">
	<path fill="none" stroke="#000000" stroke-miterlimit="10" d="M225.5,123.9l-0.8,1.3l-1.2,2l-0.4,1l-0.8,1.9l-1.2,0.8l-1.8,0.8
		l-1.5,1l-0.3,1v1.7v1.4l-0.6,1l-2.4-0.6l-1.6-0.8l-1.2-0.5l-1.4,0.7l-0.6,0.3l-0.8,0.3l-1.1-0.4l-1.1-1l-1.2-0.9l-1.2-0.2l-1,0.5
		l-0.8,0.4l-0.5,1.2l-0.8,0.1l-0.6-0.3l-1.3-0.6l-1.4-0.5l-1,0.2l-0.7-0.1l-1.9-2.1l-0.5,0.1l-1.7,1.3l-0.5,0.4l-1.7,0.8l-1.8,0.3
		l-2.9,0l-2,0.2l-2.9,0.3l-1.6,0.2l-1.8,0.3h-1.7l-2.5-0.3l-1.4,0l-1,0l-0.8,0.2l-0.9,0.9l-0.8,0.7l-1.1,0l-1.3-0.3l-1.3-0.4
		l-0.7-0.3l-0.7-1.2l-0.3-0.9l-1.2-0.5l-1.3-0.3l-1.3-0.5l-0.9-0.7l-1.2-0.9l0.5-1.9l0.5-1.2l1.1-1.2l0.9-0.7l0.8-0.7l0-2.2l0-1.5
		l0.7-0.8l0.6-0.3l0.8,1.3l0.8,0.8l1.2-0.3l1.3-0.7l0.4,0.7l1.3,0.6l1.2,0.2l2.3-0.1l1.7-0.2l1.3,0l1.6,0l1.1,0.1l1.6,0.5l0.9,0
		l1.1-0.1l1.6-0.3l1.7-0.4l1.3-0.3l1.4-0.4l2.1-0.3l1.7-0.4l2.5-0.3l1.3-0.2l2.1-0.6l2.3-1.1l1.4-1.1l1.2-1.3l0.9-0.8l1.4-0.9
		l1.4-0.5c0,0,1.3-0.2,1.7-0.3c0.3,0,2.8-0.9,2.8-0.9l2.1-1.4l1.9-1.3l2.1-1.5l2-1.2l1.9-0.7l1.7-0.3l0.8,0.1l0.4,0.5l0,1.3
		l-0.8,1.9l-1.2,2.2c0,0-0.2,0.4-0.2,0.9c0,0.5,0.2,1.2,0.2,1.2l1,1.2l-0.8,1.4l-0.7,0.9l-0.3,1.1l0.1,0.6l0.6,0.2l1.2-0.2l0.7,0
		l1.2,0.2l0.9,0.5l0.7,0.7L225.5,123.9z"/>
</g>
<g id="_x32_1">
	<path fill="none" stroke="#000000" stroke-miterlimit="10" d="M190.3,145.5l-1.6-0.6l-1.6-1.1l-1.3-1.2l-1.6-1.7l-1.5-1l-1.5-0.9
		l-1.4-0.7l-1.1-1.1l-1.8,0.3h-1.7l-2.5-0.3l-1.4,0l-1,0l-0.8,0.2l-0.9,0.9l-0.8,0.7c0,0-0.8,0.1-1.1,0c-0.4-0.2-2.6-0.7-2.6-0.7
		l-0.7-0.3l-0.7-0.9l-0.3-0.5h-1.7c0,0-1.1-0.2-1.3-0.1c-0.2,0-1,0-1.5,0.2c-0.5,0.2-1.3,0.6-1.3,0.6l-0.7,0.9l-0.3,1.2l0.3,1.4
		l0.7,1.7l0.3,0.7l-0.8,0l-1-0.1l-1,0.4c0,0-0.7,0.6-0.9,0.6c-0.2,0-1.6,1.1-1.6,1.1l-1.4,0.9l-1.3,0.8l-1,0.2l-1,0
		c0,0-0.1,1.1,0,1.1s0.7,0.8,0.7,0.8l0.9,0.7l0.6,0.6l0.5,1.4l0.1,1.3l0.4,1.2l0.3,0.5l0.7,0.7l0.6,0.5l0.4,0.4l0.6,0.4h0.6l0.9,0
		l1.3-0.2l1.3-0.3l1.2-0.1l1.4,0.2l1.2,0.2l1.6,0.4l1.3,0.2l1.2,0.3l0.6-0.1l-0.7,1.1l-1.1,1.9l-0.8,1.5l-0.5,1.5l-0.4,1.7l-0.1,1.1
		l-0.2,0.7c0,0-0.3,0.8-0.6,1c-0.3,0.2-1.9,0.7-1.9,0.7l-1.4,0.3l-1,0.3c0,0-0.7,0.6-0.7,0.8c0,0.2,0.4,1.3,0.4,1.6
		c0,0.3,0.4,1.6,0.4,1.6l0.6,1.1l1.2,0.6l1.4,0.3c0,0,1.3,0.1,1.6,0.2c0.4,0,1.1,0,1.1,0l0.9,1l0.9,0.8l1.4,0.4l1.7-0.2l1.4-0.2
		l1.2-0.2l2-0.8l1.8-0.3l1.4-0.2l1.3-0.6l2.1-0.6l2.1,0.2c0,0,0.9,0,1.4-0.2c0.4-0.2,1.7-1.3,1.9-1.4s1.9-1.5,1.9-1.5l1.7-1.2
		l-5.4-6.8l-1.8-2.4l-1.4-1.3l-1.2-0.9l1.3-0.7l1.3-0.5l1.4-0.2l1.1-0.7l0.1-1.1l-0.7-1.3l-0.8-1.5l0.1-1.1l0.7-0.5l0.8-0.1l0.7,0
		l0.7-0.6l-0.6-1.3l-0.5-1.2l-0.7-1.4l-0.5-0.8v-0.8l0.6-0.6l1.1,0.3l1.8,1.3l1.1,0.7l1.6,0.7l0.7-0.7L190.3,145.5z"/>
</g>
<g id="_x32_2">
	<path fill="none" stroke="#000000" stroke-miterlimit="10" d="M237.1,185.6l0.5-2.3l0.5-1.4l0.6-2.7l-0.4-2l-0.5-1.9l0-1.6l0.7-3
		l-1.6-4.4l0.3-2l-0.5-2.6l1.8-4.6l-0.1-1.2l0.3-1.8l0.4-1.4l-1.6-0.9l-1.7-0.6l-1.2-0.2l-1.5,0.2l-1.5,0.5l-1.5,0.4l-1.2,0.1
		l-1.5-0.4l-1.7-0.5l-1.6-0.4l-0.7-0.2l-1.2,0.4l-0.7,1.1l-0.5,1.3l-0.4,1.4l-0.2,0.6l-0.8,0.6l-1.5,0.2l-1.5,0.3l-0.9,1l-0.5,1.4
		l-0.2,2.2l0.3,2l0.4,1.7l0.3,1l0.2,1.9l-1,6.3l-3.7-0.1l-1.7-0.4l-3.9-1.1l-3-0.2l-3.7,0.1l-1.4,2.6l-0.8,1.2l-0.2,2l-0.3,1.1
		l-0.7,1.7l-0.5,1.1l-0.6,2.2l1,0.3l0.9,0.8l1,1.2l1.2,1.8l0.8,1l1,0.8l0.7,0.5l1.1,0.4l1.2,0.4l1.2,0.3l1.2,0.2l0.7-0.3l0.3-0.9
		l-0.3-1.5l-0.2-1.6c0,0,0.1-0.4,0.3-0.7s1.1-1,1.1-1l2-1.2c0,0,2.8-2,3-2.1c0.1-0.1,5.4-4.4,5.4-4.4l0.6-0.2l0.8,0.3l1.6,0.2
		l1.7,0.1l2.1,0.1l2.1,0l1.1,0.1l0.8,0.3c0,0,0.6,0.5,0.9,0.8s2.3,2.2,2.5,2.4c0.2,0.2,1.6,1.4,1.7,1.6c0.1,0.1,1.4,1,1.4,1
		L237.1,185.6z"/>
</g>
<g id="_x32_3">
	<path fill="none" stroke="#000000" stroke-miterlimit="10" d="M194.7,184l0.4-1.6l0.1-1l0.5-0.7l0.7-1.7l0.2-1.7l0.2-1.3l1.3-2
		l1-1.8l-1.5-0.9l-1.1-0.9H195l-1.5,0l-1.6,0l-1.3-0.4l-1.4-0.4l-1.1,0.4l-1.7,1.2l-1.9,1.5l-1.9,1.4l-1.4,0.2l-1.6-0.1l-1.8,0.3
		l0.6,1.3l0.8,0.9l1.3,0.8l1.3,0.3l1.1,0.8l0.2,0.8l-0.5,1.1l-1.7,1.2l-1.4,1.3l-1.5,1l-2,1.3l-1.5,1.1l-1.2,1.4l-1,1.2l-0.3,0.8
		l-1.7,0.9l-0.6,1.8l-0.5,1.3l-0.7,0.9l-0.6,0.3c0,0-0.7-0.2-0.9-0.3c-0.2-0.2-1.5-1.7-1.5-1.7l-1.5-1.2c0,0-1.7-0.8-1.9-0.8
		c-0.2,0-1.6-0.1-1.8-0.1c-0.2,0-1.7,0-1.7,0s-1.5-0.2-1.7-0.3s-2.5-0.8-2.5-0.8s-1.2-0.8-1.3-0.9c-0.2-0.1-1.3-1.9-1.3-1.8
		c-0.1,0-0.7-0.9-0.7-0.9s-0.2-0.3-0.5-0.2c-0.3,0.1-1.1,0.6-1.1,0.6s-1,0.7-1.3,0.7c-0.3,0.1-2.1,0.4-2.1,0.4l-2.4,0.4l-1.3,0.1
		l-1.6-0.1l-1.6-0.6l-1.1-0.5l-1.9,0.5l-1-0.2l-1.3-0.6l-1.7,0.1c0,0-1.6,0.8-1.8,1c-0.2,0.1-1.4,1-1.4,1l-1.3,1.2l-0.4,1.7l0,0.8
		l1.5-1l1.4-0.6l1.2-0.2l1.2,0.2l1.5,0.6l1.2,0.8l1.4,0.9l0.8,0.5l1.4,0.4l1.7,0.2l2.1,0l2.3,0.1l3,0.3l2.6,0.2l3.5,0.4l2.6,0.4
		l3.6,0.9l2.1,0.8l2.9,1.6l3.6,2.9l2.2,1.9l1.1,0.7l1.9,1l2.4,0.8l1.3,0.5l2,1.3l1.9,2.5l0.9,1.3l1.2,1.1l1.3,0.9l1.3,0.7l1.3,0.9
		l1.1,1.1l1.9,3.2l1.7,3.2l1.3,2l1.4,2.1l1.9,2.4l1.5,1.9l1.3,1.4l1.1,1l1,0.6c0,0,0.3,0.2,0.8,0.2c0.4-0.1,0.7-0.8,0.7-0.8
		l-0.3-1.2l-0.4-0.6l-0.7-1.4l-0.3-1.4l-0.1-2.8l0.1-3.4l-0.1-2.6l-0.2-1.5l-0.8-1.9l-0.3-1.3l0-1.7l-0.1-1.6l-0.6-1.3l-0.3-0.3
		l-0.7-0.7l-1.5-2.5l0.5-0.9l0.9-1.1l1.4-1.2l0.9-0.4l1,0.7c0,0,1.5,3.1,1.5,3.1c0,0,0.5,0.7,0.5,0.7l1.3,0.8l0.7,0.2l0.7-0.3
		l0.7-1.5l0.3-1.8l-0.3-1.8l-0.8-1.8l-1-1.7l-0.9-1.1l-1-1l-1.4-1.2l-1.7-1.5l-1.9-1.5l-1.7-1.1l-1.7-0.7l-1.3-0.5l-1.8-1l-1-0.9
		l-0.2-0.4l-0.2-1.2l0.2-1.4l0.6-1.4l0.7-0.9l1.1-0.5L194.7,184z"/>
</g>
<g id="_x32_4">
	<path fill="none" stroke="#000000" stroke-miterlimit="10" d="M127.6,192.5l-0.1-0.8l0.3-1.7l1.3-1.2l1.4-1l1.5-0.8l2-0.3l1.3,0.6
		l1,0.2l1.9-0.5l1.1,0.5l1.1,0.4l1.3,0.2l2-0.1l2.4-0.4c0,0,1.7-0.3,2.1-0.4c0.4-0.1,2.4-1.3,2.4-1.3l1.2,1.2l1.3,1.8l1.3,0.9
		l2.5,0.8l1.7,0.3l2-0.1l1.5,0.1l1.9,0.8l1.5,1.2l1.2,1.4l0.7,0.5l1.2-0.2l0.8-1.2l0.3-0.9l0.6-1.8l1.7-0.9l0.3-0.8l1-1.2l1.2-1.4
		l1.5-1.1l2-1.3l1.5-1l1.4-1.3l1.7-1.2l0.5-1.1l-0.2-0.8l-1.1-0.8l-1.3-0.3l-1.3-0.8l-0.8-0.9l-0.6-1.3l-2.1,0.8l-1.4,0.2l-1.8,0.3
		l-2,0.8l-2.6,0.3l-1.7,0.2l-1.4-0.2l-1.8-1.6h-1l-1.8-0.4l-1.4-0.4l-1.2-0.7l-1-2.7l-0.4-1.6l0.7-0.8l1-0.3l1.4-0.3l1.9-0.8
		l0.8-1.7l0.1-1.1l0.4-1.7l0.5-1.5l0.8-1.5l1.1-1.9l0.7-1.1l-0.6,0.1l-1.2-0.3l-1.3-0.2l-1.6-0.1l-1.6-0.1h-1.1l-1.1-0.3l-1.3,0.2
		l-1.3,0.1l-1.5,0l-1.1-0.7l-1.3-1.2l-0.7-1.8l-0.1-1.3L149,150l-0.6-0.6l-0.9-0.7l-0.7-0.8l0-1.1l-1.1-0.1l-1.2-0.2h-1.1l-1-0.2
		l-1.1,0.5l-0.8,0.8l-0.5,0.5l-1.2,0.4l-1.6,0h-0.6l-1.5-0.2l-1-0.2l-0.9-0.7l-0.6-0.7l-1.4-0.3l-1,0.1l-1,0.2l-0.3,0.8l-0.7,0.3
		l-1-0.3l-0.9,0l-0.9,0.3l-0.8,0.3l-1-0.6l-1.1-0.7l-1-0.3l-1,0.3l-0.4,0.8l-1.2,0.4l-1.1-0.2l-1.2-0.5l-0.9-0.6l-1.1-0.3l-1.2-0.1
		l-2.8,0l-1.7,0.2l-1.1,0l-1.1,0.1l-0.7,0.5l-0.5,1.1l-0.4,1.8l-0.3,1.2l-0.6,1l-1.1,1l-0.6,1.1v1l0.8,1.1l0.1,1.1l-0.7,0.3
		l-1.3-0.2l-1.3-0.5l-0.9-0.3l-0.7,0.3l-1.2,1.4l-0.5,0.2l-1.7-0.1l-1.2,0.1l-0.5,0l-1.1,2.8l-1,2l-1,2.4l-0.6,1.4l0.7,0.6l1.1,1.5
		l0.9,1.9l0.8,1.7l1,1.3l0.7,0.4l0.9,0.3l1.1,0.2l1.3,0.1l1.3,0l1.1-0.1l1.8-0.5l2-0.3l1.2-0.1l1.3,0.2l1.3,0.7l0.8,1.1l0.4,1.8
		l0.3,1.9l0.4,1l0.9,1.5l1.3,1.6l0.5,1.7l0.7,1.4l1,0.9l2,1.4l2.7,1.9l1.6,1l2,1l1.3,0.2l1.3-0.2l1.3-0.6L127.6,192.5z"/>
</g>
<g id="_x32_5">
	<path fill="none" stroke="#000000" stroke-miterlimit="10" d="M165.6,123.1l-0.6-1.5l-0.6-1.8l-0.6-2c0,0-0.9-2.1-1-2.2
		c0-0.1-0.6-1.8-0.6-1.8l-1.2-1l-1.5-0.3h-2.9h-2.7l-2.5,0.3l-2.5-0.2c0,0-1.5-0.5-1.5-0.5c0.1,0-1.6-1-1.6-1s-0.4-1.3-1.1-1.4
		s-0.6-1.9-0.6-1.9l-0.4-2.5l-0.7-2.8l-1-0.8c-1.2,0.2-2.7,0.6-2.7,0.6l-1-0.6l-0.5-1.5l-0.9-3.2l-0.8-1.2l-2-0.4l-2.7,0H128
		c0,0-1.6-0.6-2.4-0.5s-3.2,0.3-3.2,0.3s-1.5,0.1-2.3,0c-0.7,0-2.5-0.6-3.3-0.5c-0.8,0-2.9,0.8-2.9,0.8l-1.3,0.1l-2.8-2.4l-1.5-0.7
		h-2.5l-2.1,0.6l-1.5,0.2l-1.8-0.2l-2.5-1.2l-2.3-0.4l-2.2-0.6l-2.8-1.5l-2.6-1.9L84,86L81,85.5h-2.7l-4.8,0.3c0,0-1.6-0.2-2.1-0.4
		c-0.6-0.1-2.2-1.1-2.2-1.1l-4.9-3.3l-2.1-0.6h-3.3c0,0-1.3,0.3-1.7,0.3c-0.4,0-3.3-1.5-3.3-1.5l-3.7-2.3l-3.9-3l-2.5-1.4l-3-0.6
		l-3,0.8L36,74.5l-2.3,1.8l-3.1,0.9L27,77.6c0,0-3.4,0.4-3.7,0.5c-0.3,0.1-2.1,0.6-2.5,0.9c-0.4,0.2-3.2,2.7-3.2,2.7s-1.6,2-1.8,2.4
		c-0.2,0.3-0.9,2.9-0.9,2.9s-0.2,1.7,0,2.1c0.2,0.5,0.8,2.7,0.9,3.2c0.1,0.5,0.8,2.3,0.8,2.3l1.1,1.7c0,0,0.5,1.3,1.2,1.4
		c0.7,0.1,2.6,1,2.6,1l1.9,1.4c0,0,1.2,2.2,1.3,2.7s0.2,1.6,0.2,2.4s0.1,2.6,0.1,2.6s0.1,1.5,0.2,1.9s0.3,1.6,0.4,2s0.6,1.6,0.8,1.9
		c0.2,0.3,0.9,1.5,0.9,1.5s-0.2-0.4,0.7,1c0.9,1.4,1.1,1.8,1.3,2.3s0.5,1.2,0.4,2.1c-0.1,0.9-0.1,1-0.2,1.6c0,0.6,0,0.3,0,1.2
		c0,0.9,0,1.2,0.3,2.1c0.2,0.9,0.4,1.7,0.6,2.2c0.2,0.4,0.4,1,0.7,1.4c0.3,0.4,0.6,0.8,1.1,1.2c0.5,0.4,1.7,1.3,1.7,1.3
		s0.9,0.5,1,0.7s0.9,0.8,1.2,1.1s1,1.3,1.3,1.7s0.8,1.6,1,2.2c0.2,0.7,0.7,1.8,0.7,1.8l1,2l1.7,2l1.3,1.2l1.8,1.5l2.6,1.7l3.1,1.8
		l2.2,1.2l1.7,1l3.5,2.1l2.5,1.4l2.8,1.1l3.1,0.8l2.4,0.3l2.2,0.3l2.3,0.8l1.8,1.4l2.2,2.3l1.4,1.1l1.5,0.8l3,1.4l2.4,0.7l2.2,0.6
		l1.8,0.8l3.8-8.6l1.7-0.1l1.7,0.1l0.5-0.2l1.2-1.4l0.7-0.3l0.9,0.3l1.3,0.5l1.4,0.2l0.7-0.3l0-1.1l-0.6-1.1l0.4-2.1l0.9-1l0.6-1
		l0.7-3l1.1-1.7l1.1-0.1l1.1,0l4.5-0.3l2.3,0.4l2.1,1.1l1.1,0.2l1.2-0.4l0.4-0.8l1-0.3l1,0.3l1.1,0.7l1,0.6l0.8-0.3l0.9-0.3l0.9,0
		l1,0.3l0.7-0.3l1.3-1l1-0.1l1.4,0.3l0.6,0.6l0.9,0.7l1,0.1l1.5-0.1l2.2,0.3l1.2-0.2l1.3-1.4l1.1-0.8l1.3-0.4l1.4,0.6l1.1,0.6
		l0.6,0.2l1,0l2.6-1.2l1.1-0.7l1.6-1.1l1.4-0.9l0.5-0.2l1.8,0l-0.3-0.7l-0.7-1.7l-0.3-1.4l0.3-1.2l0.7-0.9l1.3-0.7l1.5,0.1l1.3,0.1
		h1.8l-1.3-0.8l-2-0.9l-1.4-1l-1.2-1l0.5-1.9l0.5-1.2l1.1-1.2l1.6-1.4l0-2.2l0-1.5l1.4-1.2l0.8,1.3l0.8,0.8l1.2-0.3l1.3-0.7"/>
</g>
<g id="captions">
	<g>
		<g>
			<path d="M287.2,165.5l1.4-0.7h0.1v4.8c0,0.3,0,0.5,0,0.6c0,0.1,0.1,0.1,0.2,0.2c0.1,0,0.3,0.1,0.5,0.1v0.2h-2.1v-0.2
				c0.3,0,0.4,0,0.5-0.1c0.1,0,0.1-0.1,0.2-0.2s0-0.3,0-0.6v-3.1c0-0.4,0-0.7,0-0.8c0-0.1-0.1-0.2-0.1-0.2s-0.1-0.1-0.2-0.1
				c-0.1,0-0.2,0-0.4,0.1L287.2,165.5z"/>
		</g>
		<g>
			<path d="M296.9,145.5l-0.4,1.1h-3.3v-0.2c1-0.9,1.7-1.6,2.1-2.2c0.4-0.6,0.6-1.1,0.6-1.6c0-0.4-0.1-0.7-0.3-0.9s-0.5-0.3-0.8-0.3
				c-0.3,0-0.5,0.1-0.8,0.2c-0.2,0.2-0.4,0.4-0.5,0.7h-0.2c0.1-0.5,0.2-0.9,0.5-1.2c0.3-0.3,0.6-0.4,1.1-0.4c0.5,0,0.8,0.1,1.2,0.4
				c0.3,0.3,0.5,0.6,0.5,1c0,0.3-0.1,0.6-0.2,0.9c-0.2,0.5-0.5,0.9-1,1.4c-0.7,0.8-1.1,1.2-1.3,1.4h1.5c0.3,0,0.5,0,0.6,0
				s0.2-0.1,0.3-0.1c0.1-0.1,0.2-0.2,0.3-0.3H296.9z"/>
		</g>
		<g>
			<path d="M282.3,186.1c0.2-0.4,0.4-0.7,0.6-0.9c0.2-0.2,0.6-0.3,0.9-0.3c0.5,0,0.8,0.1,1,0.4c0.2,0.2,0.3,0.5,0.3,0.7
				c0,0.4-0.3,0.8-0.8,1.3c0.3,0.1,0.6,0.3,0.8,0.6c0.2,0.3,0.3,0.6,0.3,0.9c0,0.5-0.2,0.9-0.5,1.3c-0.4,0.5-1,0.7-1.8,0.7
				c-0.4,0-0.6,0-0.8-0.1s-0.2-0.2-0.2-0.3c0-0.1,0-0.2,0.1-0.2c0.1-0.1,0.1-0.1,0.2-0.1c0.1,0,0.1,0,0.2,0c0,0,0.2,0.1,0.3,0.2
				c0.2,0.1,0.3,0.1,0.3,0.2c0.1,0,0.2,0,0.3,0c0.3,0,0.5-0.1,0.7-0.3c0.2-0.2,0.3-0.5,0.3-0.8c0-0.2,0-0.4-0.1-0.6
				c-0.1-0.2-0.2-0.3-0.2-0.4c-0.1-0.1-0.3-0.2-0.5-0.3s-0.4-0.1-0.6-0.1h-0.1v-0.1c0.2,0,0.4-0.1,0.7-0.2c0.2-0.1,0.4-0.3,0.5-0.5
				s0.2-0.4,0.2-0.6c0-0.3-0.1-0.5-0.3-0.7c-0.2-0.2-0.4-0.3-0.7-0.3c-0.4,0-0.8,0.2-1.1,0.7L282.3,186.1z"/>
		</g>
		<g>
			<path d="M284.5,206.8v0.6h-0.8v1.5H283v-1.5h-2.4v-0.5l2.6-3.8h0.5v3.7H284.5z M283,206.8V204l-2,2.8H283z"/>
		</g>
		<g>
			<path d="M266.7,178.9l-0.3,0.7h-1.7l-0.4,0.8c0.7,0.1,1.3,0.4,1.8,0.8c0.4,0.4,0.6,0.8,0.6,1.3c0,0.3-0.1,0.6-0.2,0.8
				c-0.1,0.3-0.3,0.5-0.5,0.6c-0.2,0.2-0.4,0.3-0.6,0.4c-0.3,0.2-0.6,0.2-1,0.2c-0.3,0-0.6-0.1-0.7-0.2c-0.2-0.1-0.2-0.2-0.2-0.4
				c0-0.1,0-0.1,0.1-0.2s0.1-0.1,0.2-0.1c0.1,0,0.1,0,0.2,0c0.1,0,0.1,0.1,0.3,0.2c0.2,0.1,0.4,0.2,0.6,0.2c0.3,0,0.6-0.1,0.9-0.4
				c0.2-0.2,0.4-0.5,0.4-0.9c0-0.3-0.1-0.7-0.3-1c-0.2-0.3-0.5-0.5-0.9-0.7c-0.3-0.1-0.7-0.2-1.2-0.2l1.1-2.2H266.7z"/>
		</g>
		<g>
			<path d="M248.7,170v0.2c-0.4,0-0.7,0.1-0.9,0.2s-0.5,0.3-0.7,0.5s-0.4,0.5-0.6,0.8c-0.1,0.3-0.3,0.6-0.4,1
				c0.4-0.3,0.8-0.4,1.2-0.4c0.4,0,0.7,0.2,1,0.5c0.3,0.3,0.4,0.7,0.4,1.2c0,0.5-0.1,0.9-0.4,1.3c-0.3,0.5-0.8,0.7-1.4,0.7
				c-0.4,0-0.7-0.1-1-0.4c-0.5-0.5-0.8-1.1-0.8-1.9c0-0.5,0.1-1,0.3-1.4c0.2-0.5,0.5-0.9,0.9-1.2c0.4-0.4,0.7-0.6,1.1-0.7
				c0.3-0.1,0.7-0.2,1-0.2H248.7z M246.1,172.9c-0.1,0.4-0.1,0.7-0.1,0.9c0,0.3,0,0.6,0.1,0.9s0.2,0.6,0.4,0.7
				c0.1,0.1,0.3,0.2,0.5,0.2c0.2,0,0.5-0.1,0.6-0.3c0.2-0.2,0.3-0.6,0.3-1c0-0.5-0.1-0.9-0.3-1.2c-0.2-0.3-0.5-0.5-0.8-0.5
				c-0.1,0-0.2,0-0.3,0.1C246.5,172.7,246.3,172.8,246.1,172.9z"/>
		</g>
		<g>
			<path d="M271.7,160.5h3v0.2l-1.9,5.6h-0.5l1.7-5.1h-1.6c-0.3,0-0.5,0-0.7,0.1c-0.2,0.1-0.4,0.3-0.6,0.6l-0.1,0L271.7,160.5z"/>
		</g>
		<g>
			<path d="M247.2,150.2c-0.4-0.4-0.7-0.7-0.9-0.9c-0.1-0.2-0.2-0.5-0.2-0.7c0-0.4,0.1-0.7,0.4-1c0.3-0.3,0.7-0.4,1.1-0.4
				c0.5,0,0.8,0.1,1.1,0.4c0.3,0.2,0.4,0.5,0.4,0.8c0,0.2-0.1,0.4-0.2,0.6c-0.2,0.2-0.5,0.5-0.9,0.8c0.5,0.4,0.8,0.7,1,0.9
				c0.2,0.3,0.3,0.6,0.3,0.9c0,0.4-0.2,0.7-0.5,1s-0.7,0.4-1.2,0.4c-0.5,0-1-0.2-1.3-0.5c-0.2-0.3-0.4-0.6-0.4-0.9
				c0-0.3,0.1-0.5,0.3-0.7C246.5,150.8,246.8,150.5,247.2,150.2z M247.4,150.4c-0.2,0.2-0.4,0.4-0.5,0.6c-0.1,0.2-0.2,0.5-0.2,0.7
				c0,0.4,0.1,0.6,0.3,0.9c0.2,0.2,0.4,0.3,0.8,0.3c0.3,0,0.5-0.1,0.7-0.3c0.2-0.2,0.3-0.4,0.3-0.6c0-0.2-0.1-0.4-0.2-0.5
				C248.4,151.3,248,150.9,247.4,150.4z M247.8,149.8c0.3-0.3,0.5-0.5,0.6-0.7c0.1-0.2,0.1-0.4,0.1-0.6c0-0.3-0.1-0.5-0.2-0.7
				c-0.2-0.2-0.4-0.2-0.7-0.2s-0.5,0.1-0.7,0.2c-0.2,0.2-0.3,0.4-0.3,0.6c0,0.1,0,0.3,0.1,0.4c0.1,0.1,0.2,0.3,0.3,0.4L247.8,149.8z
				"/>
		</g>
		<g>
			<path d="M240.6,134.5v-0.2c0.4,0,0.7-0.1,1-0.3c0.3-0.2,0.6-0.4,0.9-0.9c0.3-0.4,0.5-0.9,0.6-1.3c-0.4,0.3-0.8,0.4-1.2,0.4
				c-0.4,0-0.7-0.2-1-0.5s-0.4-0.7-0.4-1.2c0-0.5,0.1-0.9,0.4-1.3c0.3-0.5,0.8-0.7,1.3-0.7c0.5,0,0.9,0.2,1.2,0.6
				c0.4,0.5,0.6,1.1,0.6,1.8c0,0.6-0.2,1.2-0.5,1.8c-0.3,0.5-0.7,1-1.3,1.4c-0.4,0.3-0.9,0.4-1.5,0.4H240.6z M243.2,131.6
				c0.1-0.4,0.1-0.7,0.1-0.9c0-0.3,0-0.6-0.1-0.9c-0.1-0.3-0.2-0.6-0.4-0.7c-0.2-0.2-0.4-0.3-0.6-0.3c-0.2,0-0.5,0.1-0.7,0.3
				c-0.2,0.2-0.3,0.6-0.3,1c0,0.6,0.1,1,0.4,1.4c0.2,0.2,0.4,0.4,0.7,0.4c0.1,0,0.3,0,0.5-0.1S243.1,131.7,243.2,131.6z"/>
		</g>
		<g>
			<path d="M275.8,137.2l1.4-0.7h0.1v4.8c0,0.3,0,0.5,0,0.6c0,0.1,0.1,0.1,0.2,0.2s0.3,0.1,0.5,0.1v0.2h-2.1v-0.2
				c0.3,0,0.4,0,0.5-0.1c0.1,0,0.1-0.1,0.2-0.2c0-0.1,0-0.3,0-0.6v-3.1c0-0.4,0-0.7,0-0.8c0-0.1-0.1-0.2-0.1-0.2
				c-0.1,0-0.1-0.1-0.2-0.1c-0.1,0-0.2,0-0.4,0.1L275.8,137.2z"/>
			<path d="M279.4,139.5c0-0.6,0.1-1.2,0.3-1.7c0.2-0.5,0.5-0.8,0.8-1c0.3-0.2,0.5-0.3,0.8-0.3c0.4,0,0.8,0.2,1.2,0.7
				c0.4,0.5,0.6,1.3,0.6,2.2c0,0.7-0.1,1.2-0.3,1.7s-0.4,0.8-0.7,1c-0.3,0.2-0.6,0.3-0.9,0.3c-0.5,0-1-0.3-1.3-1
				C279.5,140.9,279.4,140.2,279.4,139.5z M280.2,139.6c0,0.8,0.1,1.4,0.3,1.9c0.2,0.4,0.4,0.6,0.7,0.6c0.2,0,0.3-0.1,0.5-0.2
				c0.2-0.1,0.3-0.4,0.4-0.7c0.1-0.5,0.2-1.2,0.2-2c0-0.6-0.1-1.2-0.2-1.6c-0.1-0.3-0.2-0.5-0.4-0.7c-0.1-0.1-0.3-0.1-0.4-0.1
				c-0.2,0-0.4,0.1-0.5,0.3c-0.2,0.2-0.3,0.6-0.4,1.1C280.2,138.6,280.2,139.1,280.2,139.6z"/>
		</g>
		<g>
			<path d="M261,117.3l1.4-0.7h0.1v4.8c0,0.3,0,0.5,0,0.6c0,0.1,0.1,0.1,0.2,0.2c0.1,0,0.3,0.1,0.5,0.1v0.2h-2.1v-0.2
				c0.3,0,0.4,0,0.5-0.1c0.1,0,0.1-0.1,0.2-0.2s0-0.3,0-0.6v-3.1c0-0.4,0-0.7,0-0.8c0-0.1-0.1-0.2-0.1-0.2c-0.1,0-0.1-0.1-0.2-0.1
				c-0.1,0-0.2,0-0.4,0.1L261,117.3z"/>
			<path d="M265.3,117.3l1.4-0.7h0.1v4.8c0,0.3,0,0.5,0,0.6c0,0.1,0.1,0.1,0.2,0.2c0.1,0,0.3,0.1,0.5,0.1v0.2h-2.1v-0.2
				c0.3,0,0.4,0,0.5-0.1s0.1-0.1,0.2-0.2s0-0.3,0-0.6v-3.1c0-0.4,0-0.7,0-0.8c0-0.1-0.1-0.2-0.1-0.2c-0.1,0-0.1-0.1-0.2-0.1
				c-0.1,0-0.2,0-0.4,0.1L265.3,117.3z"/>
		</g>
		<g>
			<path d="M281.9,121.2l1.4-0.7h0.1v4.8c0,0.3,0,0.5,0,0.6c0,0.1,0.1,0.1,0.2,0.2s0.3,0.1,0.5,0.1v0.2H282v-0.2
				c0.3,0,0.4,0,0.5-0.1c0.1,0,0.1-0.1,0.2-0.2s0-0.3,0-0.6v-3.1c0-0.4,0-0.7,0-0.8c0-0.1-0.1-0.2-0.1-0.2c-0.1,0-0.1-0.1-0.2-0.1
				c-0.1,0-0.2,0-0.4,0.1L281.9,121.2z"/>
			<path d="M289.1,125.3l-0.4,1.1h-3.3v-0.2c1-0.9,1.7-1.6,2.1-2.2s0.6-1.1,0.6-1.6c0-0.4-0.1-0.7-0.3-0.9c-0.2-0.2-0.5-0.3-0.8-0.3
				c-0.3,0-0.5,0.1-0.8,0.2c-0.2,0.2-0.4,0.4-0.5,0.7h-0.2c0.1-0.5,0.2-0.9,0.5-1.2c0.3-0.3,0.6-0.4,1.1-0.4c0.5,0,0.8,0.1,1.2,0.4
				s0.5,0.6,0.5,1c0,0.3-0.1,0.6-0.2,0.9c-0.2,0.5-0.5,0.9-1,1.4c-0.7,0.8-1.1,1.2-1.3,1.4h1.5c0.3,0,0.5,0,0.6,0
				c0.1,0,0.2-0.1,0.3-0.1c0.1-0.1,0.2-0.2,0.3-0.3H289.1z"/>
		</g>
		<g>
			<path d="M306.8,117.3l1.4-0.7h0.1v4.8c0,0.3,0,0.5,0,0.6c0,0.1,0.1,0.1,0.2,0.2s0.3,0.1,0.5,0.1v0.2h-2.1v-0.2
				c0.3,0,0.4,0,0.5-0.1c0.1,0,0.1-0.1,0.2-0.2s0-0.3,0-0.6v-3.1c0-0.4,0-0.7,0-0.8c0-0.1-0.1-0.2-0.1-0.2c-0.1,0-0.1-0.1-0.2-0.1
				c-0.1,0-0.2,0-0.4,0.1L306.8,117.3z"/>
			<path d="M310.5,117.8c0.2-0.4,0.4-0.7,0.6-0.9c0.2-0.2,0.6-0.3,0.9-0.3c0.5,0,0.8,0.1,1,0.4c0.2,0.2,0.3,0.5,0.3,0.7
				c0,0.4-0.3,0.8-0.8,1.3c0.3,0.1,0.6,0.3,0.8,0.6c0.2,0.3,0.3,0.6,0.3,0.9c0,0.5-0.2,0.9-0.5,1.3c-0.4,0.5-1,0.7-1.8,0.7
				c-0.4,0-0.6,0-0.8-0.1s-0.2-0.2-0.2-0.3c0-0.1,0-0.2,0.1-0.2c0.1-0.1,0.1-0.1,0.2-0.1c0.1,0,0.1,0,0.2,0c0,0,0.2,0.1,0.3,0.2
				s0.3,0.1,0.3,0.2c0.1,0,0.2,0,0.3,0c0.3,0,0.5-0.1,0.7-0.3c0.2-0.2,0.3-0.5,0.3-0.8c0-0.2,0-0.4-0.1-0.6
				c-0.1-0.2-0.2-0.3-0.2-0.4c-0.1-0.1-0.3-0.2-0.5-0.3s-0.4-0.1-0.6-0.1h-0.1v-0.1c0.2,0,0.4-0.1,0.7-0.2s0.4-0.3,0.5-0.5
				c0.1-0.2,0.2-0.4,0.2-0.6c0-0.3-0.1-0.5-0.3-0.7c-0.2-0.2-0.4-0.3-0.7-0.3c-0.4,0-0.8,0.2-1.1,0.7L310.5,117.8z"/>
		</g>
		<g>
			<path d="M310.2,143.2l1.4-0.7h0.1v4.8c0,0.3,0,0.5,0,0.6c0,0.1,0.1,0.1,0.2,0.2c0.1,0,0.3,0.1,0.5,0.1v0.2h-2.1v-0.2
				c0.3,0,0.4,0,0.5-0.1c0.1,0,0.1-0.1,0.2-0.2c0-0.1,0-0.3,0-0.6v-3.1c0-0.4,0-0.7,0-0.8c0-0.1-0.1-0.2-0.1-0.2
				c-0.1,0-0.1-0.1-0.2-0.1c-0.1,0-0.2,0-0.4,0.1L310.2,143.2z"/>
			<path d="M317.5,146.2v0.6h-0.8v1.5h-0.7v-1.5h-2.4v-0.5l2.6-3.8h0.5v3.7H317.5z M316.1,146.2v-2.8l-2,2.8H316.1z"/>
		</g>
		<g>
			<path d="M310.6,158.7l1.4-0.7h0.1v4.8c0,0.3,0,0.5,0,0.6c0,0.1,0.1,0.1,0.2,0.2c0.1,0,0.3,0.1,0.5,0.1v0.2h-2.1v-0.2
				c0.3,0,0.4,0,0.5-0.1c0.1,0,0.1-0.1,0.2-0.2c0-0.1,0-0.3,0-0.6v-3.1c0-0.4,0-0.7,0-0.8c0-0.1-0.1-0.2-0.1-0.2s-0.1-0.1-0.2-0.1
				c-0.1,0-0.2,0-0.4,0.1L310.6,158.7z"/>
			<path d="M317.5,158.1l-0.3,0.7h-1.7l-0.4,0.8c0.7,0.1,1.3,0.4,1.8,0.8c0.4,0.4,0.6,0.8,0.6,1.3c0,0.3-0.1,0.6-0.2,0.8
				c-0.1,0.3-0.3,0.5-0.5,0.6c-0.2,0.2-0.4,0.3-0.6,0.4c-0.3,0.2-0.6,0.2-1,0.2c-0.3,0-0.6-0.1-0.7-0.2c-0.2-0.1-0.2-0.2-0.2-0.4
				c0-0.1,0-0.1,0.1-0.2c0.1-0.1,0.1-0.1,0.2-0.1c0.1,0,0.1,0,0.2,0s0.1,0.1,0.3,0.2c0.2,0.1,0.4,0.2,0.6,0.2c0.3,0,0.6-0.1,0.9-0.4
				c0.2-0.2,0.4-0.5,0.4-0.9c0-0.3-0.1-0.7-0.3-1c-0.2-0.3-0.5-0.5-0.9-0.7c-0.3-0.1-0.7-0.2-1.2-0.2l1.1-2.2H317.5z"/>
		</g>
		<g>
			<path d="M331.8,150.3l1.4-0.7h0.1v4.8c0,0.3,0,0.5,0,0.6c0,0.1,0.1,0.1,0.2,0.2c0.1,0,0.3,0.1,0.5,0.1v0.2h-2.1v-0.2
				c0.3,0,0.4,0,0.5-0.1c0.1,0,0.1-0.1,0.2-0.2c0-0.1,0-0.3,0-0.6v-3.1c0-0.4,0-0.7,0-0.8c0-0.1-0.1-0.2-0.1-0.2s-0.1-0.1-0.2-0.1
				c-0.1,0-0.2,0-0.4,0.1L331.8,150.3z"/>
			<path d="M338.9,149.6v0.2c-0.4,0-0.7,0.1-0.9,0.2c-0.2,0.1-0.5,0.3-0.7,0.5c-0.2,0.2-0.4,0.5-0.6,0.8c-0.1,0.3-0.3,0.6-0.4,1
				c0.4-0.3,0.8-0.4,1.2-0.4c0.4,0,0.7,0.2,1,0.5s0.4,0.7,0.4,1.2c0,0.5-0.1,0.9-0.4,1.3c-0.3,0.5-0.8,0.7-1.4,0.7
				c-0.4,0-0.7-0.1-1-0.4c-0.5-0.5-0.8-1.1-0.8-1.9c0-0.5,0.1-1,0.3-1.4c0.2-0.5,0.5-0.9,0.9-1.2c0.4-0.4,0.7-0.6,1.1-0.7
				c0.3-0.1,0.7-0.2,1-0.2H338.9z M336.3,152.6c-0.1,0.4-0.1,0.7-0.1,0.9c0,0.3,0,0.6,0.1,0.9c0.1,0.3,0.2,0.6,0.4,0.7
				c0.1,0.1,0.3,0.2,0.5,0.2c0.2,0,0.5-0.1,0.6-0.3c0.2-0.2,0.3-0.6,0.3-1c0-0.5-0.1-0.9-0.3-1.2c-0.2-0.3-0.5-0.5-0.8-0.5
				c-0.1,0-0.2,0-0.3,0.1C336.7,152.3,336.5,152.4,336.3,152.6z"/>
		</g>
		<g>
			<path d="M321.7,129.1l1.4-0.7h0.1v4.8c0,0.3,0,0.5,0,0.6c0,0.1,0.1,0.1,0.2,0.2c0.1,0,0.3,0.1,0.5,0.1v0.2h-2.1v-0.2
				c0.3,0,0.4,0,0.5-0.1c0.1,0,0.1-0.1,0.2-0.2s0-0.3,0-0.6v-3.1c0-0.4,0-0.7,0-0.8c0-0.1-0.1-0.2-0.1-0.2s-0.1-0.1-0.2-0.1
				c-0.1,0-0.2,0-0.4,0.1L321.7,129.1z"/>
			<path d="M325.8,128.6h3v0.2l-1.9,5.6h-0.5l1.7-5.1h-1.6c-0.3,0-0.5,0-0.7,0.1c-0.2,0.1-0.4,0.3-0.6,0.6l-0.1,0L325.8,128.6z"/>
		</g>
		<g>
			<path d="M199.6,161.1l1.4-0.7h0.1v4.8c0,0.3,0,0.5,0,0.6c0,0.1,0.1,0.1,0.2,0.2c0.1,0,0.3,0.1,0.5,0.1v0.2h-2.1v-0.2
				c0.3,0,0.4,0,0.5-0.1c0.1,0,0.1-0.1,0.2-0.2c0-0.1,0-0.3,0-0.6v-3.1c0-0.4,0-0.7,0-0.8c0-0.1-0.1-0.2-0.1-0.2s-0.1-0.1-0.2-0.1
				c-0.1,0-0.2,0-0.4,0.1L199.6,161.1z"/>
			<path d="M204.6,163.4c-0.4-0.4-0.7-0.7-0.9-0.9s-0.2-0.5-0.2-0.7c0-0.4,0.1-0.7,0.4-1c0.3-0.3,0.7-0.4,1.1-0.4
				c0.5,0,0.8,0.1,1.1,0.4c0.3,0.2,0.4,0.5,0.4,0.8c0,0.2-0.1,0.4-0.2,0.6c-0.2,0.2-0.5,0.5-0.9,0.8c0.5,0.4,0.8,0.7,1,0.9
				c0.2,0.3,0.3,0.6,0.3,0.9c0,0.4-0.2,0.7-0.5,1s-0.7,0.4-1.2,0.4c-0.5,0-1-0.2-1.3-0.5c-0.2-0.3-0.4-0.6-0.4-0.9
				c0-0.3,0.1-0.5,0.3-0.7C203.9,163.9,204.2,163.7,204.6,163.4z M204.8,163.5c-0.2,0.2-0.4,0.4-0.5,0.6c-0.1,0.2-0.2,0.5-0.2,0.7
				c0,0.4,0.1,0.6,0.3,0.9c0.2,0.2,0.4,0.3,0.8,0.3c0.3,0,0.5-0.1,0.7-0.3c0.2-0.2,0.3-0.4,0.3-0.6c0-0.2-0.1-0.4-0.2-0.5
				C205.8,164.4,205.4,164,204.8,163.5z M205.2,162.9c0.3-0.3,0.5-0.5,0.6-0.7s0.1-0.4,0.1-0.6c0-0.3-0.1-0.5-0.2-0.7
				c-0.2-0.2-0.4-0.2-0.7-0.2s-0.5,0.1-0.7,0.2s-0.3,0.4-0.3,0.6c0,0.1,0,0.3,0.1,0.4c0.1,0.1,0.2,0.3,0.3,0.4L205.2,162.9z"/>
		</g>
		<g>
			<path d="M193,142.9l1.4-0.7h0.1v4.8c0,0.3,0,0.5,0,0.6c0,0.1,0.1,0.1,0.2,0.2c0.1,0,0.3,0.1,0.5,0.1v0.2h-2.1v-0.2
				c0.3,0,0.4,0,0.5-0.1c0.1,0,0.1-0.1,0.2-0.2c0-0.1,0-0.3,0-0.6V144c0-0.4,0-0.7,0-0.8c0-0.1-0.1-0.2-0.1-0.2
				c-0.1,0-0.1-0.1-0.2-0.1c-0.1,0-0.2,0-0.4,0.1L193,142.9z"/>
			<path d="M196.8,148.2V148c0.4,0,0.7-0.1,1-0.3c0.3-0.2,0.6-0.4,0.9-0.9c0.3-0.4,0.5-0.9,0.6-1.3c-0.4,0.3-0.8,0.4-1.2,0.4
				c-0.4,0-0.7-0.2-1-0.5s-0.4-0.7-0.4-1.2c0-0.5,0.1-0.9,0.4-1.3c0.3-0.5,0.8-0.7,1.3-0.7c0.5,0,0.9,0.2,1.2,0.6
				c0.4,0.5,0.6,1.1,0.6,1.8c0,0.6-0.2,1.2-0.5,1.8s-0.7,1-1.3,1.4c-0.4,0.3-0.9,0.4-1.5,0.4H196.8z M199.4,145.2
				c0.1-0.4,0.1-0.7,0.1-0.9c0-0.3,0-0.6-0.1-0.9s-0.2-0.6-0.4-0.7c-0.2-0.2-0.4-0.3-0.6-0.3c-0.2,0-0.5,0.1-0.7,0.3
				c-0.2,0.2-0.3,0.6-0.3,1c0,0.6,0.1,1,0.4,1.4c0.2,0.2,0.4,0.4,0.7,0.4c0.1,0,0.3,0,0.5-0.1S199.2,145.4,199.4,145.2z"/>
		</g>
		<g>
			<path d="M182.6,133.2l-0.4,1.1h-3.3v-0.2c1-0.9,1.7-1.6,2.1-2.2c0.4-0.6,0.6-1.1,0.6-1.6c0-0.4-0.1-0.7-0.3-0.9
				c-0.2-0.2-0.5-0.3-0.8-0.3c-0.3,0-0.5,0.1-0.8,0.2s-0.4,0.4-0.5,0.7H179c0.1-0.5,0.2-0.9,0.5-1.2s0.6-0.4,1.1-0.4
				c0.5,0,0.8,0.1,1.2,0.4c0.3,0.3,0.5,0.6,0.5,1c0,0.3-0.1,0.6-0.2,0.9c-0.2,0.5-0.5,0.9-1,1.4c-0.7,0.8-1.1,1.2-1.3,1.4h1.5
				c0.3,0,0.5,0,0.6,0c0.1,0,0.2-0.1,0.3-0.1c0.1-0.1,0.2-0.2,0.3-0.3H182.6z"/>
			<path d="M183.3,131.5c0-0.6,0.1-1.2,0.3-1.7c0.2-0.5,0.5-0.8,0.8-1c0.3-0.2,0.5-0.3,0.8-0.3c0.4,0,0.8,0.2,1.2,0.7
				c0.4,0.5,0.6,1.3,0.6,2.2c0,0.7-0.1,1.2-0.3,1.7s-0.4,0.8-0.7,1s-0.6,0.3-0.9,0.3c-0.5,0-1-0.3-1.3-1
				C183.4,132.9,183.3,132.2,183.3,131.5z M184.1,131.6c0,0.8,0.1,1.4,0.3,1.9c0.2,0.4,0.4,0.6,0.7,0.6c0.2,0,0.3-0.1,0.5-0.2
				c0.2-0.1,0.3-0.4,0.4-0.7c0.1-0.5,0.2-1.2,0.2-2c0-0.6-0.1-1.2-0.2-1.6c-0.1-0.3-0.2-0.5-0.4-0.7c-0.1-0.1-0.3-0.1-0.4-0.1
				c-0.2,0-0.4,0.1-0.5,0.3c-0.2,0.2-0.3,0.6-0.4,1.1C184.1,130.6,184.1,131.1,184.1,131.6z"/>
		</g>
		<g>
			<path d="M170.4,152l-0.4,1.1h-3.3v-0.2c1-0.9,1.7-1.6,2.1-2.2s0.6-1.1,0.6-1.6c0-0.4-0.1-0.7-0.3-0.9c-0.2-0.2-0.5-0.3-0.8-0.3
				c-0.3,0-0.5,0.1-0.8,0.2c-0.2,0.2-0.4,0.4-0.5,0.7h-0.2c0.1-0.5,0.2-0.9,0.5-1.2s0.6-0.4,1.1-0.4c0.5,0,0.8,0.1,1.2,0.4
				s0.5,0.6,0.5,1c0,0.3-0.1,0.6-0.2,0.9c-0.2,0.5-0.5,0.9-1,1.4c-0.7,0.8-1.1,1.2-1.3,1.4h1.5c0.3,0,0.5,0,0.6,0
				c0.1,0,0.2-0.1,0.3-0.1c0.1-0.1,0.2-0.2,0.3-0.3H170.4z"/>
			<path d="M171.8,148l1.4-0.7h0.1v4.8c0,0.3,0,0.5,0,0.6c0,0.1,0.1,0.1,0.2,0.2c0.1,0,0.3,0.1,0.5,0.1v0.2h-2.1v-0.2
				c0.3,0,0.4,0,0.5-0.1c0.1,0,0.1-0.1,0.2-0.2c0-0.1,0-0.3,0-0.6V149c0-0.4,0-0.7,0-0.8c0-0.1-0.1-0.2-0.1-0.2s-0.1-0.1-0.2-0.1
				c-0.1,0-0.2,0-0.4,0.1L171.8,148z"/>
		</g>
		<g>
			<path d="M224.9,169.3l-0.4,1.1h-3.3v-0.2c1-0.9,1.7-1.6,2.1-2.2c0.4-0.6,0.6-1.1,0.6-1.6c0-0.4-0.1-0.7-0.3-0.9
				c-0.2-0.2-0.5-0.3-0.8-0.3c-0.3,0-0.5,0.1-0.8,0.2c-0.2,0.2-0.4,0.4-0.5,0.7h-0.2c0.1-0.5,0.2-0.9,0.5-1.2s0.6-0.4,1.1-0.4
				c0.5,0,0.8,0.1,1.2,0.4c0.3,0.3,0.5,0.6,0.5,1c0,0.3-0.1,0.6-0.2,0.9c-0.2,0.5-0.5,0.9-1,1.4c-0.7,0.8-1.1,1.2-1.3,1.4h1.5
				c0.3,0,0.5,0,0.6,0c0.1,0,0.2-0.1,0.3-0.1c0.1-0.1,0.2-0.2,0.3-0.3H224.9z"/>
			<path d="M229.1,169.3l-0.4,1.1h-3.3v-0.2c1-0.9,1.7-1.6,2.1-2.2s0.6-1.1,0.6-1.6c0-0.4-0.1-0.7-0.3-0.9c-0.2-0.2-0.5-0.3-0.8-0.3
				c-0.3,0-0.5,0.1-0.8,0.2c-0.2,0.2-0.4,0.4-0.5,0.7h-0.2c0.1-0.5,0.2-0.9,0.5-1.2s0.6-0.4,1.1-0.4c0.5,0,0.8,0.1,1.2,0.4
				c0.3,0.3,0.5,0.6,0.5,1c0,0.3-0.1,0.6-0.2,0.9c-0.2,0.5-0.5,0.9-1,1.4c-0.7,0.8-1.1,1.2-1.3,1.4h1.5c0.3,0,0.5,0,0.6,0
				c0.1,0,0.2-0.1,0.3-0.1c0.1-0.1,0.2-0.2,0.3-0.3H229.1z"/>
		</g>
		<g>
			<path d="M181.9,197.3l-0.4,1.1h-3.3v-0.2c1-0.9,1.7-1.6,2.1-2.2c0.4-0.6,0.6-1.1,0.6-1.6c0-0.4-0.1-0.7-0.3-0.9
				c-0.2-0.2-0.5-0.3-0.8-0.3c-0.3,0-0.5,0.1-0.8,0.2c-0.2,0.2-0.4,0.4-0.5,0.7h-0.2c0.1-0.5,0.2-0.9,0.5-1.2
				c0.3-0.3,0.6-0.4,1.1-0.4c0.5,0,0.8,0.1,1.2,0.4c0.3,0.3,0.5,0.6,0.5,1c0,0.3-0.1,0.6-0.2,0.9c-0.2,0.5-0.5,0.9-1,1.4
				c-0.7,0.8-1.1,1.2-1.3,1.4h1.5c0.3,0,0.5,0,0.6,0c0.1,0,0.2-0.1,0.3-0.1c0.1-0.1,0.2-0.2,0.3-0.3H181.9z"/>
			<path d="M182.7,193.8c0.2-0.4,0.4-0.7,0.6-0.9c0.2-0.2,0.6-0.3,0.9-0.3c0.5,0,0.8,0.1,1,0.4c0.2,0.2,0.3,0.5,0.3,0.7
				c0,0.4-0.3,0.8-0.8,1.3c0.3,0.1,0.6,0.3,0.8,0.6c0.2,0.3,0.3,0.6,0.3,0.9c0,0.5-0.2,0.9-0.5,1.3c-0.4,0.5-1,0.7-1.8,0.7
				c-0.4,0-0.6,0-0.8-0.1s-0.2-0.2-0.2-0.3c0-0.1,0-0.2,0.1-0.2c0.1-0.1,0.1-0.1,0.2-0.1c0.1,0,0.1,0,0.2,0c0,0,0.2,0.1,0.3,0.2
				c0.2,0.1,0.3,0.1,0.3,0.2c0.1,0,0.2,0,0.3,0c0.3,0,0.5-0.1,0.7-0.3c0.2-0.2,0.3-0.5,0.3-0.8c0-0.2,0-0.4-0.1-0.6
				c-0.1-0.2-0.2-0.3-0.2-0.4c-0.1-0.1-0.3-0.2-0.5-0.3c-0.2-0.1-0.4-0.1-0.6-0.1h-0.1v-0.1c0.2,0,0.4-0.1,0.7-0.2
				c0.2-0.1,0.4-0.3,0.5-0.5s0.2-0.4,0.2-0.6c0-0.3-0.1-0.5-0.3-0.7c-0.2-0.2-0.4-0.3-0.7-0.3c-0.4,0-0.8,0.2-1.1,0.7L182.7,193.8z"
				/>
		</g>
		<g>
			<path d="M128.6,168.8l-0.4,1.1h-3.3v-0.2c1-0.9,1.7-1.6,2.1-2.2c0.4-0.6,0.6-1.1,0.6-1.6c0-0.4-0.1-0.7-0.3-0.9
				c-0.2-0.2-0.5-0.3-0.8-0.3c-0.3,0-0.5,0.1-0.8,0.2c-0.2,0.2-0.4,0.4-0.5,0.7H125c0.1-0.5,0.2-0.9,0.5-1.2s0.6-0.4,1.1-0.4
				c0.5,0,0.8,0.1,1.2,0.4c0.3,0.3,0.5,0.6,0.5,1c0,0.3-0.1,0.6-0.2,0.9c-0.2,0.5-0.5,0.9-1,1.4c-0.7,0.8-1.1,1.2-1.3,1.4h1.5
				c0.3,0,0.5,0,0.6,0c0.1,0,0.2-0.1,0.3-0.1c0.1-0.1,0.2-0.2,0.3-0.3H128.6z"/>
			<path d="M132.9,167.8v0.6h-0.8v1.5h-0.7v-1.5h-2.4v-0.5l2.6-3.8h0.5v3.7H132.9z M131.5,167.8V165l-2,2.8H131.5z"/>
		</g>
		<g>
			<path d="M68.7,114.9l-0.4,1.1h-3.3v-0.2c1-0.9,1.7-1.6,2.1-2.2c0.4-0.6,0.6-1.1,0.6-1.6c0-0.4-0.1-0.7-0.3-0.9
				c-0.2-0.2-0.5-0.3-0.8-0.3c-0.3,0-0.5,0.1-0.8,0.2c-0.2,0.2-0.4,0.4-0.5,0.7h-0.2c0.1-0.5,0.2-0.9,0.5-1.2
				c0.3-0.3,0.6-0.4,1.1-0.4c0.5,0,0.8,0.1,1.2,0.4s0.5,0.6,0.5,1c0,0.3-0.1,0.6-0.2,0.9c-0.2,0.5-0.5,0.9-1,1.4
				c-0.7,0.8-1.1,1.2-1.3,1.4h1.5c0.3,0,0.5,0,0.6,0c0.1,0,0.2-0.1,0.3-0.1c0.1-0.1,0.2-0.2,0.3-0.3H68.7z"/>
			<path d="M72.7,110.3l-0.3,0.7h-1.7l-0.4,0.8c0.7,0.1,1.3,0.4,1.8,0.8c0.4,0.4,0.6,0.8,0.6,1.3c0,0.3-0.1,0.6-0.2,0.8
				s-0.3,0.5-0.5,0.6s-0.4,0.3-0.6,0.4c-0.3,0.2-0.6,0.2-1,0.2c-0.3,0-0.6-0.1-0.7-0.2c-0.2-0.1-0.2-0.2-0.2-0.4
				c0-0.1,0-0.1,0.1-0.2c0.1-0.1,0.1-0.1,0.2-0.1c0.1,0,0.1,0,0.2,0c0.1,0,0.1,0.1,0.3,0.2c0.2,0.1,0.4,0.2,0.6,0.2
				c0.3,0,0.6-0.1,0.9-0.4s0.4-0.5,0.4-0.9c0-0.3-0.1-0.7-0.3-1c-0.2-0.3-0.5-0.5-0.9-0.7c-0.3-0.1-0.7-0.2-1.2-0.2l1.1-2.2H72.7z"
				/>
		</g>
	</g>
</g>
</svg>
