<?xml version="1.0" encoding="utf-8"?>
<!-- Generator: Adobe Illustrator 18.1.0, SVG Export Plug-In . SVG Version: 6.00 Build 0)  -->
<!DOCTYPE svg PUBLIC "-//W3C//DTD SVG 1.1//EN" "http://www.w3.org/Graphics/SVG/1.1/DTD/svg11.dtd">
<svg version="1.1" xmlns="http://www.w3.org/2000/svg" xmlns:xlink="http://www.w3.org/1999/xlink" x="0px" y="0px"
	 viewBox="0 0 514 355" enable-background="new 0 0 514 355" xml:space="preserve">
<g id="Base">
</g>
<g id="_x31_">
	<path fill="none" stroke="#000000" d="M410.2,267l-7.6-3.3l-3.9-0.8l-2.9-4.2l-4.2-2.5l-1.3-3.7l0.5-2.8l-0.5-1.6l-1.6-1.8
		l-2.7-2.5l-0.5-2l1.3-2.9l1.8-1.8l0.9-0.8l-0.7-4c0,0-1.6-2.1-1.5-2.2c0,0-1.7-1.3-1.7-1.3l-1.3-0.4l-3.7,1.3l-3,1.4L375,231
		l-2.3-1.8l-1-1.3l3.7-4.3l-0.1-2.2l0.4-4.2l0.3-1.3l-1.8-1.4h-0.5l-1.1-1.4l-0.5-2l-1-2l4.9-0.8l3,0.3l3.7,1.8l2.4,1.9l1.4,0.6
		l2.1,0.2l0.6,0l1.5,1.9l1.5,1l0.9,0.5l1.4,0l1.4,0l0.9,0.1l1.5,1.1c0,0,1.1,0.9,1.3,1.1c0.2,0.2,1.2,1.3,1.2,1.3l1.1,0.1l2,0.3
		l1.6,0.1l1,0.1c0,0,1,0.5,1.3,0.4c0.4-0.1,1.3-0.1,1.3-0.1l1.1,0l1.2-1.6c0,0,0.1-0.3,0.5-0.7c0.5-0.3,0.9-0.6,0.9-0.6l1.2-0.4
		l1.2-0.1l1,0.9l1.2,0.8l1.9,1c0,0-0.4,0.7-0.6,1s-1.6,2.3-1.6,2.3l-1.2,1.9l-1.3,1.8l-1.2,2l-0.7,1.4l-0.8,0.8l-1.2,0.7l-1.5,0.9
		l-1.6,1.2l-0.9,0.9l-0.6,0.8l-0.5,1l0.9,0.8l1.4,2l0.7,1.8l0.6,1.6l0.8,1.4l1.6,2.1l1,0.9l-0.9,1.7l-0.7,1.7l-0.6,2.2l-0.4,1.8
		l-0.1,2.3l-1.5,1.1l1.3,1.8l0.1,2.3l0.1,1.8L410.2,267z"/>
</g>
<g id="_x32_">
	<polygon fill="none" stroke="#000000" points="412.4,247.7 411.5,246.8 409.9,244.7 408.5,241.8 407.8,240 406.4,238 405.5,237.2 
		406.6,235.4 409.1,233.3 411.8,231.6 412.6,230.8 413.4,229.5 414.6,227.5 415.8,225.7 417,223.8 418.6,221.5 419.2,220.5 
		417.3,219.5 415.2,217.8 414,218 412.8,218.3 411.9,218.9 411.3,219.6 410.2,221.1 409.1,221.1 407.8,221.2 406.5,220.8 
		405.5,220.7 403.9,220.5 401.9,220.3 400.8,220.1 399.6,218.8 398.3,217.8 396.8,216.7 395.9,216.6 394.4,216.6 393,216.6 
		390.7,215.1 389.2,213.2 390.1,211.8 392.1,210.2 393.9,209.3 395,208.2 396.3,206.7 397.6,205.7 399,205.5 399.5,205.5 
		401.4,204.3 402.8,203.1 403.7,201.9 404.4,200.7 406.5,200.9 407.2,200.8 409,200.8 411.3,200.3 412.8,199.8 414.5,201.5 
		416.1,203.1 417.7,204 419,204.6 421.3,205 422.7,205 424.8,205 426.8,204.8 428.2,204.5 429.8,204.1 429.7,205.2 429.5,207.6 
		429,209.6 428.1,211.7 426.9,214.1 425.7,216.4 424.6,218.5 423.9,219.8 423.6,222 423.1,223.7 423.3,226.9 423.1,229.3 422.9,232 
		422.7,234 422.7,236 422.9,239.2 423.1,241.9 423.2,245.4 421.8,247 420.7,248 419.2,249.3 417.7,250.5 416.1,251.6 415.4,252.1 
		414.8,251.1 415,249 415.5,247.3 416.2,245.7 416.8,244.4 417.4,243.5 418.3,242.2 417.1,242.3 416.1,243 415.1,244.1 414.6,244.7 
		413.8,245.7 413.5,246.2 	"/>
</g>
<g id="_x33_">
	<path fill="none" stroke="#000000" d="M410.2,267l-3-1.3l-2.7-1.2l-1.9-0.8l-3.9-0.8l-2.9-4.2l-4.2-2.5l-1-2.6l-3,1.3l0.6,1.8
		l0.1,1.6l-0.5,2l-0.8,2l-1.2,2.6l-1.6,2.2l-1.1,1.5l-1.4,1.9l-0.5,1.1l-0.9,1.5l-0.9,1.3l-1,1.2l-1.9,1.5l-1.1,1l-1.7,1.9l-1.2,1.7
		l-0.7,1.4l-0.5,0.8l-1.9-0.4l-1.8-0.2l-2.3-0.3l-1.9,0.2l-1.5,0.7l-1.2,0.9l-1.2,1.2l-1.3,1.3l1.9,0.7l1.8,0.6l1.6,0.6l1.3,0.4
		l1.3,0.6l1,0.6l1,1.3l0.4,1.3l0.3,1.4l0.2,0.5c0,0,1.7-1.2,2.1-1.5c0.4-0.3,2.2-1.5,2.2-1.5l1.5-1.5l2.1-2.3l1.1-1.3l2.3-2.6
		l1.9-2.4l1.2-1.2l0.6,0.7l1,0.5l1.9,0.7l0.6,0.1l1.5,0.5l1,0.8l0.6,0.8l0.8,0.3l1.3,0.2l1.4,0.1l1.5,0.1l0.8,0.8l1.9,0.1l1.3,0
		l1.4,0.2l1.5,0.5l-0.8-1.8l3-1.3l4.6,8l11.8,0.7l0.8-1.2l-4.7-4.3l-2.2,1.9l-1.3-1.3l3.2-3.5l-0.4-1.4l-1.4-3l-2.1-4.2l-1.5-2.8
		l-1.3-2.4l-1-2l0.9-0.9L410.2,267z"/>
</g>
<g id="_x34_">
	<g>
		<path fill="none" stroke="#000000" stroke-miterlimit="10" d="M369,295.2l2.1-1.5l2.2-1.5l1.5-1.5l2.1-2.3l1.1-1.3l2.3-2.6
			l1.9-2.4l1.2-1.2l0.6,0.7l1,0.5l1.9,0.7l2.1,0.6l1,0.8l0.6,0.8l2.1,0.5l1.4,0.1l1.5,0.1l0.8,0.8l1.9,0.1l1.3,0l1.4,0.2l1.5,0.5
			l1.1,2.3l1.6-0.4l3.7,7.8l-2.5,2.1l2.4,2.6l1.1-0.6l2,1.3l7.9-7.9l13.7,15.7l-8.8,8.1l-3.8-2.5l-1.8,0.4l-2.3,0.1l-2.4-0.5l-3.2-1
			l-3.8-1.3l-2-0.4l-1.7-0.1l-1.8,0.5l-2.1,0.9l-2.2,0.5c0,0-0.9-0.1-1.6-0.2s-3.1-0.4-3.1-0.4l-2.5,0.5l-2.5,0.8l-1.8,0.3l-1.9-0.5
			l-1.2-2.3l-0.1-2.9l0.4-2.3l-0.5-1.8l-1.7-1.5l-3-0.8l-3-0.6l-2-0.6l-1.5-0.5l-1.1-1l-1-2.5L369,295.2z"/>
		<polygon fill="none" stroke="#000000" stroke-miterlimit="10" points="410.5,294.9 409.8,298.4 412.4,299.6 416,295 		"/>
	</g>
</g>
<g id="_x35_">
	<polygon fill="none" stroke="#000000" stroke-miterlimit="10" points="358.3,287.1 360.7,284.6 363.5,283.1 365.4,282.8 
		367.7,283.2 369.4,283.3 371.3,283.8 372.6,281.6 373.7,280 375.4,278 378.5,275.6 379.4,274.5 380.4,273.1 381.8,270.5 
		383.1,268.6 384.2,267.1 385.8,264.9 387,262.3 387.8,260.3 388.3,258.3 388.2,256.7 387.6,254.9 386.6,252.9 385.4,251.7 
		383.5,251.4 381.8,250.7 371.5,242.3 370.4,241.9 369,242.6 368.2,244.2 368.8,245.5 365.1,248.8 363,249.6 359.8,249.6 357.8,250 
		357.2,252.1 357.1,255.6 357.5,259.2 357.1,260.2 354,262.6 351,264.5 348.5,266.5 346.4,269.1 344.1,272.3 341.6,275.8 
		345.8,278.1 349.5,280.3 352.5,282.6 355,285.2 356.1,286.2 	"/>
</g>
<g id="_x36_">
	<path fill="none" stroke="#000000" stroke-miterlimit="10" d="M341.1,275.6L338,274l-4.1-1.5l-3.9-1.4l-3.5-1.4l0.7-3.2l1-2.6
		l0.5-3.1l-0.6-2.8l-0.7-2.6l0-2.2l0.9-4.2l-1.2-3c0,0-1.1-2.7-1.1-3.2s0.4-2.8,0.4-2.8l-0.7-3.6l2.5-6.4l3.7,0.9l3,1.8l3.5,3.1
		l3.4,0l3.6-0.3l1.8,1l3.2,1.6l2.5,0.2l3-0.4l2.9-0.4l2.1-0.4l1.2,1.2l1.9-0.3l2-0.7l1,0.8l1.3,3l0.6,1.4l-0.8,1.6l0.6,1.3l-3.7,3.3
		l-2.1,0.8l-3.2,0l-2,0.4l-0.6,2.1l-0.1,3.5l0.4,3.6l-0.4,1l-3.1,2.4l-3,1.9l-2.5,2l-2.2,2.6l-2.3,3.2l-2.5,3.5L341.1,275.6z"/>
</g>
<g id="_x37_">
	<path fill="none" stroke="#000000" stroke-miterlimit="10" d="M369,242.7l1.3-0.7l1.1,0.4l10.3,8.3l1.7,0.7l1.8,0.3
		c0,0,0.8,0.3,1.2,1.2c0.4,0.9,1,2,1,2l3-1.3l-0.3-1.1l0.5-2.8l-0.5-1.6l-1.6-1.8l-2.7-2.5l-0.5-2l1.3-2.9l2.7-2.6l-0.7-4l-1.5-2.2
		l-1.7-1.3l-1.3-0.4l-3.7,1.3l-3,1.4L375,231l-2.3-1.8l-1-1.3l3.7-4.3l-0.1-3l0.4-3.4l0.3-1.3l-1.8-1.4h-0.5l-1.1-1.4l-0.5-2l-1-2
		l-1.2-1.4l-1.7-1.4l-2.5-0.9h-2.1l-1.7,0.3l-1.7,0.6l-2,0.8l-1.1,0.4l-2-0.6l-1.6-1.6l-1.7-1.7l-1.9-0.6c0,0-2.3,0.2-2.3,0.3
		s1.4,2.7,1.4,2.7l1.8,2.5l2.1,1.6l2.6,0.6l2.2,1.2l1.5,1.5l2.1,0.9l1.1,1.4l-0.3,2.4l-0.6,2l0.1,1.7l0.9,2.3l0.3,1.5l0.1,4.2
		l-0.4,2.9l-1.1,2.8l-0.7,1.4l1.2,1.2l1.9-0.3l2-0.7l1,0.8l1.3,3L369,242.7z"/>
</g>
<g id="_x38_">
	<polygon fill="none" stroke="#000000" stroke-miterlimit="10" points="347.7,203.5 349.2,206.2 351,208.7 353.1,210.3 355.7,211 
		357.9,212.2 359.4,213.7 361.5,214.6 362.6,216 362.3,218.4 361.7,220.4 361.8,222.1 362.7,224.4 363,226 363.2,230.2 362.7,233.1 
		361,237.2 358.9,237.6 356,238.1 353,238.5 350.5,238.3 347.3,236.7 345.5,235.7 341.9,236 339.9,236.2 338.5,236 335,232.9 
		332,231.1 328.3,230.2 328.2,228.5 328.6,226 329.2,224 329.9,222.1 330.2,220.1 329.9,218.8 329,217.7 328.2,217.1 327,216.4 
		329.1,213.6 330.6,212.3 332.5,211.4 334,210.1 336.6,208.3 339.4,206.9 342.1,206.1 343.8,205.6 346.2,204.4 	"/>
</g>
<g id="_x39_">
	<polygon fill="none" stroke="#000000" stroke-miterlimit="10" points="327,216.4 329.1,213.6 330.6,212.3 332.5,211.4 334,210.1 
		336.6,208.3 339.4,206.9 342.1,206.1 343.8,205.6 346.2,204.4 347.7,203.5 350,203.1 351.9,203.7 353.6,205.4 355.2,207 
		357.2,207.5 360.3,206.3 359.2,202.1 357.7,197.9 355.8,193 354.8,189.8 353.9,186.9 352.1,184.2 349,183 346.7,180.4 344.6,178.2 
		341.9,177.7 340.3,179.7 338.6,180.9 336.5,181.4 334.5,181.1 332.2,179.9 329.9,178.6 328.5,178.3 326.6,178.6 324.8,180.1 
		323.1,182 321.2,184.1 319.9,185 318,185.6 316.2,185.7 314.7,185.4 315.8,188.7 316.8,192.2 317.9,196.6 318.2,198.5 317.9,201.6 
		317.1,204.4 316.9,206.1 317.4,209.4 318.3,210.6 319.7,211.5 320.9,212 322,212.6 323,214.2 325.1,215.5 	"/>
</g>
<g id="_x31_0">
	<polygon fill="none" stroke="#000000" stroke-miterlimit="10" points="360.4,206.6 363.2,205.5 365.6,205.5 366.2,205.5 
		368.3,206.3 370,207.7 371.1,209.1 373.2,208.9 374.8,208.5 376.2,208.5 379.1,208.6 382.7,210.4 385.2,212.3 386.5,212.9 
		389.2,213.2 390.1,211.8 392.1,210.2 393.9,209.3 395,208.2 396.3,206.7 397.6,205.6 399.5,205.4 401.4,204.2 403.3,202.4 
		404.4,200.7 402,199.8 399.7,198.9 397.5,198.3 395.7,197.9 393.4,198.6 391.9,198.9 390.1,198.8 388.3,198.2 387.4,197.1 
		387,195.5 385.8,195.8 384.4,196.7 382.5,197.9 381.7,198.5 380.2,199 378.7,198.7 377.7,198.3 376.5,199 375,199.8 373.5,200.1 
		371.4,200.3 370.4,198.8 369,196.7 367.2,194.6 366.2,192.9 365.7,191.3 365.6,189.9 364.9,188.2 364.1,187.2 361.6,186.3 
		359.2,185.4 357.2,184.9 355.2,184.7 352.1,184.2 353.9,186.9 354.8,189.8 355.8,193 357.7,197.9 359.2,202.2 	"/>
</g>
<g id="_x31_1">
	<polygon fill="none" stroke="#000000" stroke-miterlimit="10" points="341.9,177.6 344.6,178.2 346.7,180.3 349,182.9 352.1,184.2 
		355.2,184.6 357.2,184.8 359.2,185.4 361.6,186.3 363.3,186.9 364.9,188.2 365.6,189.9 365.7,191.3 366.2,192.9 367.2,194.6 
		369,196.7 370.4,198.8 371.4,200.3 373.5,200.1 375,199.8 376.5,199 377.7,198.3 378.7,198.7 380.2,199 381.7,198.5 382.5,197.9 
		384.4,196.7 385.8,195.8 387,195.5 389.1,188.1 388.5,187 386.4,186.4 384.4,185.7 383,185.1 381.8,183.8 380.6,180.7 379.9,177.7 
		379.5,176.1 379.1,174.3 378.2,173.2 376,172.5 374.5,171.8 374.4,170 375.2,166.3 375.7,164.1 376.1,161.7 376.3,160.5 375,160.5 
		373.7,161.5 372.2,162.7 369.8,164.7 368.5,165.6 366.8,166.3 364.5,166.4 362,166.1 359.5,165.6 357.3,165.3 355.2,165.2 
		353.6,165.3 352.1,165.8 349.6,167.6 347.7,169.5 346.2,171.4 344.7,173.6 343.6,175.2 	"/>
</g>
<g id="_x31_2">
	<path fill="none" stroke="#000000" stroke-miterlimit="10" d="M376.2,160.7l-0.2,1.1l-0.4,2.2l-0.5,2.3l-0.8,3.6l0.1,1.8l1.5,0.7
		l2.2,0.7l0.9,1.2l0.8,3.4l0.8,2.9l1.1,3.1l1.2,1.3l1.4,0.6l2,0.8l2.1,0.6l0.7,1.1l-2.2,7.4l0.4,1.6l0.9,1.1l1.9,0.6l1.8,0.1
		l1.5-0.3l2.2-0.7l1.9,0.4l2.2,0.6l2.3,0.9l2.4,0.8l2.8,0.1l1.8,0c0,0,1.7-0.3,2.3-0.5s1.8-1.1,1.8-1.1l0.3-1.4v-1.6l-0.6-1.7
		l-1.6-1.5l-1.8-1.4l-1.6-1.3l-1-1l-0.8-1.8l0.2-2.5l1.6,0.3l2.3,0.2l1.8,0.4l2.3,0.5l1.3,0.7l2,0.9l-0.2-8.8l-2.3-1l-0.5-4.1v-2.5
		l-0.3-4.5l-0.3-2.4l-1-3.1l-0.8-2.4l-1-2.4l-0.8-1.9l-1.8,0.8l-1.3,0.9l-1,1.1l-0.5,2.5l0.1,1.7l0.4,2.3l0.7,2.9l-0.1,2l-1.2,2
		l-1.2,1l-1.7,0.6l-1.4-0.2l-1.3-1.3l-0.9-1.8l-1-1.4l-2-0.9c0,0-2.5,0-2.8,0.1c-0.3,0-3,0.4-3,0.4l-1.9,0.3l-2.2-0.4l-2.6-1.5
		l-2.2-1.9l-1.7-1.6l-1.4-1.1L376.2,160.7z"/>
</g>
<g id="_x31_3">
	<path fill="none" stroke="#000000" stroke-miterlimit="10" d="M410.2,155l0.8,1.9l1.1,2.4l0.8,2.4l1.1,3.1l0.2,2.4l0.3,4.3v2.7
		l0.5,4.1l2.3,1l0.2,2.6v3l0.1,3.1l1.7,1.3l1.9,1.7l1.9,2.3l1.6,1.1h1.3l2.9-1.1l1.6,0l2.1-0.3l0.7-1.4l-0.8-1.7l-0.7-1.5l-0.5-0.4
		l0.4-1.6l1.2-0.3l1.5,0.6l2.1,0.6l1-0.9l1-1l1.4,0.6l0.5,0l1.6-1.9l1.1-2.2l1-2l0.6-1.3l0.8,0l1.2,1l2,2.3l1.6,0.6l1.1-0.6l0.2-1.4
		l-0.3-1.6l-0.6-1.6l-0.6-1.9l-0.7-1.7l-0.7-1.7l-0.4-1.3l-0.4-2l0-1.6l0.5-1.8l-1.5-0.6l-1.5-0.1c0,0-1.5,0.1-1.8,0.2
		c-0.3,0-2.3,0.2-2.3,0.2l-1.7,0.2l-1.8-0.3l-1.9-1.2l-0.8-2.3l-0.5-2.5l-0.9-1.9l-1.8-0.8l-1,0.1l-1.9,1l-1.4,1l-1.3,1l-1.6,1
		l-1.2,0.2l-1.8-0.5l-1.6-0.8l-1.8-1.2l-1.4-1.1l-1.3-0.9l-1.3-0.7l-1.5-0.5l-1.3-0.1L410.2,155z"/>
</g>
<g id="_x31_4">
	<polygon fill="none" stroke="#000000" stroke-miterlimit="10" points="406.5,185 406.5,186.9 406.3,187.5 406.9,189.3 407.9,190.3 
		409.5,191.6 411.4,193.1 412.9,194.6 413.5,196.3 413.5,197.5 412.8,199.8 414.5,201.5 416.1,203.1 417.7,204 419,204.6 421.3,205 
		422.7,205 424.8,205 426.8,204.8 429.8,204.1 429.7,205.2 429.5,207.6 429,209.6 428.1,211.7 425.7,216.4 423.9,219.8 423.6,222 
		423.1,223.7 425.3,225.6 427.1,226.5 428.4,226.5 430.6,224.5 433.2,221.6 435,220.3 438,220.8 440.4,220 442.2,219.4 443.2,218 
		443.8,215.5 444.2,213.2 443.8,211.8 443.6,210.4 444.7,209.6 445.9,209.1 444.6,207.5 443.1,206.3 440.8,204.9 439.4,204.1 
		438.5,203.1 437.2,200.8 436.8,199.8 436.3,198.7 434.9,197.5 433.4,196.3 432.8,195.5 432.6,194.7 432.5,193.2 431.1,193.4 
		428.8,193.5 427.1,194.2 425.2,194.7 423.1,193.5 421.2,191.1 419.2,189.4 417.5,188.1 415.6,187.2 414.2,186.5 409.7,185.5 	"/>
</g>
<g id="_x31_5">
	<g>
		<path fill="none" stroke="#000000" stroke-miterlimit="10" d="M450.9,230.4l-2-3.5l-1.9-2.3l-1.9-1.7l-1.5-0.7l-0.9-0.8l-0.5-2
			l-1.8,0.6l-2.4,0.8l-3-0.5l-1.8,1.2l-2.6,3l-2.2,2h-1.3l-1.8-0.9l-2.2-1.8l0.2,3.1l-0.4,5.1l-0.2,3.9l0.2,3.2l0.2,2.7l0.2,3.5
			l1.7,1.4l-7,8l1.6,1.6l6.8-4.9l3.6-2.4l4.7-0.9l5.1-0.5l4.3-0.5l3.1-0.3l0.7,0.6l-0.6,2.4l1.4,1.3c0,0,0.9-17.9,1.2-18.7
			C450.2,231.9,450.9,230.4,450.9,230.4z"/>
		<path fill="none" stroke="#000000" stroke-miterlimit="10" d="M448.4,252.1l-0.3,8.7l-8.8,0.9l-0.3-0.8l6-0.9l0.2-5.4l-5,0.4
			l-0.9-5.5l0.5-0.7l1.5-0.1c0,0,0.1,1.6,0.2,1.6c0.1,0,4.5-0.5,4.5-0.5l0.2,0.9L448.4,252.1z"/>
		<polygon fill="none" stroke="#000000" stroke-miterlimit="10" points="440,255.3 438.7,257.9 439.3,260.5 441.5,260.2 
			441.5,258.5 444.7,258.1 444.4,256.8 441.1,256.9 441.6,255.4 		"/>
		<path fill="none" stroke="#000000" stroke-miterlimit="10" d="M439.2,255.3l-0.2-3l-2.4-0.4l-0.5-2.8l-3.9,0.3
			c0,0-0.3,2.2-0.1,2.6c0.2,0.4,0.6,1.6,0.6,1.6l0.3,1.6l-0.1,1L439.2,255.3z"/>
		<polygon fill="none" stroke="#000000" stroke-miterlimit="10" points="431.2,250.1 431.6,253.4 432.4,258.8 428.9,259.3 
			428.5,258.7 427.8,259.8 428,260.7 428.8,260.7 430.2,265.1 428.6,267.3 425.2,263.1 422.9,264.2 419,258.8 420.1,258.1 
			421.3,259.2 427.8,254.7 427.9,252 		"/>
		<polygon fill="none" stroke="#000000" stroke-miterlimit="10" points="418.1,259.3 421.6,265.4 420.2,266.6 425.5,275 
			422.7,279.1 416.6,270 417.5,269.1 417,268.5 415.1,269.3 414.1,267.9 413.7,265.2 418.2,261.9 417.1,259.8 		"/>
		<polygon fill="none" stroke="#000000" stroke-miterlimit="10" points="422.2,265.9 426.7,272.8 427.8,269.9 424.5,264.7 		"/>
		<polygon fill="none" stroke="#000000" stroke-miterlimit="10" points="441.5,262.8 442.2,268.8 444.3,268 444.9,269.1 
			443.6,269.9 446.3,273 447.6,272 448.1,262.2 		"/>
		<polygon fill="none" stroke="#000000" stroke-miterlimit="10" points="427.9,276.4 425.9,280.3 426.7,281.9 426.5,282.9 
			430.5,280.2 430.5,279.3 436.5,275.5 436.5,274.2 433.5,273.1 		"/>
		<path fill="none" stroke="#000000" stroke-miterlimit="10" d="M425.7,284.9l4.8-3.2l1.7,2.4c0,0,1.1-0.3,1-0.5
			c-0.1-0.2-1.6-2.5-1.6-2.5l7.5-4.4l3,6l-9.6,6.3L425.7,284.9z"/>
	</g>
</g>
<g id="_x31_6">
	<path fill="none" stroke="#000000" stroke-miterlimit="10" d="M445.6,209.1l-1,0.5l-1,0.9l0.2,1.4l0.5,1.4l-0.4,2.3l-0.6,2.4
		l-1,1.4l0.5,2l0.9,0.8l1.5,0.7l1.9,1.7l1.9,2.3l2,3.5l1.1-2.4l0.4-1.5l0.1-5.2l1,2.2l-0.1,2.9l0.2,1.8l-0.1,1l-0.6,3.4l-0.7,2.8
		l-0.6,17c0,0,0.1,2.6,0.3,2.5s1.3,3,1.3,3l1.3,2.3l1.2,1.3l1.3,0.7l1.8,0.1h1.8l2.7-0.4l1.9-0.2l4.1-8.1l0.3-1.8v-2.4v-1.9
		l-0.1-2.5l-0.1-2.2l0.1-2.6l0.6-2.1l0.9-1.8l1.6-2l1.9-1.8l2.6-2.5l2-2.4l1.1-1.9l0.4-2.6l0.1-2.1v-1.7v-1.9l-0.8-2.6l-1.3-2.2
		l-2-2.5l-1.5-1.7l-1.1-1.8l-0.5-1.9l0-2.7l0.2-2.2l-2.5,0.3l-2.1,0.2l-2.7,0.3l-1.9,0.2l-2.8,0.2l-3.5,10.8l-0.6,0.3l-1.9-0.4
		l-1.3-0.2l-1.4,1l-1.8,1.1l-1.4,0.4l-0.7-1.2l-1-1.1l-1-1.5L445.6,209.1z"/>
</g>
<g id="_x31_7">
	<polygon fill="none" stroke="#000000" stroke-miterlimit="10" points="473.4,200.1 466.1,200.9 461.4,201.4 457.9,212.2 
		457.3,212.5 454.1,211.9 449.5,214.4 445.9,209.1 444.6,207.5 443.1,206.3 440.8,204.9 439.4,204.1 438.5,203.1 437.2,200.8 
		436.3,198.7 434.9,197.5 433.4,196.3 432.8,195.5 432.5,193.2 433.3,191.8 432.5,190.1 431.8,188.6 431.3,188.2 431.7,186.6 
		432.9,186.2 434.4,186.8 436.5,187.4 437.6,186.5 438.5,185.5 439.9,186.1 440.9,185.9 442.1,184.2 443.2,181.9 444.2,179.9 
		444.9,178.6 445.7,178.6 446.9,179.6 449,181.9 450.5,182.5 451.6,181.9 451.8,180.6 451.6,179 450.9,177.4 450.4,175.4 
		449.7,173.8 449,172.1 448.6,170.8 448.1,168.8 448.1,167.2 448.6,165.4 449.9,166.5 450.9,167.4 451.8,168.1 453.1,168.5 
		454.4,168.5 456,168.1 457.8,167.5 459.5,167.2 460.3,167.3 461.1,168.1 461.7,169.8 462.4,173.9 463.1,174.5 464.2,174 467,172.6 
		469,172.3 470.1,172.4 471.6,173.6 472.2,175.5 472.2,177.9 471.7,180.4 471.1,182.6 470.8,184.2 470.9,185.6 471.3,187.6 
		472.3,189.9 473.2,191.2 474.1,193 474.4,194.7 474,196.8 473.6,198.7 	"/>
</g>
<g id="_x31_8">
	<path fill="none" stroke="#000000" stroke-miterlimit="10" d="M317.8,209.5l-2.3,0.5l-2.4,0.9l-2.9,1.5l-2.3,1.3l-0.9,0.6l-1.4-0.8
		l-1.4-1.7l-1.2,0.7l-2,0.9l-1.6,0.5l-1.4,0.3l-1.1-0.6l-0.5-1.6l-1.7-0.1l-2,0l-1.4,0.5l-1,1.8l-1.6,1.8l-1.6,0.2l-2.3,0.8
		l-1.3,0.8l-1.4,1.3l-1,2.3l-0.2,1.9l-0.1,0.8l-1.2,0.9l-1.7,1.7l-1.5,1.3l-1.3,1.2l-1.4,0.2l-1.7-0.1h-1.3l-2.2-0.3l-1.8-0.9
		l-1.3-1l-1.1-1.9l-1.1,1.9l-0.6,2.6l-0.1,1.7v2.4l-0.5,2.4l-0.5,1.7l-1,1l-1.9,0.3l-2.5-0.4l-1.9-0.1l-1.7,0l-1.6,0.1l7.5,9.4
		l1.5-0.5l1.9,0.5l1.9,0.7l2.3,0.1l1.9,0.4h2.1l3.7,2h2l3.1-0.3l4.2,0.3l5.4,1.5l2.4,0.6l5.1,0.1c0,0,1.3-8.1,1.4-8.7
		c0-0.6-0.2-2.7-0.2-2.7l-1.3-5.6c0,0-0.1-2.6,0-3.4c0.1-0.8,0.9-2.6,0.9-2.6l1.2-1.4l2.6-0.5l1.6-0.1l1.1-0.8l0.9-2.8l0.7-1.8
		l0.9-1.5l1.7-0.5l2.1,0.5l2.6,0.7l2.2,0.8l2,0.1l2.1-0.7l2.6-0.7l2-0.3l2.4,0.4l1.6,0.7l2.2,1.2l0.7-2l0.3-1.9c0,0,0.3-0.7-0.2-1.3
		c-0.5-0.6-1.7-1.7-1.7-1.7l-5.2-2.8l-1-1.6l-2.2-1.1L317.8,209.5z"/>
</g>
<g id="_x31_9">
	<path fill="none" stroke="#000000" stroke-miterlimit="10" d="M314.7,185.4l1.1,3.3l1,3.5l1.2,4.4l0.3,1.9l-0.3,3.1l-0.7,2.8
		l-0.2,1.8l0.5,3.2l-1.9,0.7l-2.4,0.9l-2.9,1.5l-2.3,1.3l-0.9,0.6l-1.4-0.8l-1.4-1.7l-1.2,0.7l-2,0.9l-1.6,0.5l-1.4,0.3l-1.1-0.6
		l-0.5-1.6L294,212l-1.6,0.2l-1.4,0.5l-1.4,2.3l-1.1,1.3l-1.6,0.2l-2.3,0.8l-1.3,0.8l-1.4,1.3l-1,2.3l-0.3,2.7l-1.2,0.9l-1.7,1.7
		l-1.5,1.3l-1.3,1.2l-1.4,0.4l-1.7,0.2l-3.5-0.5l-1.8-1l-1.3-1l-1.1-1.9l-1.1,1.9l-0.4,2.6l0,4.1l-0.7,2.4l-0.6,1.7l-1,1l-1.9,0.3
		l-2.5-0.4l-1.9-0.1l-3.3,0.1c0,0-1.6-2-1.7-2.3s-1.9-2.1-1.9-2.1l-2.6-1.9l1.8-1l1.7-0.8l2-0.3l1.5-1l0.1-1.5l-1.4-2.5l-0.7-1.4
		l0.1-1.5l1-0.8l1.6,0l1.4-0.4l-0.4-1.7l-1.7-3.5l-1.3-2v-1.1l0.9-0.9l1.5,0.5l2.5,1.8l1.6,0.9l2.2,0.9l1-1l1.3-1.5l-2.2-0.7
		l-2.3-1.5l-1.9-1.7l-2.3-2.3l-2-1.4l-2.1-1.3l-2-1l-1.5-1.3l5-0.8l4.7-0.4c0,0,3.8-0.1,4.1-0.2c0.3,0,4.1-1.5,4.1-1.5l1.5-1.3
		l1.6-1.2l0.8-0.2l1.4,1.3l1.2,1.7l0.9,0.1l1.4-0.3l2,0.7l1.8,0.9l0.8,0.4l1.1-0.2l0.6-1.6l1.1-0.6l1.4-0.6l1.7,0.2l1.7,1.3l1.6,1.3
		l1.5,0.6l0.7-0.2l1.9-1l1.4-0.7l1.7,0.7l1.9,0.6l2.2,0.8l1.4,0.5l0.9-2.5c0,0-0.2-2.7-0.1-3.1c0.1-0.4,0.4-1.2,0.5-1.4
		s2.2-1.4,2.2-1.4l2.5-1.1c0,0,1.6-0.8,1.7-1.1c0.1-0.3,1.1-2.7,1.1-2.7l1.3-2.4l1-1.8l1.2-1.8l1.3,0.7l1.1,0.3L314.7,185.4z"/>
</g>
<g id="_x32_0">
	<path fill="none" stroke="#000000" stroke-miterlimit="10" d="M310.5,184l-1.1,1.8l-1.7,2.8l-0.5,1.4l-1.1,2.7l-1.7,1.1l-2.5,1.1
		l-2.1,1.4l-0.4,1.4v2.3v1.9l-0.9,1.4l-3.3-0.9l-2.2-1l-1.7-0.7l-1.9,1l-0.9,0.5l-1.1,0.4l-1.5-0.6l-1.6-1.3l-1.7-1.3l-1.7-0.2
		l-1.4,0.6l-1.1,0.6l-0.6,1.6l-1.1,0.2l-0.8-0.4l-1.8-0.9l-2-0.7l-1.4,0.3l-0.9-0.1l-2.6-3l-0.8,0.2l-2.4,1.8l-0.7,0.6l-2.3,1.2
		l-2.5,0.4l-4.1,0l-2.8,0.2l-4.1,0.4l-2.2,0.6l-2.5,0.7h-2.4l-3.5-0.7l-2-0.2l-1.5-0.1l-1.1,0.3l-1.2,1.2l-1.1,1l-1.6-0.1l-1.8-0.4
		l-1.7-0.6l-1-0.4l-1-1.7l-0.5-1.2l-1.6-0.7l-1.8-0.5l-1.7-0.7l-1.3-0.9l-1.6-1.3l0.7-2.6l0.6-1.6l1.6-1.6l1.2-1l1-1l0-3.1l0-2.1
		l1-1.2l0.9-0.5l1.2,1.8l1.1,1.1l1.7-0.5l1.8-1l0.6,1l1.7,0.9l1.7,0.3l3.2-0.1l2.4-0.2l1.8-0.1l2.2,0.1l1.5,0.1l2.2,0.7l1.3,0
		l1.6-0.1l2.2-0.4l2.4-0.6l1.8-0.5l2-0.5l2.9-0.4l2.4-0.5l3.5-0.4l1.9-0.3l2.9-0.9l3.2-1.5l1.9-1.5l1.7-1.8l1.2-1.1l2-1.3l1.9-0.7
		c0,0,1.8-0.3,2.3-0.4c0.5-0.1,3.9-1.2,3.9-1.2l3-2l2.7-1.8l2.9-2.1l2.7-1.7l2.6-1l2.4-0.4l1.2,0.2l0.6,0.7l0,1.7l-1.1,2.7l-1.6,3
		c0,0-0.3,0.5-0.2,1.2s0.2,1.6,0.2,1.6l1.4,1.7l-1.1,1.9l-0.9,1.3l-0.4,1.5l0.1,0.9l0.9,0.3l1.7-0.3l1,0l1.6,0.3l1.2,0.7l1,1
		L310.5,184z"/>
</g>
<g id="_x32_1">
	<path fill="none" stroke="#000000" stroke-miterlimit="10" d="M261.6,214l-2.2-0.8l-2.3-1.5l-1.9-1.7l-2.3-2.3l-2-1.4l-2.1-1.3
		l-2-1l-1.5-1.3l-2.5,0.7h-2.4l-3.5-0.7l-2-0.2l-1.5-0.1l-1.1,0.3l-1.2,1.2l-1.1,1c0,0-1.1,0.2-1.6-0.1s-3.5-1-3.5-1l-1-0.4l-1-1.7
		l-0.5-1.2h-2.3c0,0-1.6,0.3-1.9,0.3s-1.4,0.2-2,0.5c-0.6,0.3-1.8,0.9-1.8,0.9l-1,1.3l-0.4,1.7l0.5,2l0.9,2.3l0.5,0.9l-1.2,0
		l-1.4-0.1l-1.4,0.5c0,0-1,0.9-1.2,0.9c-0.2,0-2.2,1.5-2.2,1.5l-2,1.2l-1.8,1.1l-1.4,0.3l-1.4,0.1c0,0-0.1,1.6,0,1.6
		c0.1,0,0.9,1.2,0.9,1.2l1.3,0.9l0.8,0.8l0.7,2l0.2,1.9l0.6,1.7l0.4,0.7l1,0.9l0.9,0.7l0.6,0.6l0.9,0.6h0.8l1.2-0.1l1.8-0.3l1.8-0.4
		l1.6-0.1l2,0.3l1.7,0.2l2.3,0.6l1.8,0.2l1.7,0.4l0.8-0.1l-1,1.6l-1.5,2.7l-1.1,2.1l-0.6,2.1l-0.5,2.4l-0.1,1.6l-0.3,1
		c0,0-0.4,1.1-0.8,1.4c-0.4,0.3-2.6,1-2.6,1l-1.9,0.4l-1.4,0.4c0,0-0.9,0.8-1,1.2c0,0.3,0.6,1.8,0.6,2.2c0,0.4,0.6,2.2,0.6,2.2
		l0.9,1.5l1.7,0.9l1.9,0.5c0,0,1.7,0.2,2.3,0.2s1.6,0,1.6,0l1.3,1.5l1.2,1.1l1.9,0.6l2.4-0.2l2-0.2l1.7-0.2l2.8-1.1l2.5-0.5l2-0.3
		l1.8-0.9l3-0.8l2.9,0.2c0,0,1.3,0,1.9-0.3s2.3-1.8,2.6-1.9c0.3-0.1,2.6-2.1,2.6-2.1l2.3-1.7l-7.5-9.4l-2.5-3.3l-2-1.8l-1.7-1.2
		l1.8-1l1.7-0.8l2-0.3l1.5-1l0.1-1.5l-1-1.8l-1-2.1l0.1-1.5l1-0.8l1.2-0.1l1,0l0.9-0.9l-0.8-1.8l-0.7-1.7l-1.1-2l-0.8-1.1v-1.1
		l0.9-0.9l1.5,0.5l2.5,1.8l1.6,0.9l2.2,0.9l1-1L261.6,214z"/>
</g>
<g id="_x32_2">
	<path fill="none" stroke="#000000" stroke-miterlimit="10" d="M326.6,269.7l0.7-3.2l0.7-2l0.8-3.7l-0.6-2.8l-0.7-2.6l0-2.2l0.9-4.2
		l-2.3-6.2l0.4-2.8l-0.7-3.6l2.5-6.4l-0.1-1.7l0.4-2.5l0.6-1.9l-2.2-1.2l-2.4-0.8l-1.6-0.3l-2,0.3l-2.1,0.7l-2.1,0.5l-1.6,0.1
		l-2.1-0.5l-2.4-0.7l-2.2-0.6l-1-0.2l-1.7,0.5l-0.9,1.5l-0.7,1.8l-0.6,1.9l-0.3,0.8l-1.1,0.8l-2.1,0.2l-2.1,0.4l-1.2,1.4l-0.7,2
		l-0.3,3l0.4,2.8l0.6,2.4l0.4,1.4l0.2,2.7l-1.4,8.7l-5.1-0.1l-2.4-0.6l-5.4-1.5l-4.2-0.3l-5.1,0.2l-2,3.6l-1.1,1.6l-0.2,2.7
		l-0.4,1.5l-1,2.3l-0.6,1.5l-0.8,3l1.4,0.4l1.2,1.1l1.4,1.7l1.6,2.6l1.1,1.4l1.4,1.2l1,0.7l1.5,0.6l1.7,0.6l1.6,0.5l1.7,0.2l1-0.4
		l0.4-1.3l-0.4-2.1l-0.3-2.2c0,0,0.2-0.6,0.4-0.9c0.3-0.3,1.6-1.3,1.6-1.3l2.8-1.7c0,0,3.9-2.8,4.1-2.9c0.2-0.2,7.5-6.2,7.5-6.2
		l0.8-0.3l1.1,0.4l2.2,0.3l2.3,0.1l2.9,0.1l2.9-0.1l1.5,0.2l1.1,0.4c0,0,0.9,0.7,1.2,1.1c0.4,0.4,3.2,3.1,3.5,3.4
		c0.3,0.3,2.2,2,2.3,2.2c0.1,0.2,1.9,1.4,1.9,1.4L326.6,269.7z"/>
</g>
<g id="_x32_3">
	<path fill="none" stroke="#000000" stroke-miterlimit="10" d="M267.6,267.6l0.5-2.2l0.2-1.4l0.6-0.9l1-2.3l0.3-2.4l0.3-1.8l1.8-2.8
		l1.3-2.4l-2.1-0.9l-1.6-0.9h-1.9l-2.1-0.4l-2.3-0.1l-1.9-0.7l-1.9-0.5l-1.5,0.5l-2.3,1.6l-2.6,2.1l-2.6,1.9l-1.9,0.3l-2.2-0.2
		l-2.4,0.4l0.8,1.9l1.1,1.2l1.8,1.1l1.8,0.4l1.5,1.1l0.3,1.1l-0.6,1.5l-2.4,1.7l-2,1.8l-2.1,1.4l-2.8,1.8l-2.1,1.6l-1.7,1.9
		l-1.4,1.7l-0.4,1.1l-2.4,1.3l-0.8,2.6l-0.7,1.8l-0.9,1.2l-0.8,0.4c0,0-1-0.2-1.3-0.5c-0.3-0.2-2.1-2.4-2.1-2.4l-2-1.6
		c0,0-2.3-1.1-2.6-1.1c-0.3,0-2.2-0.1-2.5-0.1s-2.3,0-2.3,0s-2-0.3-2.4-0.5s-3.4-1.1-3.4-1.1s-1.6-1.1-1.8-1.2
		c-0.2-0.1-1.7-2.6-1.9-2.6c-0.1,0.1-1-1.3-1-1.3s-0.3-0.4-0.7-0.3c-0.5,0.1-1.6,0.8-1.6,0.8s-1.4,0.9-1.7,1s-2.9,0.5-2.9,0.5
		l-3.4,0.5l-1.8,0.2l-2.2-0.1l-2.2-0.8l-1.6-0.7l-2.6,0.6l-1.4-0.3l-1.9-0.9l-2.4,0.2c0,0-2.2,1.2-2.5,1.3c-0.3,0.2-1.9,1.4-1.9,1.4
		l-1.8,1.7l-0.5,2.4l0,1.2l2.1-1.4l1.9-0.9l1.7-0.2l1.6,0.2l2.1,0.8l1.6,1.1l1.9,1.2l1.1,0.6l1.9,0.6l2.3,0.2l2.9,0l3.1,0.1l4.2,0.4
		l3.6,0.3l4.9,0.6l3.6,0.5l5,1.2l3,1.1l4.1,2.2l5,4.1l3.1,2.6l1.5,1l2.7,1.4l3.3,1.1l1.8,0.7l2.8,1.8l2.6,3.4l1.2,1.8l1.7,1.5
		l1.8,1.2l1.8,1l1.9,1.3l1.5,1.5l2.6,4.4l2.3,4.4l1.8,2.8l2,2.9l2.6,3.4l2.1,2.7l1.7,1.9l1.5,1.3l1.4,0.9c0,0,0.5,0.3,1.1,0.2
		s1-1.2,1-1.2l-0.4-1.6l-0.6-0.8l-0.9-2l-0.4-1.9l-0.1-3.8l0.2-4.7l-0.1-3.6l-0.3-2l-1.1-2.7l-0.4-1.8l0-2.3l-0.1-2.2l-0.8-1.8
		l-0.5-0.5l-1-1L271,300l0.7-1.3l1.2-1.6l1.9-1.6l1.3-0.6l1.4,0.9c0,0,2.1,4.3,2,4.3s0.7,1,0.7,1l1.7,1.1l0.9,0.3l0.9-0.4l1-2.1
		l0.5-2.5l-0.4-2.5l-1.1-2.5l-1.4-2.4l-1.2-1.6l-1.4-1.4l-2-1.6l-2.4-2l-2.6-2.1l-2.4-1.5l-2.3-1l-1.8-0.7l-2.4-1.3l-1.4-1.2
		l-0.2-0.6l-0.3-1.7l0.3-2l0.8-1.9l1-1.2l1.5-0.6L267.6,267.6z"/>
</g>
<g id="_x32_4">
	<path fill="none" stroke="#000000" stroke-miterlimit="10" d="M174.4,279.3l-0.2-1.2l0.4-2.4l1.8-1.7l1.9-1.4l2.1-1.1l2.8-0.4
		l1.9,0.9l1.4,0.3l2.6-0.6l1.6,0.7l1.6,0.6l1.8,0.3l2.8-0.1l3.4-0.5c0,0,2.3-0.4,2.9-0.5s3.3-1.9,3.3-1.9l1.7,1.6l1.9,2.6l1.8,1.2
		l3.4,1.1l2.4,0.5l2.7-0.1l2.1,0.2l2.6,1.1l2,1.6l1.7,1.9l0.9,0.7l1.6-0.2l1.1-1.7l0.5-1.3l0.8-2.6l2.4-1.3l0.4-1.1l1.4-1.7l1.7-1.9
		l2.1-1.6l2.8-1.8l2.1-1.4l2-1.8l2.4-1.7l0.6-1.5l-0.3-1.1l-1.5-1.1l-1.8-0.4l-1.8-1.1l-1.1-1.2l-0.8-1.9l-3,1.2l-2,0.3l-2.5,0.5
		l-2.8,1.1l-3.7,0.5l-2.4,0.2l-1.9-0.4l-2.5-2.4h-1.4l-2.5-0.4l-1.9-0.6l-1.7-0.9l-1.5-3.7l-0.6-2.2l1-1.2l1.4-0.4l1.9-0.4l2.6-1
		l1.1-2.3l0.1-1.6l0.5-2.4l0.6-2.1l1.1-2.1l1.5-2.7l1-1.6l-0.8,0.1l-1.7-0.4l-1.8-0.2l-2.3-0.6l-2.3-0.5h-1.6l-1.5,0.1l-1.8,0.4
		l-1.8,0.3l-2.1,0l-1.5-1l-1.8-1.6l-1-2.4l-0.2-1.9l-0.7-2l-0.8-0.8l-1.3-0.9l-0.9-1.2l0-1.6l-1.6-0.7l-1.6-0.7h-1.5l-1.3,0.1
		l-1.5,1l-1.1,1.2l-0.7,0.7l-1.7,0.3l-2.3-0.3H187l-2.1,0l-1.3-0.2l-1.2-0.9l-0.9-0.9l-1.9-0.4l-1.4,0.1l-1.4,0.3l-0.4,1.2l-0.9,0.4
		l-1.3-0.5l-1.3,0l-1.3,0.4l-1.1,0.4l-1.4-0.8l-1.5-1l-1.3-0.4l-1.4,0.4l-0.6,1.2l-1.7,0.6l-1.5-0.3l-1.7-0.6l-1.3-0.8l-1.6-0.5
		l-1.6-0.1l-3.9,0.1l-2.4,0.3l-1.6,0.1l-1.6,0.1l-0.9,0.8l-0.6,1.6l-0.6,2.5l-0.4,1.7l-0.9,1.4l-1,1.4l-0.4,1.5v1.3l0.7,1.5
		l-0.1,1.5l-1,0.4l-1.9-0.3l-1.8-0.7l-1.2-0.4l-1,0.4l-1.6,1.9l-0.7,0.2l-2.4-0.2l-1.7,0.1l-0.7,0l-1.6,3.9l-1.4,2.8l-1.5,3.3
		l-0.9,2l1,0.8l1.6,2.1l1.3,2.7l1.1,2.4l1.3,1.8l1,0.6l1.3,0.5l1.5,0.3l1.8,0.1l1.8,0.1l1.6-0.1l2.4-0.6l2.7-0.4l1.7-0.2l1.8,0.3
		l1.8,0.9l1.1,1.5l0.6,2.5l0.4,2.7l0.5,1.4l1.2,2l1.8,2.2l0.7,2.4l1,2l1.4,1.2l2.8,1.9l3.7,2.7l2.3,1.4l2.7,1.4l1.8,0.2l1.8-0.2
		l1.8-0.9L174.4,279.3z"/>
</g>
<g id="_x32_5">
	<path fill="none" stroke="#000000" stroke-miterlimit="10" d="M227.2,183l-0.9-2.1l-0.9-2.5l-0.8-2.8c0,0-1.3-3-1.3-3.1
		c0-0.1-0.9-2.5-0.9-2.5l-1.6-1.8l-2.1-0.7h-4h-3.8l-3.5,0.8l-3.4,0c0,0-2.1-0.6-2-0.6c0.1,0-2.2-1.4-2.2-1.4s-0.5-1.9-1.5-1.9
		c-0.9-0.1-0.8-2.6-0.8-2.6l-0.5-3.5l-0.9-3.9l-1.3-1.1c-1.7,0.3-3.7,0.9-3.7,0.9l-1.3-0.9l-0.7-2.1l-1.2-4.4l-1.2-1.7l-2.8-1.1
		l-3.7-0.5h-5c0,0-2.3-0.3-3.3-0.2s-4.4,0.6-4.4,0.6s-2.2,0.2-3.1,0.2c-1,0-3.5-0.7-4.6-0.7c-1.1,0.1-4.1,1.1-4.1,1.1l-1.9,0.1
		l-3.9-3.4l-2-0.9h-3.5l-3,0.8l-2.1,0.2l-2.5-0.3l-3.5-1.6l-3.1-0.5l-3-0.9l-3.9-2.1l-3.7-2.6l-5.7-2.8l-4.3-1.2h-3.8l-6.6,1.1
		c0,0-2.2,0-3-0.2s-3.1-1.4-3.1-1.4l-6.8-4.6l-3-0.9h-4.6c0,0-1.7,0.6-2.4,0.6s-4.6-2-4.6-2l-5.1-3.1l-5.4-4.2l-3.5-1.9l-4.1-0.8
		l-4.2,1.1l-2.3,2.2l-3.2,2.5l-4.3,1.3l-5.1,0.5c0,0-4.7,0.5-5.1,0.7c-0.5,0.1-2.9,0.9-3.5,1.2s-4.5,3.7-4.5,3.7s-2.2,2.8-2.5,3.3
		c-0.2,0.5-1.2,4-1.2,4s-0.3,2.3,0,3c0.3,0.6,1.1,3.8,1.3,4.5c0.2,0.7,1.2,3.2,1.2,3.2l1.5,2.4c0,0,0.7,1.8,1.7,1.9
		c1,0.1,3.6,1.5,3.6,1.5l2.6,2c0,0,1.7,3.1,1.8,3.7s0.2,2.2,0.3,3.3c0.1,1.1,0.1,3.6,0.1,3.6s0.2,2,0.3,2.6c0.1,0.6,0.4,2.3,0.6,2.8
		c0.2,0.5,0.9,2.3,1.1,2.6c0.2,0.4,1.3,2,1.3,2s-0.2-0.6,1,1.3c1.2,1.9,1.6,2.5,1.8,3.3c0.2,0.8,0.7,1.7,0.6,3
		c-0.1,1.2-0.1,1.4-0.2,2.2s-0.1,0.4,0,1.7s0,1.7,0.4,2.9c0.3,1.2,0.6,2.4,0.9,3c0.3,0.6,0.6,1.4,1,1.9c0.4,0.5,0.9,1.2,1.5,1.7
		c0.6,0.6,2.4,1.8,2.4,1.8s1.2,0.7,1.4,0.9c0.2,0.2,1.2,1.1,1.6,1.5c0.4,0.4,1.4,1.8,1.7,2.4s1.1,2.2,1.4,3.1
		c0.3,0.9,0.9,2.5,0.9,2.5l1.5,2.7l2.3,2.8l1.8,1.6l2.5,2.1l3.6,2.4l4.3,2.5l3.1,1.6l2.3,1.4l4.9,3l3.5,1.9l3.8,1.6l4.4,1l3.3,0.5
		l3.1,0.4l3.2,1.1l2.5,1.9l3,3.3l2,1.5l2,1.1l4.2,2l3.4,1l3.1,0.8l2.5,1.1l5.3-11.9l2.4-0.2l2.4,0.2l0.7-0.2l1.6-1.9l1-0.4l1.2,0.4
		l1.8,0.7l1.9,0.3l1-0.4l0-1.5l-0.8-1.5l0.5-2.9l1.2-1.4l0.9-1.4l1-4.2l1.6-2.3l1.6-0.1l1.6-0.1l6.3-0.4l3.2,0.6l3,1.5l1.5,0.3
		l1.7-0.6l0.6-1.2l1.4-0.4l1.3,0.4l1.5,1l1.4,0.8l1.1-0.4l1.3-0.4l1.3,0l1.3,0.5l0.9-0.4l1.8-1.4l1.4-0.1l1.9,0.4l0.9,0.9l1.2,0.9
		l1.3,0.1l2.1-0.1l3.1,0.4l1.7-0.2l1.8-2l1.5-1.1l1.8-0.6l1.9,0.8l1.5,0.9l0.8,0.3l1.4-0.1l3.7-1.6l1.5-1l2.2-1.5l1.9-1.2l0.7-0.2
		l2.5,0.1l-0.5-0.9l-0.9-2.3l-0.5-2l0.4-1.7l1-1.3l1.8-0.9l2-0.4l1.9-0.3h2.5L221,200l-2.8-0.9l-1.9-1.2l-1.6-1.3l0.7-2.6l0.6-1.6
		l1.6-1.6l2.2-2l0-3.1l0-2.1l1.9-1.6l1.2,1.8l1.1,1.1l1.7-0.5l1.8-1"/>
	<g>
		<path d="M342.8,219.5c-0.6-0.5-1-0.9-1.2-1.2s-0.3-0.6-0.3-1c0-0.5,0.2-1,0.6-1.3s0.9-0.6,1.6-0.6c0.6,0,1.2,0.2,1.5,0.5
			s0.6,0.7,0.6,1.2c0,0.3-0.1,0.6-0.3,0.9s-0.7,0.7-1.3,1.1c0.7,0.5,1.1,0.9,1.4,1.3c0.3,0.4,0.4,0.8,0.4,1.3c0,0.6-0.2,1-0.6,1.4
			s-1,0.6-1.7,0.6c-0.8,0-1.3-0.2-1.8-0.7c-0.3-0.4-0.5-0.8-0.5-1.2c0-0.4,0.1-0.7,0.4-1S342.2,219.9,342.8,219.5z M343.1,219.7
			c-0.3,0.3-0.6,0.6-0.7,0.9s-0.2,0.7-0.2,1c0,0.5,0.1,0.9,0.4,1.2s0.6,0.5,1.1,0.5c0.4,0,0.8-0.1,1-0.4s0.4-0.5,0.4-0.9
			c0-0.3-0.1-0.5-0.2-0.8C344.5,220.9,343.9,220.4,343.1,219.7z M343.7,218.9c0.5-0.4,0.8-0.8,0.9-1s0.2-0.5,0.2-0.8
			c0-0.4-0.1-0.7-0.3-1s-0.5-0.3-0.9-0.3s-0.7,0.1-1,0.3s-0.4,0.5-0.4,0.8c0,0.2,0.1,0.4,0.2,0.6s0.3,0.4,0.4,0.6L343.7,218.9z"/>
	</g>
	<g>
		<g>
			<path d="M398.9,240.8l1.9-0.9h0.2v6.7c0,0.4,0,0.7,0.1,0.8s0.1,0.2,0.2,0.3s0.4,0.1,0.7,0.1v0.2h-3v-0.2c0.4,0,0.6,0,0.7-0.1
				s0.2-0.1,0.2-0.2s0.1-0.4,0.1-0.9v-4.3c0-0.6,0-0.9-0.1-1.1c0-0.1-0.1-0.2-0.1-0.3s-0.2-0.1-0.3-0.1c-0.1,0-0.3,0.1-0.6,0.2
				L398.9,240.8z"/>
		</g>
		<g>
			<path d="M412.5,212.9l-0.6,1.5h-4.7v-0.2c1.4-1.3,2.3-2.3,2.9-3.1s0.8-1.5,0.8-2.2c0-0.5-0.2-0.9-0.5-1.2s-0.7-0.5-1.1-0.5
				c-0.4,0-0.7,0.1-1.1,0.3s-0.5,0.6-0.7,1h-0.2c0.1-0.7,0.3-1.3,0.8-1.7s0.9-0.6,1.5-0.6c0.6,0,1.2,0.2,1.6,0.6s0.6,0.9,0.6,1.5
				c0,0.4-0.1,0.8-0.3,1.2c-0.3,0.6-0.8,1.3-1.4,2c-1,1.1-1.6,1.7-1.8,1.9h2.1c0.4,0,0.7,0,0.9,0s0.3-0.1,0.5-0.2s0.3-0.2,0.4-0.4
				H412.5z"/>
		</g>
		<g>
			<path d="M392.1,269.8c0.2-0.5,0.5-0.9,0.9-1.2s0.8-0.4,1.3-0.4c0.6,0,1.1,0.2,1.5,0.6c0.3,0.3,0.4,0.6,0.4,1
				c0,0.6-0.4,1.2-1.1,1.8c0.5,0.2,0.9,0.5,1.1,0.8s0.4,0.8,0.4,1.3c0,0.7-0.2,1.3-0.7,1.8c-0.6,0.7-1.4,1-2.5,1
				c-0.5,0-0.9-0.1-1.1-0.2s-0.3-0.3-0.3-0.4c0-0.1,0-0.2,0.1-0.3s0.2-0.1,0.3-0.1c0.1,0,0.2,0,0.3,0c0.1,0,0.2,0.1,0.5,0.2
				s0.4,0.2,0.5,0.2c0.1,0,0.3,0.1,0.5,0.1c0.4,0,0.7-0.2,1-0.5s0.4-0.7,0.4-1.1c0-0.3-0.1-0.6-0.2-0.9c-0.1-0.2-0.2-0.4-0.3-0.5
				c-0.2-0.2-0.4-0.3-0.7-0.4s-0.6-0.2-0.9-0.2h-0.2v-0.2c0.3,0,0.6-0.2,0.9-0.3s0.5-0.4,0.7-0.7s0.2-0.5,0.2-0.8
				c0-0.4-0.1-0.7-0.4-1s-0.6-0.4-0.9-0.4c-0.6,0-1.1,0.3-1.5,1L392.1,269.8z"/>
		</g>
		<g>
			<path d="M395.1,298.8v0.8H394v2.1h-1v-2.1h-3.4v-0.8l3.7-5.3h0.6v5.2H395.1z M393.1,298.8v-3.9l-2.8,3.9H393.1z"/>
		</g>
		<g>
			<path d="M370.2,259.7l-0.5,1h-2.4l-0.5,1.1c1,0.2,1.9,0.5,2.5,1.2c0.5,0.5,0.8,1.2,0.8,1.9c0,0.4-0.1,0.8-0.3,1.2
				s-0.4,0.7-0.6,0.9s-0.5,0.5-0.9,0.6c-0.4,0.2-0.9,0.3-1.4,0.3c-0.5,0-0.8-0.1-1-0.2s-0.3-0.3-0.3-0.5c0-0.1,0-0.2,0.1-0.3
				s0.2-0.1,0.3-0.1c0.1,0,0.2,0,0.3,0s0.2,0.1,0.4,0.2c0.3,0.2,0.6,0.3,0.9,0.3c0.5,0,0.9-0.2,1.2-0.5s0.5-0.8,0.5-1.3
				c0-0.5-0.2-0.9-0.5-1.3s-0.7-0.7-1.3-1c-0.4-0.2-1-0.3-1.7-0.3l1.5-3.1H370.2z"/>
		</g>
		<g>
			<path d="M344.9,247.2v0.2c-0.5,0.1-0.9,0.2-1.3,0.3s-0.6,0.4-1,0.7s-0.6,0.7-0.8,1.1s-0.4,0.9-0.5,1.4c0.6-0.4,1.1-0.6,1.7-0.6
				c0.5,0,1,0.2,1.4,0.7s0.6,1,0.6,1.7c0,0.7-0.2,1.3-0.6,1.8c-0.5,0.7-1.1,1-1.9,1c-0.5,0-1-0.2-1.4-0.5c-0.7-0.7-1.1-1.6-1.1-2.7
				c0-0.7,0.1-1.4,0.4-2s0.7-1.2,1.2-1.7s1-0.8,1.5-1s0.9-0.3,1.4-0.3H344.9z M341.2,251.3c-0.1,0.5-0.1,1-0.1,1.3
				c0,0.4,0.1,0.8,0.2,1.2s0.3,0.8,0.6,1c0.2,0.2,0.4,0.3,0.7,0.3c0.3,0,0.6-0.2,0.9-0.5s0.4-0.8,0.4-1.4c0-0.7-0.1-1.2-0.4-1.7
				s-0.6-0.7-1.1-0.7c-0.1,0-0.3,0-0.5,0.1S341.6,251.1,341.2,251.3z"/>
		</g>
		<g>
			<path d="M377.2,234h4.3v0.2l-2.6,7.9h-0.7l2.4-7.2h-2.2c-0.4,0-0.8,0.1-0.9,0.2c-0.3,0.2-0.6,0.5-0.8,0.8l-0.2-0.1L377.2,234z"/>
		</g>
		<g>
			<path d="M333.6,197.4v-0.2c0.5,0,1-0.1,1.4-0.4s0.9-0.6,1.3-1.2s0.7-1.2,0.9-1.9c-0.6,0.4-1.2,0.6-1.7,0.6c-0.6,0-1-0.2-1.4-0.6
				s-0.6-1-0.6-1.7c0-0.7,0.2-1.3,0.6-1.9c0.5-0.7,1.1-1,1.9-1c0.7,0,1.2,0.3,1.7,0.8c0.6,0.7,0.9,1.5,0.9,2.5
				c0,0.9-0.2,1.7-0.7,2.5s-1,1.4-1.8,1.9c-0.6,0.4-1.3,0.6-2.1,0.6H333.6z M337.3,193.3c0.1-0.5,0.1-0.9,0.1-1.2
				c0-0.4-0.1-0.8-0.2-1.2s-0.3-0.8-0.5-1s-0.5-0.4-0.8-0.4c-0.3,0-0.7,0.2-0.9,0.5s-0.4,0.8-0.4,1.4c0,0.8,0.2,1.5,0.5,1.9
				c0.3,0.3,0.6,0.5,0.9,0.5c0.2,0,0.4,0,0.6-0.1S337.1,193.5,337.3,193.3z"/>
		</g>
		<g>
			<path d="M382.9,201.1l1.9-0.9h0.2v6.7c0,0.4,0,0.7,0.1,0.8s0.1,0.2,0.2,0.3s0.4,0.1,0.7,0.1v0.2h-3v-0.2c0.4,0,0.6,0,0.7-0.1
				s0.2-0.1,0.2-0.2s0.1-0.4,0.1-0.9v-4.3c0-0.6,0-0.9-0.1-1.1c0-0.1-0.1-0.2-0.1-0.3s-0.2-0.1-0.3-0.1c-0.1,0-0.3,0.1-0.6,0.2
				L382.9,201.1z"/>
			<path d="M387.9,204.4c0-0.9,0.1-1.7,0.4-2.3s0.6-1.1,1.1-1.5c0.4-0.3,0.7-0.4,1.1-0.4c0.6,0,1.2,0.3,1.6,0.9
				c0.6,0.8,0.9,1.8,0.9,3.1c0,0.9-0.1,1.7-0.4,2.3s-0.6,1.1-1,1.4s-0.8,0.4-1.2,0.4c-0.8,0-1.4-0.4-1.9-1.3
				C388.1,206.4,387.9,205.5,387.9,204.4z M389.1,204.5c0,1.1,0.1,2,0.4,2.7c0.2,0.6,0.6,0.9,1,0.9c0.2,0,0.4-0.1,0.7-0.3
				s0.4-0.5,0.5-1c0.2-0.7,0.3-1.6,0.3-2.8c0-0.9-0.1-1.7-0.3-2.3c-0.1-0.4-0.3-0.8-0.5-1c-0.2-0.1-0.4-0.2-0.6-0.2
				c-0.3,0-0.5,0.1-0.7,0.4c-0.3,0.3-0.5,0.8-0.6,1.5S389.1,203.9,389.1,204.5z"/>
		</g>
		<g>
			<path d="M362.2,173.3l1.9-0.9h0.2v6.7c0,0.4,0,0.7,0.1,0.8s0.1,0.2,0.2,0.3s0.4,0.1,0.7,0.1v0.2h-3v-0.2c0.4,0,0.6,0,0.7-0.1
				s0.2-0.1,0.2-0.2s0.1-0.4,0.1-0.9v-4.3c0-0.6,0-0.9-0.1-1.1c0-0.1-0.1-0.2-0.1-0.3s-0.2-0.1-0.3-0.1c-0.1,0-0.3,0.1-0.6,0.2
				L362.2,173.3z"/>
			<path d="M368.2,173.3l1.9-0.9h0.2v6.7c0,0.4,0,0.7,0.1,0.8s0.1,0.2,0.2,0.3s0.4,0.1,0.7,0.1v0.2h-3v-0.2c0.4,0,0.6,0,0.7-0.1
				s0.2-0.1,0.2-0.2s0.1-0.4,0.1-0.9v-4.3c0-0.6,0-0.9-0.1-1.1c0-0.1-0.1-0.2-0.1-0.3s-0.2-0.1-0.3-0.1c-0.1,0-0.3,0.1-0.6,0.2
				L368.2,173.3z"/>
		</g>
		<g>
			<path d="M391.5,178.8l1.9-0.9h0.2v6.7c0,0.4,0,0.7,0.1,0.8s0.1,0.2,0.2,0.3s0.4,0.1,0.7,0.1v0.2h-3v-0.2c0.4,0,0.6,0,0.7-0.1
				s0.2-0.1,0.2-0.2s0.1-0.4,0.1-0.9v-4.3c0-0.6,0-0.9-0.1-1.1c0-0.1-0.1-0.2-0.1-0.3s-0.2-0.1-0.3-0.1c-0.1,0-0.3,0.1-0.6,0.2
				L391.5,178.8z"/>
			<path d="M401.6,184.5l-0.6,1.5h-4.7v-0.2c1.4-1.3,2.3-2.3,2.9-3.1s0.8-1.5,0.8-2.2c0-0.5-0.2-0.9-0.5-1.2s-0.7-0.5-1.1-0.5
				c-0.4,0-0.7,0.1-1.1,0.3s-0.5,0.6-0.7,1h-0.2c0.1-0.7,0.3-1.3,0.8-1.7s0.9-0.6,1.5-0.6c0.6,0,1.2,0.2,1.6,0.6s0.6,0.9,0.6,1.5
				c0,0.4-0.1,0.8-0.3,1.2c-0.3,0.6-0.8,1.3-1.4,2c-1,1.1-1.6,1.7-1.8,1.9h2.1c0.4,0,0.7,0,0.9,0s0.3-0.1,0.5-0.2
				c0.1-0.1,0.3-0.2,0.4-0.4H401.6z"/>
		</g>
		<g>
			<path d="M426.4,173.3l1.9-0.9h0.2v6.7c0,0.4,0,0.7,0.1,0.8s0.1,0.2,0.2,0.3s0.4,0.1,0.7,0.1v0.2h-3v-0.2c0.4,0,0.6,0,0.7-0.1
				s0.2-0.1,0.2-0.2s0.1-0.4,0.1-0.9v-4.3c0-0.6,0-0.9-0.1-1.1c0-0.1-0.1-0.2-0.1-0.3s-0.2-0.1-0.3-0.1c-0.1,0-0.3,0.1-0.6,0.2
				L426.4,173.3z"/>
			<path d="M431.6,174c0.2-0.5,0.5-0.9,0.9-1.2s0.8-0.4,1.3-0.4c0.6,0,1.1,0.2,1.5,0.6c0.3,0.3,0.4,0.6,0.4,1c0,0.6-0.4,1.2-1.1,1.8
				c0.5,0.2,0.9,0.5,1.1,0.8s0.4,0.8,0.4,1.3c0,0.7-0.2,1.3-0.7,1.8c-0.6,0.7-1.4,1-2.5,1c-0.5,0-0.9-0.1-1.1-0.2s-0.3-0.3-0.3-0.4
				c0-0.1,0-0.2,0.1-0.3s0.2-0.1,0.3-0.1c0.1,0,0.2,0,0.3,0c0.1,0,0.2,0.1,0.5,0.2s0.4,0.2,0.5,0.2c0.1,0,0.3,0.1,0.5,0.1
				c0.4,0,0.7-0.2,1-0.5s0.4-0.7,0.4-1.1c0-0.3-0.1-0.6-0.2-0.9c-0.1-0.2-0.2-0.4-0.3-0.5c-0.2-0.2-0.4-0.3-0.7-0.4
				s-0.6-0.2-0.9-0.2h-0.2v-0.2c0.3,0,0.6-0.2,0.9-0.3s0.5-0.4,0.7-0.7s0.2-0.5,0.2-0.8c0-0.4-0.1-0.7-0.4-1s-0.6-0.4-0.9-0.4
				c-0.6,0-1.1,0.3-1.5,1L431.6,174z"/>
		</g>
		<g>
			<path d="M431.2,209.6l1.9-0.9h0.2v6.7c0,0.4,0,0.7,0.1,0.8s0.1,0.2,0.2,0.3s0.4,0.1,0.7,0.1v0.2h-3v-0.2c0.4,0,0.6,0,0.7-0.1
				s0.2-0.1,0.2-0.2s0.1-0.4,0.1-0.9v-4.3c0-0.6,0-0.9-0.1-1.1c0-0.1-0.1-0.2-0.1-0.3s-0.2-0.1-0.3-0.1c-0.1,0-0.3,0.1-0.6,0.2
				L431.2,209.6z"/>
			<path d="M441.4,213.8v0.8h-1.1v2.1h-1v-2.1H436v-0.8l3.7-5.3h0.6v5.2H441.4z M439.4,213.8v-3.9l-2.8,3.9H439.4z"/>
		</g>
		<g>
			<path d="M431.7,231.3l1.9-0.9h0.2v6.7c0,0.4,0,0.7,0.1,0.8s0.1,0.2,0.2,0.3s0.4,0.1,0.7,0.1v0.2h-3v-0.2c0.4,0,0.6,0,0.7-0.1
				s0.2-0.1,0.2-0.2s0.1-0.4,0.1-0.9v-4.3c0-0.6,0-0.9-0.1-1.1c0-0.1-0.1-0.2-0.1-0.3s-0.2-0.1-0.3-0.1c-0.1,0-0.3,0.1-0.6,0.2
				L431.7,231.3z"/>
			<path d="M441.5,230.6l-0.5,1h-2.4l-0.5,1.1c1,0.2,1.9,0.5,2.5,1.2c0.5,0.5,0.8,1.2,0.8,1.9c0,0.4-0.1,0.8-0.3,1.2
				s-0.4,0.7-0.6,0.9s-0.5,0.5-0.9,0.6c-0.4,0.2-0.9,0.3-1.4,0.3c-0.5,0-0.8-0.1-1-0.2s-0.3-0.3-0.3-0.5c0-0.1,0-0.2,0.1-0.3
				s0.2-0.1,0.3-0.1c0.1,0,0.2,0,0.3,0s0.2,0.1,0.4,0.2c0.3,0.2,0.6,0.3,0.9,0.3c0.5,0,0.9-0.2,1.2-0.5s0.5-0.8,0.5-1.3
				c0-0.5-0.2-0.9-0.5-1.3s-0.7-0.7-1.3-1c-0.4-0.2-1-0.3-1.7-0.3l1.5-3.1H441.5z"/>
		</g>
		<g>
			<path d="M461.4,219.6l1.9-0.9h0.2v6.7c0,0.4,0,0.7,0.1,0.8s0.1,0.2,0.2,0.3s0.4,0.1,0.7,0.1v0.2h-3v-0.2c0.4,0,0.6,0,0.7-0.1
				s0.2-0.1,0.2-0.2s0.1-0.4,0.1-0.9v-4.3c0-0.6,0-0.9-0.1-1.1c0-0.1-0.1-0.2-0.1-0.3s-0.2-0.1-0.3-0.1c-0.1,0-0.3,0.1-0.6,0.2
				L461.4,219.6z"/>
			<path d="M471.4,218.6v0.2c-0.5,0.1-0.9,0.2-1.3,0.3s-0.6,0.4-1,0.7s-0.6,0.7-0.8,1.1s-0.4,0.9-0.5,1.4c0.6-0.4,1.1-0.6,1.7-0.6
				c0.5,0,1,0.2,1.4,0.7s0.6,1,0.6,1.7c0,0.7-0.2,1.3-0.6,1.8c-0.5,0.7-1.1,1-1.9,1c-0.5,0-1-0.2-1.4-0.5c-0.7-0.7-1.1-1.6-1.1-2.7
				c0-0.7,0.1-1.4,0.4-2s0.7-1.2,1.2-1.7s1-0.8,1.5-1s0.9-0.3,1.4-0.3H471.4z M467.7,222.7c-0.1,0.5-0.1,1-0.1,1.3
				c0,0.4,0.1,0.8,0.2,1.2s0.3,0.8,0.6,1c0.2,0.2,0.4,0.3,0.7,0.3c0.3,0,0.6-0.2,0.9-0.5s0.4-0.8,0.4-1.4c0-0.7-0.1-1.2-0.4-1.7
				s-0.6-0.7-1.1-0.7c-0.1,0-0.3,0-0.5,0.1S468.1,222.5,467.7,222.7z"/>
		</g>
		<g>
			<path d="M447.3,189.9l1.9-0.9h0.2v6.7c0,0.4,0,0.7,0.1,0.8s0.1,0.2,0.2,0.3s0.4,0.1,0.7,0.1v0.2h-3v-0.2c0.4,0,0.6,0,0.7-0.1
				s0.2-0.1,0.2-0.2s0.1-0.4,0.1-0.9v-4.3c0-0.6,0-0.9-0.1-1.1c0-0.1-0.1-0.2-0.1-0.3s-0.2-0.1-0.3-0.1c-0.1,0-0.3,0.1-0.6,0.2
				L447.3,189.9z"/>
			<path d="M453.1,189.1h4.3v0.2l-2.6,7.9H454l2.4-7.2h-2.2c-0.4,0-0.8,0.1-0.9,0.2c-0.3,0.2-0.6,0.5-0.8,0.8l-0.2-0.1L453.1,189.1z
				"/>
		</g>
		<g>
			<path d="M276.2,234.7l1.9-0.9h0.2v6.7c0,0.4,0,0.7,0.1,0.8s0.1,0.2,0.2,0.3s0.4,0.1,0.7,0.1v0.2h-3v-0.2c0.4,0,0.6,0,0.7-0.1
				s0.2-0.1,0.2-0.2s0.1-0.4,0.1-0.9v-4.3c0-0.6,0-0.9-0.1-1.1c0-0.1-0.1-0.2-0.1-0.3s-0.2-0.1-0.3-0.1c-0.1,0-0.3,0.1-0.6,0.2
				L276.2,234.7z"/>
			<path d="M283.1,237.9c-0.6-0.5-1-0.9-1.2-1.2s-0.3-0.6-0.3-1c0-0.5,0.2-1,0.6-1.3s0.9-0.6,1.6-0.6c0.6,0,1.2,0.2,1.5,0.5
				s0.6,0.7,0.6,1.2c0,0.3-0.1,0.6-0.3,0.9s-0.7,0.7-1.3,1.1c0.7,0.5,1.1,0.9,1.4,1.3c0.3,0.4,0.4,0.8,0.4,1.3c0,0.6-0.2,1-0.6,1.4
				s-1,0.6-1.7,0.6c-0.8,0-1.3-0.2-1.8-0.7c-0.3-0.4-0.5-0.8-0.5-1.2c0-0.4,0.1-0.7,0.4-1S282.5,238.3,283.1,237.9z M283.3,238.1
				c-0.3,0.3-0.6,0.6-0.7,0.9s-0.2,0.7-0.2,1c0,0.5,0.1,0.9,0.4,1.2s0.6,0.5,1.1,0.5c0.4,0,0.8-0.1,1-0.4s0.4-0.5,0.4-0.9
				c0-0.3-0.1-0.5-0.2-0.8C284.7,239.3,284.2,238.8,283.3,238.1z M284,237.3c0.5-0.4,0.8-0.8,0.9-1s0.2-0.5,0.2-0.8
				c0-0.4-0.1-0.7-0.3-1s-0.5-0.3-0.9-0.3s-0.7,0.1-1,0.3s-0.4,0.5-0.4,0.8c0,0.2,0.1,0.4,0.2,0.6s0.3,0.4,0.4,0.6L284,237.3z"/>
		</g>
		<g>
			<path d="M266.9,209.2l1.9-0.9h0.2v6.7c0,0.4,0,0.7,0.1,0.8s0.1,0.2,0.2,0.3s0.4,0.1,0.7,0.1v0.2h-3v-0.2c0.4,0,0.6,0,0.7-0.1
				s0.2-0.1,0.2-0.2s0.1-0.4,0.1-0.9v-4.3c0-0.6,0-0.9-0.1-1.1c0-0.1-0.1-0.2-0.1-0.3s-0.2-0.1-0.3-0.1c-0.1,0-0.3,0.1-0.6,0.2
				L266.9,209.2z"/>
			<path d="M272.1,216.6v-0.2c0.5,0,1-0.1,1.4-0.4s0.9-0.6,1.3-1.2s0.7-1.2,0.9-1.9c-0.6,0.4-1.2,0.6-1.7,0.6c-0.6,0-1-0.2-1.4-0.6
				s-0.6-1-0.6-1.7c0-0.7,0.2-1.3,0.6-1.9c0.5-0.7,1.1-1,1.9-1c0.7,0,1.2,0.3,1.7,0.8c0.6,0.7,0.9,1.5,0.9,2.5
				c0,0.9-0.2,1.7-0.7,2.5s-1,1.4-1.8,1.9c-0.6,0.4-1.3,0.6-2.1,0.6H272.1z M275.8,212.5c0.1-0.5,0.1-0.9,0.1-1.2
				c0-0.4-0.1-0.8-0.2-1.2s-0.3-0.8-0.5-1s-0.5-0.4-0.8-0.4c-0.3,0-0.7,0.2-0.9,0.5s-0.4,0.8-0.4,1.4c0,0.8,0.2,1.5,0.5,1.9
				c0.3,0.3,0.6,0.5,0.9,0.5c0.2,0,0.4,0,0.6-0.1S275.6,212.7,275.8,212.5z"/>
		</g>
		<g>
			<path d="M252.3,195.6l-0.6,1.5H247v-0.2c1.4-1.3,2.3-2.3,2.9-3.1s0.8-1.5,0.8-2.2c0-0.5-0.2-0.9-0.5-1.2s-0.7-0.5-1.1-0.5
				c-0.4,0-0.7,0.1-1.1,0.3s-0.5,0.6-0.7,1h-0.2c0.1-0.7,0.3-1.3,0.8-1.7s0.9-0.6,1.5-0.6c0.6,0,1.2,0.2,1.6,0.6s0.6,0.9,0.6,1.5
				c0,0.4-0.1,0.8-0.3,1.2c-0.3,0.6-0.8,1.3-1.4,2c-1,1.1-1.6,1.7-1.8,1.9h2.1c0.4,0,0.7,0,0.9,0s0.3-0.1,0.5-0.2s0.3-0.2,0.4-0.4
				H252.3z"/>
			<path d="M253.2,193.2c0-0.9,0.1-1.7,0.4-2.3s0.6-1.1,1.1-1.5c0.4-0.3,0.7-0.4,1.1-0.4c0.6,0,1.2,0.3,1.6,0.9
				c0.6,0.8,0.9,1.8,0.9,3.1c0,0.9-0.1,1.7-0.4,2.3s-0.6,1.1-1,1.4s-0.8,0.4-1.2,0.4c-0.8,0-1.4-0.4-1.9-1.3
				C253.4,195.1,253.2,194.2,253.2,193.2z M254.3,193.3c0,1.1,0.1,2,0.4,2.7c0.2,0.6,0.6,0.9,1,0.9c0.2,0,0.4-0.1,0.7-0.3
				s0.4-0.5,0.5-1c0.2-0.7,0.3-1.6,0.3-2.8c0-0.9-0.1-1.7-0.3-2.3c-0.1-0.4-0.3-0.8-0.5-1c-0.2-0.1-0.4-0.2-0.6-0.2
				c-0.3,0-0.5,0.1-0.7,0.4c-0.3,0.3-0.5,0.8-0.6,1.5S254.3,192.6,254.3,193.3z"/>
		</g>
		<g>
			<path d="M235.2,222l-0.6,1.5H230v-0.2c1.4-1.3,2.3-2.3,2.9-3.1s0.8-1.5,0.8-2.2c0-0.5-0.2-0.9-0.5-1.2s-0.7-0.5-1.1-0.5
				c-0.4,0-0.7,0.1-1.1,0.3s-0.5,0.6-0.7,1h-0.2c0.1-0.7,0.3-1.3,0.8-1.7s0.9-0.6,1.5-0.6c0.6,0,1.2,0.2,1.6,0.6s0.6,0.9,0.6,1.5
				c0,0.4-0.1,0.8-0.3,1.2c-0.3,0.6-0.8,1.3-1.4,2c-1,1.1-1.6,1.7-1.8,1.9h2.1c0.4,0,0.7,0,0.9,0s0.3-0.1,0.5-0.2s0.3-0.2,0.4-0.4
				H235.2z"/>
			<path d="M237.1,216.3l1.9-0.9h0.2v6.7c0,0.4,0,0.7,0.1,0.8s0.1,0.2,0.2,0.3s0.4,0.1,0.7,0.1v0.2h-3v-0.2c0.4,0,0.6,0,0.7-0.1
				s0.2-0.1,0.2-0.2s0.1-0.4,0.1-0.9v-4.3c0-0.6,0-0.9-0.1-1.1c0-0.1-0.1-0.2-0.1-0.3s-0.2-0.1-0.3-0.1c-0.1,0-0.3,0.1-0.6,0.2
				L237.1,216.3z"/>
		</g>
		<g>
			<path d="M311.5,246.2l-0.6,1.5h-4.7v-0.2c1.4-1.3,2.3-2.3,2.9-3.1s0.8-1.5,0.8-2.2c0-0.5-0.2-0.9-0.5-1.2s-0.7-0.5-1.1-0.5
				c-0.4,0-0.7,0.1-1.1,0.3s-0.5,0.6-0.7,1h-0.2c0.1-0.7,0.3-1.3,0.8-1.7s0.9-0.6,1.5-0.6c0.6,0,1.2,0.2,1.6,0.6s0.6,0.9,0.6,1.5
				c0,0.4-0.1,0.8-0.3,1.2c-0.3,0.6-0.8,1.3-1.4,2c-1,1.1-1.6,1.7-1.8,1.9h2.1c0.4,0,0.7,0,0.9,0s0.3-0.1,0.5-0.2s0.3-0.2,0.4-0.4
				H311.5z"/>
			<path d="M317.5,246.2l-0.6,1.5h-4.7v-0.2c1.4-1.3,2.3-2.3,2.9-3.1s0.8-1.5,0.8-2.2c0-0.5-0.2-0.9-0.5-1.2s-0.7-0.5-1.1-0.5
				c-0.4,0-0.7,0.1-1.1,0.3s-0.5,0.6-0.7,1h-0.2c0.1-0.7,0.3-1.3,0.8-1.7s0.9-0.6,1.5-0.6c0.6,0,1.2,0.2,1.6,0.6s0.6,0.9,0.6,1.5
				c0,0.4-0.1,0.8-0.3,1.2c-0.3,0.6-0.8,1.3-1.4,2c-1,1.1-1.6,1.7-1.8,1.9h2.1c0.4,0,0.7,0,0.9,0s0.3-0.1,0.5-0.2s0.3-0.2,0.4-0.4
				H317.5z"/>
		</g>
		<g>
			<path d="M251.3,285.5l-0.6,1.5H246v-0.2c1.4-1.3,2.3-2.3,2.9-3.1s0.8-1.5,0.8-2.2c0-0.5-0.2-0.9-0.5-1.2s-0.7-0.5-1.1-0.5
				c-0.4,0-0.7,0.1-1.1,0.3s-0.5,0.6-0.7,1h-0.2c0.1-0.7,0.3-1.3,0.8-1.7s0.9-0.6,1.5-0.6c0.6,0,1.2,0.2,1.6,0.6s0.6,0.9,0.6,1.5
				c0,0.4-0.1,0.8-0.3,1.2c-0.3,0.6-0.8,1.3-1.4,2c-1,1.1-1.6,1.7-1.8,1.9h2.1c0.4,0,0.7,0,0.9,0s0.3-0.1,0.5-0.2s0.3-0.2,0.4-0.4
				H251.3z"/>
			<path d="M252.4,280.6c0.2-0.5,0.5-0.9,0.9-1.2s0.8-0.4,1.3-0.4c0.6,0,1.1,0.2,1.5,0.6c0.3,0.3,0.4,0.6,0.4,1
				c0,0.6-0.4,1.2-1.1,1.8c0.5,0.2,0.9,0.5,1.1,0.8s0.4,0.8,0.4,1.3c0,0.7-0.2,1.3-0.7,1.8c-0.6,0.7-1.4,1-2.5,1
				c-0.5,0-0.9-0.1-1.1-0.2s-0.3-0.3-0.3-0.4c0-0.1,0-0.2,0.1-0.3s0.2-0.1,0.3-0.1c0.1,0,0.2,0,0.3,0c0.1,0,0.2,0.1,0.5,0.2
				s0.4,0.2,0.5,0.2c0.1,0,0.3,0.1,0.5,0.1c0.4,0,0.7-0.2,1-0.5s0.4-0.7,0.4-1.1c0-0.3-0.1-0.6-0.2-0.9c-0.1-0.2-0.2-0.4-0.3-0.5
				c-0.2-0.2-0.4-0.3-0.7-0.4s-0.6-0.2-0.9-0.2h-0.2v-0.2c0.3,0,0.6-0.2,0.9-0.3s0.5-0.4,0.7-0.7s0.2-0.5,0.2-0.8
				c0-0.4-0.1-0.7-0.4-1s-0.6-0.4-0.9-0.4c-0.6,0-1.1,0.3-1.5,1L252.4,280.6z"/>
		</g>
		<g>
			<path d="M176.5,245.5l-0.6,1.5h-4.7v-0.2c1.4-1.3,2.3-2.3,2.9-3.1s0.8-1.5,0.8-2.2c0-0.5-0.2-0.9-0.5-1.2s-0.7-0.5-1.1-0.5
				c-0.4,0-0.7,0.1-1.1,0.3s-0.5,0.6-0.7,1h-0.2c0.1-0.7,0.3-1.3,0.8-1.7s0.9-0.6,1.5-0.6c0.6,0,1.2,0.2,1.6,0.6s0.6,0.9,0.6,1.5
				c0,0.4-0.1,0.8-0.3,1.2c-0.3,0.6-0.8,1.3-1.4,2c-1,1.1-1.6,1.7-1.8,1.9h2.1c0.4,0,0.7,0,0.9,0s0.3-0.1,0.5-0.2s0.3-0.2,0.4-0.4
				H176.5z"/>
			<path d="M182.6,244.1v0.8h-1.1v2.1h-1v-2.1h-3.4v-0.8l3.7-5.3h0.6v5.2H182.6z M180.6,244.1v-3.9l-2.8,3.9H180.6z"/>
		</g>
		<g>
			<path d="M92.5,170l-0.6,1.5h-4.7v-0.2c1.4-1.3,2.3-2.3,2.9-3.1s0.8-1.5,0.8-2.2c0-0.5-0.2-0.9-0.5-1.2s-0.7-0.5-1.1-0.5
				c-0.4,0-0.7,0.1-1.1,0.3s-0.5,0.6-0.7,1h-0.2c0.1-0.7,0.3-1.3,0.8-1.7s0.9-0.6,1.5-0.6c0.6,0,1.2,0.2,1.6,0.6s0.6,0.9,0.6,1.5
				c0,0.4-0.1,0.8-0.3,1.2c-0.3,0.6-0.8,1.3-1.4,2c-1,1.1-1.6,1.7-1.8,1.9h2.1c0.4,0,0.7,0,0.9,0s0.3-0.1,0.5-0.2s0.3-0.2,0.4-0.4
				H92.5z"/>
			<path d="M98.2,163.6l-0.5,1h-2.4l-0.5,1.1c1,0.2,1.9,0.5,2.5,1.2c0.5,0.5,0.8,1.2,0.8,1.9c0,0.4-0.1,0.8-0.3,1.2
				s-0.4,0.7-0.6,0.9s-0.5,0.5-0.9,0.6c-0.4,0.2-0.9,0.3-1.4,0.3c-0.5,0-0.8-0.1-1-0.2s-0.3-0.3-0.3-0.5c0-0.1,0-0.2,0.1-0.3
				s0.2-0.1,0.3-0.1c0.1,0,0.2,0,0.3,0s0.2,0.1,0.4,0.2c0.3,0.2,0.6,0.3,0.9,0.3c0.5,0,0.9-0.2,1.2-0.5s0.5-0.8,0.5-1.3
				c0-0.5-0.2-0.9-0.5-1.3s-0.7-0.7-1.3-1c-0.4-0.2-1-0.3-1.7-0.3l1.5-3.1H98.2z"/>
		</g>
	</g>
</g>
</svg>
