<?xml version="1.0" encoding="utf-8"?>
<!-- Generator: Adobe Illustrator 18.1.0, SVG Export Plug-In . SVG Version: 6.00 Build 0)  -->
<!DOCTYPE svg PUBLIC "-//W3C//DTD SVG 1.1//EN" "http://www.w3.org/Graphics/SVG/1.1/DTD/svg11.dtd">
<svg version="1.1" xmlns="http://www.w3.org/2000/svg" xmlns:xlink="http://www.w3.org/1999/xlink" x="0px" y="0px"
	 viewBox="0 0 548 499" enable-background="new 0 0 548 499" xml:space="preserve">
<g id="Base">
</g>
<g id="_x31_">
	<polygon fill="none" stroke="#000000" stroke-miterlimit="10" points="457.9,264.3 459.4,264.7 461.4,262.2 463.9,263.3 
		462.4,265.9 462.8,267.4 468.2,269.3 470.3,266.7 471.7,267.2 473.5,267.8 475.5,267.5 476.3,268.7 470.2,271.2 472.5,273.2 
		477.5,268.8 479.5,269.7 477.8,273.2 477.5,274.8 480.3,271.8 481.3,271.5 482.8,273 479.3,277.8 480.5,278.8 484.3,273.2 
		486.2,273.7 486.9,276 485,285.8 484,287.3 481.3,285.3 480.2,287.3 484.5,290.4 484.3,293.5 486,293.5 488.5,293.5 488.5,296 
		488.5,298 488.5,300 489.8,301.3 488.5,304.5 486.2,303.2 486.9,300.3 486.2,298 483.5,301.3 481.3,297.8 482.8,295.5 477,300.2 
		474.3,299.3 470.3,295.3 468,293.5 466,293.5 463.7,294.6 461.2,295.5 459,295.5 456.5,297 454.7,296 453.3,295.2 454.3,299.2 
		457.5,298.5 461.4,297.7 463.5,299.3 463.5,301 463,302.1 459.9,302.5 455.8,302.5 453.3,301.5 452,301.5 449.5,304.5 449.5,307 
		451,308.5 453.3,307.7 456.7,307 457.5,310.2 452.3,313 454.2,314.5 457,314.5 460,314.5 464.5,309.5 467.5,310.8 467.8,312.7 
		462.2,317.8 463.7,319.2 465,320.3 467.1,319 468.5,323.8 468.5,325 465.7,325.7 464.7,328.5 464.8,330.7 466,332.5 467,334.3 
		467.7,336 467.8,340.7 467.2,342 464.5,344.5 459.9,341 457.5,344.5 456,344.5 453.8,347 455.7,350.2 456.2,352.8 457.5,354.2 
		458.8,355.2 456.5,358 454.3,356.8 452.7,358.7 450.5,361.7 449.5,362.7 447.5,363.5 445,363.5 444,363.5 441.2,366.3 439.2,363.8 
		436.2,363.5 433.7,362.8 431.7,361 432.7,358.7 433.2,356.7 429.5,354.7 430.2,351 429.5,349.3 429.5,348 430.2,345.8 430.3,343.5 
		429.5,342 429.5,341 430.7,339 431.5,337 431.7,335.8 431,334.3 430.2,333.7 432.7,332 432.3,330.8 432.3,329 434.6,327.2 
		435.5,325.8 435,323.2 433.3,321 431.5,318.2 433,315.2 435.7,313.5 438,314.5 440.3,312.2 438,310 439,307 438,304.8 435.7,302.5 
		436.5,300.8 439.5,300 440.8,299 439.5,297 439.5,292 440.7,288.3 444.2,286.2 448,283.5 456,283.5 458.7,281.8 459.9,279.5 
		456.5,276 456.5,274 457.5,271.6 458.1,269.8 457.5,267 	"/>
</g>
<g id="_x32_">
	<path fill="none" stroke="#000000" stroke-miterlimit="10" d="M458.2,256.4l-3.6,4.7l2.9,2.4v3.5l0.6,2.8l-1.6,4.5v1.7l1,1.3
		l2.4,2.2l-1.3,2.3l-3,1.7H448l-3.8,2.7l-3.5,2.2l-1.2,3.5v5.2l1.3,2l-1.3,1l-3,0.8l-0.8,1.7l2.3,2.3l1,2.2l-1,3l2.3,2.2l-2.3,2.3
		l-2.3-1l-2.7,1.7l-1.5,3l1.8,2.8l1.7,2.2l0.5,2.7l-1.7,2.7l-2.3,0.8l-2-0.5l-3.3-0.7l-1.5-2.3l-3.8-0.3l-1.8-2h-2l-3-1.5l1.3-2.2
		c0,0,0.2-1.2-0.3-1.2s-3.5,0-3.5,0V316l-2.2-2.3l3-3.5l1.5-3.2l-1.3-2.8l-2-1.7l0.8-4.3l-1.8-1.8V294l1.5-2.3l1.5-0.6l0.2-2.6h2.3
		l1.7,1.3l1.2,1l1.3-2.2l1.8-1.2l1.8-1l-1.3-2.8V280l2.7-0.3l1.8,0.3l0.8-2.7l0.5-1.8l3.7-2.5l2.2,0.7l2.2,1.2l1.5,1.2l2-1l1.3-2.2
		l-0.7-1.8l-0.8-2.3l1-2.8l1.2-3.8l-0.5-2.8l-0.5-3.4l0.2-2l1.3-1.2l2.2-1.2l3.1,0.7l1,1.3l2.8,0.8l2.3,2.2l1.8-2L458.2,256.4z"/>
</g>
<g id="_x33_">
	<g>
		<polygon fill="none" stroke="#000000" stroke-miterlimit="10" points="471.2,203.8 477.3,206 483.2,201.6 487,202.7 487.2,208.5 
			488.3,212.2 488.5,217 491.1,217.8 494.5,229.7 497.7,229.5 503.2,238.5 494.8,242 492,236.5 490,236.5 488.5,237.5 491.7,243.3 
			488.2,245.5 487,245.5 483.1,237.5 485,250 482.2,251.6 478,253.5 476,253.5 476.2,251 479.7,249.7 480,246.5 478,246.5 
			476.3,247.1 471.7,247.5 468,247.5 464.8,247.2 463,248 467,250.8 466.8,253.5 468.8,255.5 467.8,256.5 463,253 458,256.5 
			456,255.7 454.7,254.5 452.8,256.5 450.5,254.3 447.7,253.5 446.7,252.2 444.5,251 441.3,252.7 440,253.8 437.5,253.3 437.5,251 
			438,249.2 436.5,246.5 436.5,244 434.7,244.5 432,244.5 430.9,245.2 428.8,246.5 427.7,248.5 426.7,250.7 425.2,248.8 
			423.5,246.5 423.5,242 422,240.6 419.5,237.5 416.7,233.8 421.2,228.3 423.3,227.5 425.7,228.7 428.1,228.5 430,228.5 430.5,230 
			435.3,231.5 439.2,232.5 441.7,229.8 443.5,230.8 443.5,233 442.3,234.7 443.5,235.5 447,234.7 448.2,236.5 450.8,237.5 
			452,238.5 455,236.2 457.6,236 459.5,235.5 459.5,231 460.5,227.5 460.5,226 459.2,224.2 459.1,219.7 462.5,217.7 462.5,215 
			464,214.5 466,211.8 465.3,208.2 466,205.8 		"/>
		<polygon fill="none" stroke="#000000" stroke-miterlimit="10" points="504.2,240.6 508.8,247.5 501.2,251.5 497.3,246 		"/>
		<polygon fill="none" stroke="#000000" stroke-miterlimit="10" points="489.3,251.5 481.3,254.5 482.3,258.2 487.2,256.5 
			491,254.8 		"/>
		<polygon fill="none" stroke="#000000" stroke-miterlimit="10" points="482.8,259.7 484.2,262 491,259.7 490.2,256.5 		"/>
	</g>
</g>
<g id="_x34_">
	<path fill="none" stroke="#000000" stroke-miterlimit="10" d="M376.6,335.1l0.4-0.6h3l0.7,2.5l0.8,1.5l1,1h1v3.5c0.3,0.8,3,1,3,1v2
		l-1,2.3l-3.8,2.2l-1.7,0.9h-1l-1,2.8l-1.5,1.3c0,0-1.2,0.5-1.1,1c0.2,0.5,0.1,2.3,0.1,2.3v2l-0.1,2l-1.4,1.2l-1.7,0.8l-1.8,2.2v1.8
		l1.7,1.5h1.8h3h5l2.5,1.2l3.3,1.8h2.2h3h1.5V373l1.8-2.7l0.8-1.7l1.2-0.2h1.7l3,0.3l1.8,1.3l2.5,1.8l1.2,2.7v1.3l-1.7,1.5l1.7,1
		h0.5h1.5v2h2.5l3-0.8l1.5-0.3c0,0,1,0.7,1.2,1.2c0.2,0.5,0,1.8,0,1.8l1.5,1.8l-2.7,1.3l-0.8,1.7l1.8,2.3l0.2,2.2l-0.2,2.5l-0.3,2
		l-0.7,1.2l-0.5,1.3l1,0.8h2l0.5,1v2.5l1,1.1l1.3,1.4h1.2l-1.2,1.5l-1.2,1.5h1.3l2.5-0.5l1.8-1.3l2.2,0.1l3.7,0.1l3.2-0.8l1.5-1.4
		l1.8-0.1h3.3l3.7-2.5l2.7,2l0.8,1.8l2,0.8l1.2-1.2l1.8-2h1.8l2.7-1l-0.2-3.5l-0.8-2.3l1-1.7l1.7-0.7l-1.7-1.3l-2.5,0.2l-4.2-2.5
		l-1.7-1.2l-1.7-0.7l-1-2l1.2-2.3l-0.3-6.5l-2-1.8l-0.5-2.8l-1.7-1.5l-1.8-1.2l0.5-2.2l-2.8-2.2l-2-2.5l-3-0.3l-2.5-0.7l-2-1.8
		l1.5-4.3l-3.7-2l0.7-3.7l-0.7-1.7V348l0.7-2.2l0.2-2.3l-0.8-1.5v-1l1.2-2l0.8-2l0.2-1.2l-0.7-1.5l-0.8-0.7l2.5-1.7l-0.3-3l-2.8-0.2
		l-3.3-0.7l-1.5-2.3l-3.8-0.3l-1.8-2h-2l-3-1.5l1.3-2.2l-0.3-1.2h-4l0.5-2.5l-1.6-1.7l-3.1,1.4l-1.2,2.8l-4.5,0.7l-3.6-2.1l-1.1-0.2
		v4.2l-1.5-0.5l-2-2h-2l-1.8-1.2l-0.8,1.7l2,2.3l0.8,2.2H388l0.7,3l0.7,1.8l0.5,3.2H388l-2.8-2.2l-3-1.6l-1.3-0.7l-1.8-1.5l-1.2,3.8
		l-1.6,1l-1.8,1.2v2.5L376.6,335.1z"/>
</g>
<g id="_x35_">
	<path fill="none" stroke="#000000" stroke-miterlimit="10" d="M369.3,228.5"/>
	<path fill="none" stroke="#000000" stroke-miterlimit="10" d="M371.7,230.7l-1.2,8.3v2l2,0.5l2.2,1.5l1.2,0.8l1,1.5l2.3,0.7
		l0.8,1.3l-2,2.5l0.3,1.7l2.3,1.7l0.5,1.7l-0.2,3.3l0.8,2l1.8,2l-1.5,1.6l-0.7,2l1.5,4l1.5,0.5l0.8-1.8l1.2-1.3l2-0.5l2.7,1.7
		l1.8-0.8l1.7,0.3l1.3,0.2l1.7,1.3l1.2,2.3l1.3,0.5l2.3-1.2l1.8-0.7l0.8-1.8l2.3,1l1.5,2h2l1.5,1.5l-1.1,3.3l1.6,1.2h2l1.7-0.6
		l2.7-0.8l1.2,0.7l0.5,3.7l0.5,3.2l1.3,2.8l-1.8,1l-1.8,1.2l-1.3,2.2l-2.8-2.3h-2l-0.5,2.6l-1.5,0.6l-1.5,2.3v2l1.8,2.2l-0.8,4.3
		l2,1.7l1.3,2.8l-1.5,3.2l-3,3.5l-2.5,2l-1.2,2.8H404l-2.8,0.7l-2.4-1.8l-2.2-0.5v3.7H395l-2-2h-2l-1.8-1.2l-0.8,1.7l2,2.3l0.8,2.2
		H389h-1l0.7,3l0.7,1.8l0.3,1.8l0.2,1.4H388l-2.8-2.2l-2.2-1.2l-2.2-1.2l-1.8-1.5l-0.8,1.8l-0.3,2l-1.6,1l-1.8,1.2v2H373l-2.4-1
		l-1.1-1.2V329l1-2.8l0.8-2.3l1.5-1.5l1.7-1.3l-0.2-2.7l-1.3-0.8l-1.8-1.8l-1.8-0.3V314l-0.2-2.2l-2-0.7l-0.8-1.5l-2-1.3V307v-2
		c0,0-0.2-1.5-0.1-2c0.2-0.5-0.9-1.8-0.9-1.8V299l0.7-2.2c0,0-0.3-1.3,0-2.5c0.3-1.2,0.2-1.7,0.3-2.5c0.2-0.8,0.3-1.4,0.3-1.4
		l-1.6-2.2l-1.8-1.5V286v-2c0,0-0.5-2.3,0-2.7c0.5-0.3,0.5-3.2,0.5-3.2l0.3-1.5l1-3.2l1.3-2l1-2l0.3-1.7l-1.2-2.3l-1.1-3.3l-2.2-4
		V255l1.2-3.5l-2.7-3l0.9-3.5l-0.9-3.7l1.2-1.8l-1.2-4.8l-2.1-0.8l-1.2-1.3h1.3l1.3-1.8l1.7-1.7l3,1.3l2.3-1.3l2.7-0.7l1.7,1.8
		L371.7,230.7z"/>
</g>
<g id="_x36_">
	<path fill="none" stroke="#000000" stroke-miterlimit="10" d="M370.7,230.1l1.3-2.5l2.1-1.5l1.2-0.2l1-1.8l2.3,0.7l1.8,1.2v3.2
		l2.2,0.7l1,0.3l2,1.7l2.5-1.2l1.8-0.1l3-2l2.5,1.2l1.5,2.2l4.2-0.7l1.5,1.5h3.3l1,2h3l1.5,1.5v4l1.5-0.5l3.7-5.7l2.8,3.7l2.5,3.1
		l1.5,1.4v4l3.2,4.7l1-2.2l1.2-2l3.2-2h3l1.5-0.5v2l1.5,3.2l-0.5,1.8v2l2.5,0.8l-0.2,2l0.5,3.4l0.5,2.8l-1.2,3.8l-1,2.8l0.8,2.3
		l0.7,1.8l-1.3,2.2l-2,1l-1.5-1.2l-2.2-1.2L431,273l-3.7,2.8l-1.3,4.8h-5l-0.5-3.7l-1.2-0.7l-2.7,0.8l-2,0.6H413l-1.6-1.2l1.1-2.2
		V273l-2-1.5H409l-1.5-2l-2.3-1l-0.8,1.8l-1.8,0.7l-2.3,1.2l-1.3-0.5l-1.2-2.3L396,268l-1.3-0.2l-1.7-0.3l-1.8,0.8l-1.5-1.2
		l-1.2-0.5l-2,0.5l-1.2,1.3l-0.8,1.8l-1.5-0.5l-0.8-2.2l-0.7-1.8l0.7-2l1.5-1.6l-1.8-2l-0.8-2l0.2-3.3l-0.5-1.7l-2.3-1.7
		c0,0-0.7-1-0.3-1.7c0.3-0.7,2-2.5,2-2.5l-0.8-1.3l-2.3-0.7l-1-1.5l-1.2-0.8l-2.2-1.5l-2-0.9V239v-4v-2L370.7,230.1z"/>
</g>
<g id="_x37_">
	<g>
		<polygon fill="none" stroke="#000000" stroke-miterlimit="10" points="417.9,180.3 416.4,183.9 417.8,184.8 415.3,187.2 
			416.5,190.5 415,195.2 413.2,194.3 409.5,197.8 409.5,202 408.7,201.5 410,203.5 408.8,204.8 407.8,204.3 404.3,207.2 
			407.5,218.7 412.8,225.5 418.2,225.2 421.3,224.2 422,221.5 424.5,221.7 427.2,222.8 429.5,222 429.5,225 428.1,228.5 
			430.5,228.5 430.5,230 435.3,231.5 439.2,232.5 441.7,229.8 443.5,230.8 443.5,233 442.3,234.7 443.5,235.5 447,234.7 
			448.2,236.5 450.8,237.5 452,238.5 455,236.2 457.6,236 459.5,235.5 459.5,231 460.5,227.5 460.5,226 459.2,224.2 459.1,219.7 
			462.5,217.7 462.5,214.5 464,214.5 466,211.8 465.3,208.2 466,205.8 471,203.5 470,201.5 471.7,193 467.3,189.4 460,189.5 
			457.5,187.3 457.5,186 456.5,186.7 453.2,185.9 451,186.5 449,186.5 447.2,188.2 444.2,185.8 441.5,184.3 439.7,186.2 437,182.8 
			434.2,183.2 432.9,183 430.3,182.7 427.5,182 423.3,181.8 421.2,180.3 418.8,179.8 		"/>
	</g>
</g>
<g id="_x38_">
	<g>
		<path fill="none" stroke="#000000" stroke-miterlimit="10" d="M361.5,179.7l-1.6,3.9l1,4.2l3.5-1.3l1,1.8l1.6,2.6l1.8,4.6
			l-1.4,4.5v2l1.4,2.5h1.1l-1,2.7l2,2.8l-1.3,3.5l-0.2,3.8l-1.5,2.5l-1.7,4l2,1.8l0.7,2.7l2,1.7l1.2-2.5l2-1.5l1.2-0.2l1-1.8
			l2.3,0.7l1.8,1.2v3.2l3.2,1l2,1.7l1.8-1.2l2.5-0.2l3-2l2.5,1.2l1.5,2.2l4.2-0.7l1.5,1.5h3.3l1,2h3l1.5,1.5v3.5h1.5l3.7-5.7
			l4.5-5.5l2.2-0.8l2.3,1.2l2.4-0.2l1.4-3.5v-3l-2.3,0.8l-2.7-1.2l-2.5-0.2l-0.7,2.7c0,0-2.7,1-3.2,1s-5.3,0.3-5.3,0.3l-5.3-6.8
			l-3.2-11.5l3.5-2.8l1,0.5l1.2-1.3l-1.3-2l1.2-1l0.2-2.7l2-2.3l1.5-1.2l1.5,0.8l1.5-4.7l-1.2-3.3l2.5-2.5l-1.3-1l1.5-3.8l-3.1-7.1
			l-1.4-1.4l-2-1.2V168l-3.3,0.2l-7.5-3.4l-5.9-1.3l-0.3,1l0.1,1.8v2.3l0.7,1.5l-0.6,3.5l-2.5-0.8l2.2,4.2l-3.8,4.2l-1.8-0.5
			l-2.5,2.3l-3.2-4.7l-2.2,1.5l-2.5,0.7l-1,3.2l-2.2,0.2l-0.5,2.3l-2.5-0.2l-1.5-3l0.5-2l-2.3-1.2l-6.8-1.3L361.5,179.7z"/>
	</g>
</g>
<g id="_x39_">
	<g>
		<polygon fill="none" stroke="#000000" stroke-miterlimit="10" points="437.2,146.8 433.1,146 429.7,145.3 427.7,142.5 424,142.5 
			421.5,141.3 419.7,139.5 416.7,134.5 409,134.5 406,132.3 401.5,130.3 394.2,128.3 391.4,131.7 392.5,134.3 392.5,136 
			388.8,137.7 387.7,140 384.2,141.7 381,142.7 380,145.2 377,145.8 375.7,148.3 377.5,152 379,154.4 377.3,155.5 373,155.5 
			371.3,153 369.2,152.5 366.7,149.5 365,149.5 365.8,145.3 361.2,143.7 358.5,144 358.5,140 355.5,140.7 355.5,144 353.5,146 
			351.2,147.2 349.2,150 350.8,152.8 350.7,155.5 351.8,156.5 358,152.5 359.5,153 359,155.4 363.8,159.5 367,159.5 366.5,162.3 
			369.3,164.2 374.7,167.7 375.8,170.2 376.2,172 383,178.3 385.2,182.2 386.2,183 388.7,180.7 390.5,181.2 394.3,177 392.2,172.8 
			395.2,173 395.3,170.2 394.3,167.7 394.5,164.5 392,164.2 396.9,161.3 401.7,159.6 405,157.7 408.2,158.8 410,155.7 413.2,154.8 
			415.6,157 417.3,155.7 419,151.7 420.9,152.2 423.8,151.3 426.7,151.1 429,151.2 430.9,153.8 432.7,151.5 434,151.7 435.8,150.7 
			438.5,152 438.5,147 		"/>
		<polygon fill="none" stroke="#000000" stroke-miterlimit="10" points="371.3,170.8 365.2,172.5 362,178.5 368.8,179.8 
			370.3,175.3 372.2,172.3 		"/>
	</g>
</g>
<g id="_x31_0">
	<g>
		<polygon fill="none" stroke="#000000" stroke-miterlimit="10" points="470,165.5 472,165.5 474.7,166.7 476.8,168.7 479.5,172.5 
			481.2,177 481.8,180.7 483.3,184.8 485,187.3 487.7,189.2 491.8,190.3 496.3,191.8 498.3,193.7 496.2,198.3 494.7,201 
			494.8,203.8 497.7,204.7 500.3,205.5 504,205.5 505.7,203.8 509.3,201.7 512.8,200.5 516,200.5 519.3,200.8 523.5,199.2 
			527.3,200.3 532.7,202.8 538.8,205.5 543.8,207.8 547.5,211 548.8,214.3 547.2,216.7 545,218.2 543,220.8 540,223.7 535.2,218.2 
			536.5,214.3 534.2,214.2 532.3,210.2 529.8,210 531,214.7 534.5,222.2 527.3,225 525.5,218.5 523.2,218.8 524.5,225 524.5,227 
			516.2,230.8 515.8,220 514,220.2 514.5,231.8 507.8,235.5 504.2,228.8 502.8,230 505.8,235.7 505.5,237.5 504,237.5 497.7,229.5 
			494.5,229.7 491.1,217.8 488.5,217 488.5,213 487.2,208.5 487,202.7 483.2,201.5 477.2,205.8 471,203.5 470,201.5 471.7,193 
			467.3,189.4 462.8,189.5 460,189.5 457.5,187.3 457.5,186 459.8,184 460.1,180.8 460.3,178.8 463.4,175.9 466.7,172.7 
			468.8,165.8 		"/>
		<polygon fill="none" stroke="#000000" stroke-miterlimit="10" points="519.1,233.8 526.1,230.6 532,227.5 535,227.5 535.8,230 
			529.7,233.8 521.8,237.5 		"/>
		<polygon fill="none" stroke="#000000" stroke-miterlimit="10" points="516.7,234.7 520,240.3 510,246.5 505.7,240.6 		"/>
	</g>
</g>
<g id="_x31_1">
	<path fill="none" stroke="#000000" stroke-miterlimit="10" d="M458.4,356.8l2.2-3.1l2.6,0.8l2.4,2.1l1.7,2.8l-1.6,2.2H464l-0.3,4.9
		l-0.5,2.1H461l-1.1-1.3l-0.3,1.3l1.8,3.5l-3.5,1l-2.8,1.3l1.3,3.2h2.5l2.2-1.2l1.1-0.7l1.3-3.2l2.6-3l2.2,2.5v2l-2.3,2l-1.2,3
		l0.7,3.2l2,2.4l1.8,0.9h2.5h1l-0.9-1.8l-1.6-1.8V381l2.4-1l1.6,1.7V378v-2l-2-1.8l2-0.7h3.5l3.2,1.3l2.2,2.2v2l1,3
		c0,0-1.3,0.7-2,0.7s-2.3,0.2-2.3,0.2l1.2,2.7l-2.2,1.3l2.7,1l2.7,4.3l-1.2,1.7c0,0,0,1.3,0.2,1.8s2,1.8,2,1.8l2.3,1.6l2.7,1.4h3.5
		l4,0.7c0,0,4.8,0.8,5.3,0.8s4,0.3,5.2,0s3.5-2,3.5-2l2.8-1.3c0,0-0.8,2,0,2.2c0.8,0.2,2.3,0.6,2.3,0.6l2,2.1h1.8l0.8,1.3l0.8,1.7
		v2.5l-1.5,1.2l-2.8,1.5l-2,1.7l-0.5,1.5l-0.3,1.7H513l-1.8,1H509l-2.3-3.3l-1.7-2.7l0.8,4.3l1.7,2.8l2.3,2.2l2.7,1.7l-0.2,4.3
		c0,0,0,1-0.3,1.5c-0.3,0.5-2.2,1-2.2,1l-1-1l-1.3-2l-1.8-0.5l-1.2,1.3v1.8l-0.7,3.2l1,1.3h2.2h2l0.7,0.8l-1.7,1.8l-0.2,2.5l-1.5,1
		l-2.2-1.1l-3.5,0.9H497l-3.3,0.2c0,0-2.7-0.7-3.2,0c-0.5,0.7-4.2,2-4.2,2l-3.2,0.8l-2.7,2.5l-2.7,2.3l-2,2.3l-2.5,2.5l-3,2.2
		c0,0-0.5,1.7-0.8,2.2s-1,4.7-1,4.7s0,1.2,0.2,1.7c0.2,0.5,1,2.7,1,2.7l1.5,1l0.8,3l0.2,3.3l1,2.6l3,1.1h2.8l2.2,1.2l1.8,0.8
		c0,0,0.2,2.2,0.2,2.7s0.2,2.8,0.2,2.8v2l-1,1.5H481l0.5,3.2l-2-1.8l-1.7,1.6h-2.3V486l-2,0.5l-1.2,0.8l1.2,1.8l-2.7,1.4H468
		l-1.8-2.3l-1.2,1.1l-2.5,1.2H460l-2-1.7l-2.8,1.3l-1.8,2.2l-3.2-1.3c0,0-2.8,1.8-2.2,1.3s2.8,0.8,2.8,0.8l0.1,1.8l1.6,1v2.5H451
		l-2-2.7l-1.1-1.5l-2.2,1.7l-0.8-1.2l-2.5-0.2H441l-0.8-2l1.5-1.3l2.2,0.3h2.2l-2.2-3l-1.7-0.8l2.3-2.2l0.5-2.5l-1.3-1.5l-2.5-1
		l-1-1.5l2.8-0.8l1.8,0.3l1.7,0.2l-0.8-1.7l-2-1l3.5-0.5l-0.8-2l2.2-1h3.5l-3.5-1.7l-2.7-1.3l0.5-1.8l0.5-3l-1-3.5l-0.5-1.7l-0.5-1
		l2.3-0.7l-0.7-2.3l-2-1.7l-3-1.7l-1.3-2l-1.8-0.3l-3.2-0.2l1.8-2.3l0.6-2.7V443l2-1.2l1.8-1.3l1-1.5c0,0,2.5,1.5,3,1.7
		c0.5,0.2,2.8,0.5,2.8,0.5l2-0.8l1.2-2.3l1.7-1.8l-1.7-1.2l-2.3-2.5l-4.8-1.7l-3.7-1.2l-2.8,1.5l-0.8-1.7l1.7-2.7l-0.8-4.2l-2.5-5.3
		l-3.3-2.5l-2.3-2.3l-2.8-3l-1.2-1.5l1.8-1.3l5.8,0.2l3.2-0.8l1.5-1.4l1.8-0.1h3.3l1.2-1l2.5-1.5l1,0.2l1.7,1.8c0,0,0.3,1.7,0.8,1.8
		c0.5,0.2,2,0.8,2,0.8l1.2-1.2l1.8-2h1.8l2.5-1.7V399c0,0-0.8-1.8-0.8-2.3s1-1.7,1-1.7l1.7-0.7l-1.7-1.3l-2.5,0.2l-4.2-2.5l-1.7-1.2
		l-1.7-0.7l-1-2l1.2-2.3l-0.3-3.8V378l-2-1.8l-0.5-2.8l-1.7-1.5l-1.8-1.2l0.5-2.2l-2.8-2.2l2.8-2.8h4l1.5-0.8l1-1l2.2-3l1.8-2.7l2,2
		L458.4,356.8z"/>
</g>
<g id="_x31_2">
	<path fill="none" stroke="#000000" stroke-miterlimit="10" d="M360.5,287.4l-2.5-1.7l-0.8-2.2l1-2.9l-1.6-1l-1.5,5.6l-2.8-0.8
		l-2.8-0.5l-1.8-2l-2.2,1.2v0.9l2.8,2.5l2.5,3l1.7,0.9l-0.8,3.2l-1.2,1.9H348h-3l1.2,2.3l-2.8-1.2V294v-2l-3-1.7l-3.2-1.8H334
		l-0.8,1.9l-3.2-0.8l-3-1l-1.6,1.8l-0.9,3.1v1.5l-1.3,1.7l-1.7,2.8l-0.8,1.5l-2,0.8l-1.8,0.8H313l-3,0.8l-1.7-0.8H306l-2.5-0.2v3.7
		v5v2l-1,3.3v2.7l-2,2.7v2.3v4l-1.2,1.3c0,0,0.3,2,0.8,2.2s0.8,1.7,1,2c0.2,0.3,0.2,1.8,0.2,1.8l-2,1.3l1.5,1.8h2.2h4l3.8-0.8
		l2.5-0.2h1.7l1-4l-0.3-1.7l-1.2-1.2c0,0-0.5-0.7-0.3-1.3c0.2-0.7,1.3-1.8,1.3-1.8l1.7-0.7l1.3-1.2l0.8-1.3l0.8-2.7l0.3-2l0.7-1.5
		l1.5-1c0,0,0.2-0.5,1.3-0.8c1.2-0.3,1.8-0.8,1.8-0.8l1.8-1.2l1-1.1c0,0,0.8,0.7,1.7,1.1c1,0.4,2.6,1.1,3.1,1.1s1-1.6,1.7-1.1
		c0.7,0.6,2-0.2,2.5,0c0.5,0.2,0.8,1.1,0.8,1.9c0,0.8,0.5,1.5,0,2.2c-0.5,0.7-1,1.2-1.3,1.7c-0.3,0.5-0.7,1.2-1,2
		c-0.3,0.8-0.3,0.8-0.3,0.8l1.3,0.8c0,0,0.7-0.5,1.3-0.7s0.4-0.2,0.4-0.2s-0.4,1.3-0.4,2c0,0.7,0,1.2,0,1.2l3-0.5h0.5l1.2,0.8
		c0,0-0.3,1.2-0.8,1.5c-0.5,0.3-0.5,0.3-0.5,0.3l-1.2,1.2l-0.2,2v1.7c0,0-0.2,1.2-0.2,1.7s0,0.7,0.5,1.3s0.8,1.3,0.8,1.3l0.4,1.2
		l1.4,0.8v1.7l0.7,2.3c0,0,1,0.5,0.8,1.2s0.2,1.8-0.3,2.2c-0.5,0.3-0.7,1.7-0.7,1.7s-0.2,1.7-0.3,2.2c-0.2,0.5-0.5,1.5-0.8,2
		c-0.3,0.5-0.5,2.3-0.5,2.3s-0.3,0.8-0.5,1.3c-0.2,0.5-0.3,1.2-0.3,1.2l-0.3,1.8l-0.2,1.3h1l3,0.9c0,0,1.3-0.4,2.2,0.1
		c0.8,0.5,2.7,1,2.7,1h2.2h2h1l1.7,0.9l1.8,1.1h1.5l2.5,0.8l1.7,1c0,0,1.8,4.2,0.7,4.7c-1.2,0.5-1.2,0.5-2.2,1s-1.5-0.7-1,0.5
		s0.8,1.2,1.8,1.3c1,0.2,1.5-0.2,2.5,0c0.9,0.2,3.5,0,3.5,0V373l-0.8-1.5l-1.5-0.8l-0.7-2.2h1.5l1.5,0.8l1,0.3V367l1.8-2l1.7-0.8
		l1.4-1.2l0.1-2v-2l-0.1-2.3l0.8-1l1.2-1.3V352l2.5-0.5l1.7-0.9l3.8-2.2l1-2.3v-2l-3-1v-3l-2-1.5l-1.1-2.6l-0.4-1.4h-3l-2.5-0.5
		l-1.5-0.5l-2.4-1l-1.9-1.7l1.3-3.2l1.3-3.8l1.5-1.5l1.7-1.3l-0.2-2.7l-1.3-0.8l-1.8-1.8l-1.8-0.3l-0.2-3.5l-2-0.7l-0.8-1.5l-2-2.7
		l-0.1-4l-0.9-1.8V299l0.7-2.2l0.2-3.3l0.2-1.7l0.3-1.4l-1.6-2.2l-1.8-1.5L360.5,287.4z"/>
</g>
<g id="_x31_3">
	<path fill="none" stroke="#000000" stroke-miterlimit="10" d="M303,302.5h-2.5V300v-2v-1.8v-2.6l1-3.1V289c0,0,0.7-2,0.7-2.7
		c0-0.7,0.8-2.5,0.8-2.5s-0.5-2.7,0-2.9s0.7-1.4,0.7-1.4s-0.2-1.4,0-2c0.2-0.7,0.5,0.2,0-1.5s0.2-0.5-0.5-1.7
		c-0.7-1.2-1.6-1.7-1.6-2.2c0-0.5-0.1-1.5-0.1-1.5V269c-0.3-1.2,0.1-2.7,0.1-2.7l2.3-2.2l0.7-2l1.7-2.9l1.2-1.1V255
		c0,0,0.3-0.7,0-2.2s-0.7-2.5-0.7-2.5l-0.3-2.7l-1.8-3.2l-0.5-1c0,0-1.2,0.3-0.7-1.2c0.5-1.5,0.5-2.8,0.5-2.8s-0.5,0.1-0.5-0.8
		c0-0.8,0.7-2.2,0.7-2.2h1.8h2l1.3,1c0,0,1.3-0.2,1.8,0s2-1,2-1s0.5-0.7,1.2-1.3c0.7-0.7,1.3-1.5,1.3-1.5s0.3-1.2,0.8-1.2
		s1.5,0,1.5,0h2h1c0,0,0.2,2.3,1.3,0c1.2-2.3,1.7-3.5,1.7-3.5l1.3-2.4l1.8-2.7l1.2-0.8l2-1.7h1.7h2l1,1.2l1.3,1.3l1,1.1l3.2-0.6h2.5
		l2.3-1.5c0,0-0.8-1,0-1.5c0.8-0.5,2.5-2,2.5-2l1.3-1.4l3.5-0.6h2.3l1.5-0.7v2.2l2,2.3v2.7l1,2.3v0.7v1l-0.2,2.7l-1.3,1.8h-1
		l0.8,1.3l2.1,0.8l1.2,4.8l-1.2,1.8l0.9,3.7l-0.9,3.5l2.7,3l-1.2,3.5v3l2.2,4.2l1.1,3.3l1.2,2.3l-0.3,1.7l-1,2l-2.3,5.2l-0.3,1.5
		l-0.5,3.2v2.7v2v1l-1,0.4l-2.5-1.7l-0.8-2.2l1-2.9l-1.6-1l-1.5,5.6l-2.8-0.8l-2.8-0.5l-1.8-2l-2.2,1.2v0.9l2.8,2.5l1.7,2.1l2.4,1.8
		l-0.8,3.2l-1.2,1.9H345l1.2,2.3l-2.8-1.2V292l-3-1.7l-3.2-1.8H334l-0.8,1.9l-3.2-0.8l-3-1l-1.6,1.8l-0.9,3.1v1.5l-1.3,1.7l-1.7,2.8
		l-0.8,1.5l-2,0.8l-1.8,0.8H313l-3,0.8l-1.7-0.8H306H303z"/>
</g>
<g id="_x31_4">
	<path fill="none" stroke="#000000" stroke-miterlimit="10" d="M353,217.5l-2.5-3.5l2-1v-2l0.5-1.2l-1.2-1.5l-2.6-1.7l-0.8-2.2
		l-1.5-1.5l-1.2-1.4l-2.8-1.4l-2.1-1.2l-1.8-1.7l-1.4-0.7l-1.1-1.8V193l-3-0.8V190l-0.2-1.5H331l-2.5-1.5v-1l-0.7-2.5H327l-2.8-3.7
		l-0.2-2.2c-0.8-1-2.3-1.3-2.3-1.3s-1.2,0.3-1.7-1c-0.5-1.3-1.5-2.8-1.5-2.8V172l-0.7-1.5H315l-1.7-0.8l-0.7-1.9l-2.2-1.2H308
		l-1.2-1l-1.2-1.3v-0.7H302l-1.5-1.5l-1.8-1.8l-1.5-0.7H295l-1.3-2H291h-2h-3.5V156l-2-1.5H282h-2h-2h-3h-1h-1h-4.5v1.5v2
		c0,0,1,0.5,1.2,1c0.2,0.5,0.2,0.8,0.2,1.3s-0.2,2.8-0.2,3.2s-1.2,1.2-1.2,1.2v1.3l0.7,1.5H267l-0.7,1.8l-2,0.3c0,0-1.4-0.2-2.1,0
		c-0.7,0.2-1.8,0.3-1.8,0.3v3v2l1,0.3l1,1.2l1.7,0.5l2,0.5l0.8,1.5l1.5,2l1,1.2c0,0,0.2,0.7,0.7,0.8s0.7,0.8,0.7,0.8
		s1.3,1.8,1.3,2.2s1.2,1.3,1.2,1.3l1.2,0.8v0.8c0,0,0.2,0.5,0.2,1s-0.2-0.7,0,0.5c0.2,1.2-0.1,1-0.1,1.8c0,0.8-0.1,1.5-0.1,1.5v1.2
		l0.5,2.3l0.8,2.3l0.2,1.8l4.3,1.7l2.2,1l1.5,1.3c0,0,0.8,0.8,1.3,1.2c0.5,0.3,2.2,1.3,2.2,1.3l1.5,1.5h1l0.8,1l1.2,0.8
		c1.2,1,1.8,1.1,1.8,1.1s1,0.1,1.5,0.1s2.7,0,2.7,0s0.3-0.2,1.3-0.2s2.7-0.2,3.3-0.2c0.7,0,3-0.5,3-0.5l2-1l1.8-0.8l2.2-2.3l1.2-0.8
		c0,0,0,0.2,0.8,0.5c0.8,0.3,1.2,0.2,2,0.5c0.8,0.3,0.8,0.3,0.8,0.3l0.8,1.2l0.7,1.2c0.8,1.3,1.5,2.2,1.5,2.2l1.2,0.9h1.3l1.3-0.7
		c0,0-0.4-0.3,0.9-0.3s1.8,0,1.8,0s0.8,0.3,1,1.2c0.2,0.8,0.2,0.8,0.2,0.8l1.2,1c0,0,0.2-0.2,1,0.2c0.8,0.3,1.7,0.8,1.7,0.8h1l0.5,1
		v1.5l-0.3,1.3l-0.2,1.2h2l1,1.2l1.3,1.3l1,1.1l3.2-0.6h2.5l2.5-1.5v-1l2.3-2.5l1.3-1.4L353,217.5z"/>
</g>
<g id="_x31_5">
	<path fill="none" stroke="#000000" stroke-miterlimit="10" d="M303,306.5h-2h-3h-2h-2c0,0-1.5-0.7-1.5-1.3c0-0.7,0-2.2,0-2.2
		s0.7-0.5,0-1.2c-0.7-0.7-1-2-1-2s-1-0.8-1.2,0c-0.2,0.8,0.1,3.1,0.1,3.1l0,2.5v2.5l1.3,0.8l1.3,1.5l0.3,1v1.7l-0.3,1.3l-1,1.1
		l-1.9,1.5l-0.9,0.7c0,0-0.2,0.8-2,1c-1.8,0.2-1.8,0.2-1.8,0.2l1-1.8c0,0,0-0.8,0-1.3s0-1.5,0-1.5l0.3-1.7l-1.5-1.5
		c0,0-0.8,1.5-0.8,2s0,1.2,0,1.2s0.5,0.3,0,1.7C284,317,284,317,284,317l0,0l-1.7-0.8l-1-0.4l-1.2-1.3h-2.7v1.5l-0.7,0.8l-1.8-0.4
		l-1,1.1h-1c0,0-0.5-0.8-0.8-1.3c-0.3-0.5-1.2-1.9-1.2-1.9l-0.5,2.2v3.5v2v2l-1.8-1.2l-1.2-1.2V319c0,0,0.5-0.8,0-1.5
		s-1.7-1-1.7-1.5s1.2,0,0-0.5c-1.2-0.5-2.7-1.2-2.7-1.2l-0.9,0.9c0,0-0.8,0.4-0.8-0.9c0-1.3,0-2.3,0-2.3l-1.1-1.7l-0.9,0.7v2v2v1.5
		H258c0,0-0.2,0-1.3,0c-1.2,0-3.2,0-3.2,0v1.5l1,2.5l0.2,1.3c0,0-0.2-0.3-1.2-0.3s-1.5,0-1.5,0s-1.3,0-1.8,0s-0.2,0-0.2,0l-1.7,0.7
		c0,0-0.7,0.6-1.3,0.4c-0.7-0.2-0.7-0.1-1.7-0.1s-2.8,0-2.8,0v3.5v1v2c0,0-0.2,1.2-0.7,2s-1.2,1-1.2,1l-1.2,1.5H239c0,0-1,0.2-1.7,0
		c-0.7-0.2,1.3-0.2-0.7-0.2s-1.8,0-2.8,0.2s0.2-1.2-1,0c-1.2,1.2-1.2,1-1.2,1H230l-1.3,1H227h-1h-1l-0.5,1l-1,2.3v3.2l-1,0.8v1.2v2
		l1.5,2.3l2.2,1l1.2,1v0.7v1.5v1.5c-1,0.2-1,0.2-1,0.2L225,355l-1.2,1c-1,1.3-1,1.3-1,1.3l-0.3,1l-0.8,1.2H220c-0.7,0.2-1.5,0-1.5,0
		l-0.8,0.8l1.2,1l1,1.1h1.2l0.3,1.8c0,0,0.8,0.5,0.5,1.5c-0.3,1-0.3,1.3-0.3,2c0,0.7,0.3-0.8,0,0.7s-0.3,1.3-0.5,2.5
		s-0.5,2.9-0.5,2.9s0.1-0.1-0.2,1.1s-0.8,1.8-0.8,2.3s0,1.7,0,1.7s0-0.3,0,1.2s0,1.8,0,1.8l1,1.5h2.5l2-2.5l6.2-2.3l6.3-2.2l8.2-2.6
		l4.5-1.1l7.5-0.5l4.2-1l3.8-0.5l2.2-0.3l1.7-2.3l2.3-1.5c0,0,1-0.3,2.3-0.5c1.3-0.2,3.7-0.3,4.5-0.5c0.8-0.2,5.3-0.7,5.3-0.7
		s3-1,3.5-1s2.8-0.5,3.5-0.5s4,0,4,0h3c0,0,3.2,1,3.8,1c0.7,0,3-0.2,3-0.2s3.2-0.5,3.8-0.5c0.7,0,1.8-0.2,2.8-0.2s3-0.2,3-0.2h1.5
		l1.8-0.5l1.7-1.6c0,0,1,0.2,1.5,0s1-0.6,2.2,0.2c1.2,0.8,2.7,1,2.7,1h2.2c0,0,2.2-1,2.8-1h2.2l2.5-1h2.5c0,0,0.8,1.1,1.3,0.9
		s1.7-0.9,1.7-0.9l0.2-1.3l0.3-1.8l0.3-1.2l0.3-1.3l0.3-2.3V352l1.2-1.5l0.3-2.2l0.7-1.7l0.3-2.2l-0.8-1.2l-0.7-2.3v-2l-1.4-0.5
		l-0.4-1.2l-0.8-1.3l-0.5-1.3l0.2-1.7v-2l0.2-1.7l1.2-1.2l1.3-1.8l-1.2-0.8l-3.5,0.5l-0.7-1.5l1.1-1.7l-1.8,0.8l-1.3-0.8l1.3-2.8
		l1.3-1.7V316l-0.8-1.5H335l-1.5,0.8l-3.1-1.1l-1.7-1.1l-2.8,2.3l-3.2,1.7l-1.5,1l-0.7,1.5l-0.3,2l-0.8,2.7l-0.8,1.3l-3,1.8
		l-1.3,1.8l0.3,1.3l1.2,1.2l0.1,2.6l-0.8,3h-2l-3,0.4l-3.7,0.6H303h-1h-1l-1.7-2.7l2-0.5l-0.2-1.8l-1-2l-0.8-2.2l1.2-1.3v-6l2-3v-3
		l1-3v-2L303,306.5z"/>
</g>
<g id="_x31_6">
	<path fill="none" stroke="#000000" stroke-miterlimit="10" d="M268,154.5h-3h-3l-2.5-2.1l-2.5-1.9h-1l-2.2-1.2l-2.8-0.8h-2h-4h-1
		l-1.3,3c0,0-1.5,0.5-1.7,1s-0.8,2-0.8,2s0.2,1.7,0,2.3c-0.2,0.7,0,1.3,0,1.3l-3.5-1.8l-1.2-0.9H233l-0.8,1.2l-2.8-1V155l-1.8,0.7
		l-1.2-2.3l-1.7,1.2l-1.5-1.2l-0.8-1.7l-2.3-1.3l-1.2-1.8l-1.2-2.8l-2.3-2v-1.2H215l-1.5-2V137l-1.4-2.3l-1.6-2.3V131v-3v-3
		l-0.7-0.6l-0.8-0.9h-2l-3-2h-2h-5.5v1.5l-1,1.8l-2.7,0.5l-2.7,0.2l-2.3-0.5l-2.7-2.3l-1-1.2H182h-1l1.1-3.3l-1.6-2.2v-3l-1-2.5v-1
		H177l-1.2,1H174l-3.7,0.2l-1.5-1.1l-1.3-2.1H166h-2l-1.5-1.3c0,0-0.9-0.5-1.6-0.7c-0.7-0.2-1.4,1.5-1.4,1.5v2v1c0,0,0.5,1,0,1
		s0.7-0.3-0.5,0s-1.2,0.3-1.2,0.3s-0.3,0.2-1.8,1c-1.5,0.8-1,1.5-1,1.5l-1.5,1.7v1.5v1l-1.7,0.7l1,3l1.5,2l1.8,1.8l1.1,1.2l0.2,1.7
		v1.7l-0.2,1l-1,0.8l-0.6,1.2c0,0-0.2,0.7-0.2,1.3c0,0.7,0,2.7,0,2.7s0.7,0.3,0.7,0.8s0.3,0.8,0.7,1.3c0.3,0.5-0.2-0.5,0.3,0.5
		s0.7,1,0.7,1s0.7,0.3,0.7,1.2c0,0.8,0,1.2,0,1.2l1,1.8c1.3,1.3,2.2,1.8,2.2,1.8l1.8,0.5l-4.7,1.2l0.5,1.5c0,0,1.3,0.5,1.5,1
		c0.2,0.5,0.4,1.7,0.4,1.7l0.2,0.8v1.7l-0.6,0.7c0,0-0.4,0.7-0.4,1.3s0,1,0,1s-0.5,0.7-0.7,1.3c-0.2,0.7-0.5,1-0.7,1.5
		c-0.2,0.5-0.3,1.5-0.3,1.5l-1,1.2H156l-0.2,2.2c0,0,0,1.7-0.5,2c-0.5,0.3-1.3,1.8-1.3,1.8l0.2,1.1h1.8l1.6,0.7l0.9,1v2.8v1.2v1.8
		c0,0,0.6,0.5,0.6,1.5s0.4,1.2,0.4,2s0,1.5,0,1.5v2c-1,0.5-1.5-0.2-2.2,1c-0.7,1.2-0.7,1.2-0.7,1.2l-1.2,0.8l-1.8,1.8l-1.2,0.7
		l-0.5,1l-1.5,2.3v4.2l-1,1.8v2.2c0,0-1,0.3-1,0.8s0,2.2,0,2.2v1l-1.5,1c0,0-0.2-0.5-0.8,0c-0.7,0.5-1.3,0-1.3,0l-1.3,3v1l-1.2,1.7
		l-1.8,0.7c0,0-0.7,0.8-1.2,1c-0.5,0.2-1.5,0.7-1.5,0.7l-1.2,1.2l-1.2,1.3l-2.2,2.2l-1.2,1.5c0,0-1.3,1-1.8,1.2
		c-0.5,0.2-2.2,0-2.2,0l-2.7,0.1h-2v1.5v2l1,1.3c0,0-0.2,0,0.5,1s0.8,1.5,1,2s0.3,1.8,0.3,1.8s-0.2,0.5,0,1.2
		c0.2,0.7-1.3-0.3,0.2,0.5c1.5,0.8,3.3,0.7,3.3,0.7h2.2l1.8,0.8l1.3,1c0,0,0.7,1.3,1.2,1.5c0.5,0.2,1,1.8,1.3,1.7
		c0.3-0.2,0.3-0.2,0.3-0.2l1.7,0.2c0,0,0.8,0.2,1,0.8c0.2,0.7,0.7,0.7,1,1.2c0.3,0.5,0.3,1.3,0.3,1.3l0.5,1.3c0,0,0.3,0.3,0.5,0.8
		s0.2,0.5,0.2,0.5h2.8c1.5,0.7,2.8,1,2.8,1h1.2c0,0,0.3,0.8,0.8,1.2s0.5,0.8,0.5,0.8h2.7l2.3-1.8l1.3-1.3l2-1.5l2-1.5l0.5-0.8l0.7-1
		c0,0,0.3-0.3,1-0.3c0.7,0-1-0.7,0.7,0c1.7,0.7,1.5,0.2,2.3,0.7c0.8,0.5,0.8,0.5,0.8,0.5l1.4,0.8c0.3,1.3,0.4,2,0.4,2v0.8
		c0.3,1-0.3,0.3,0.3,1c0.7,0.7,0.7,0.7,0.7,0.7l2.2,0.8c0,0,0.2,0.3,1,0c0.8-0.3,0.8-0.3,0.8-0.3l3-0.7c0.7,1.2,1.2,2.7,1.2,2.7
		s0,1.7,0.2,2.2c0.2,0.5,0.7,2.2,0.7,2.2l0.7,1l-0.7,1.2v2.3l-0.8,2c-0.3,1.1-0.5,2.3-0.5,2.3l0.8,1l1.7,1.2h1.3c0,0,0-0.3,0.8,0
		c0.8,0.3,1.5,0,1.5,0s0.5,0.3,0.8,0.8c0.3,0.5,1.5,1.8,1.5,1.8l1.2,1.2l1,1.2h1.2l0.3-1.7l1.8-1.1l2.7-0.2h1.2l0.8,0.2l1.2-0.3
		c1.2-0.7,1.8-1.6,1.8-1.6l1-1.2h1.2c0,0,0.2-0.5,0.3-1c0.2-0.5,0.2-0.5,0.2-0.5l0.2-1.8l0.2-0.7h1.2l1.5,1h0.5l2.7-1.8
		c0,0,1.5-0.8,1.7-0.3c0.2,0.5,3,2.1,3,2.1h1.7l2.7,1.7l0.8,1.2l-0.8,2.3l-1,1.3l1.5,1.7l0.3,2.5v1.8l0.3,1.5l-1.2,1
		c0,0,1,0.7,1.5,1.3c0.5,0.7,0.7,1.8,0.7,1.8s0.5,1.8,0.7,2.2c0.2,0.4,0.8,2.6,0.8,2.6l1,3l0.7,2c0,0,0.8,0.8,1.2,1.7
		c0.3,0.8,1.2,1.5,1.2,1.5l0.8,2c0,0,0.3,0.9,1,0.9c0.7,0,1.8,0,1.8,0h1l-0.2,1.2l1.2,1.2l0.3,1.8l1.2,0.8l0.3,1.4l-0.2,0.8l0.7,2.3
		l0.3,0.8l-1.5,2.2l-1.7,2.2l-0.2,2.2l0.3,2.5l0.8,1l0.8,0.8c0,0,0.3,0.3,1.3,0c1-0.3,2-1.3,2-1.3l0.8-0.8c0,0,0.3-0.3,1-0.3
		s1.3,0.2,1.3,0.2l2,0.8c0,0,0.7,0.2,1.2,0c0.5-0.2,0.8-0.5,1.3-0.7s1.8-0.5,1.8-0.5s1.2-0.5,1.7-0.5s0.2,0,0.2,0l2.2,1
		c0,0,0.7,0,1.3,0.5s1,1.8,1.5,1.8s1.5,0.7,1.5,0.7h3.5h2l0.5-3.5v-2l0.9-0.7l1.1,1.7v2l0.8,1.2l0.9-0.9l2.7,1.2l1.7,2v4.5l1.2,0.8
		l1.8,1.2v-2v-2v-3l0.5-2.7l1.2,1.9l0.8,1.3h1l1-1.1l1.8,0.4l0.7-0.8v-1l2.7-0.5l2.2,1.7l1.7,0.8l0.5-1.3V314v-1l0.8-2.2l1.5,1.5
		l-0.3,1.7v2v1l-1,1.7l1.8-0.2l2-1l2.8-2.2l1-1.1l0.3-1.3v-2l-0.3-0.7l-1.3-1.5l-1.3-0.8v-2l0-3.2l-0.1-3.3h0.7l1.5,2.3v3.2l1.5,1.5
		h2h2h3h1.5V303l-2-0.5V297v-3l1-3.6l0.4-4.1l0.6-2.5V281l1-3.5V276l-0.3-1.7l-1.6-2.2l-0.1-3.2l0.1-2.7l2.3-2.2l0.7-2l1.7-2.9
		l1.2-1.1V255v-2l-0.7-2.7l-0.3-2.7l-1.8-3.2l-1.2-2.2l0.5-2.8l-0.5-0.8l0.7-2.2h3.8l1.3,1h1.7l2.2-1l1.2-1.3l1.3-1.5l0.8-1.2h3.5h1
		l3-3.5l1.3-2.4l1.8-2.7l1.2-0.8l2-1.7l2.2-2.5l-0.5-2.5l-2.7-0.8l-2.2-1.2l-1.2-2l-2.7,0.3l-2.7,0.7l-2.1-2.3l-0.6-0.9l-1.5-2.3
		l-0.8-0.3l-2-0.5l-2,0.3l-2.2,2.3l-3.8,1.8l-3,0.5l-3.3,0.2l-4,0.2l-3.3-1.2l-2.8-3.2l-2.6-0.7l-2.6-1.9l-1.5-1.3l-6.5-2.7
		l-0.2-1.8l-1.1-3.6l-0.2-2.3V189l-1.2-1.7l-2.5-3.5l-2.3-2.8l-2.3-3.5l-2-0.5l-1.7-0.5l-2-1.5v-2v-3l3.8-0.3l2.7-2.2l1.5-1.5
		l1.2-2.5l0.2-3.2l-0.2-1.3l-1.2-1v-2L268,154.5z"/>
</g>
<g id="_x31_7">
	<path fill="none" stroke="#000000" stroke-miterlimit="10" d="M124.9,225.4l-4.9-0.9h-2l-3.2-0.5l-3.2-1v-2l-2.5,1.8
		c0,0,0.7,0.9,0,1.8s0,2.5,0,2.5l-0.3,2l-1.7,2.3l-1.3,2.7l-1.7,2l-1.8,2.5l-3.8,1v5H96l-1-1l-2.5,1h-3v1.5c0,0-1.3-0.7-2,0.2
		c-0.7,0.8-0.8,2.3-0.8,2.3H84h-3h-2h-3h-1l-1.5,2.2v1.3l-1.7,0.8l-1.3,1.4l-0.8,1.2H68l-1-2.5l-2.2,0.2l-0.7,2.3H62l-2,1h-2l-3,1.3
		l-1.7,2.8l-2.2,0.7l-2.3,2.5l-2,2.2l-2.7,1.7l-1,1.8l-1.9,1.7l-1.8,2v1.8l-2,2.3v1.7v2.5H39l0.5,1.5v3l0.2,1.5H38l-0.5,2.5
		c0,0,1.2,1,0,1s-2.9,1.5-2.9,1.5l-2.1,1v1.5l-2,2.3v0.7v1l1.5,1.5h3l2.3,1H40h1l2.5,1H45h2h1l3-0.8l1.5-1.2H54l1.5,0.3l2-0.3
		l1.3-0.9c0,0,1,0.9,1.5,0.9s1.7,0,1.7,0l1.2-1.8l1.5-0.8l1.7,0.3l2.8,0.3l1.5,0.2l1.3,0.8l1.2,1.6l1-1.5H76c0,0,1.7,0.1,2.2,0
		c0.5-0.1,0.8-0.4,1.5,0c0.7,0.4,2.2,0.5,2.5,1.4c0.3,0.8,0.8,1.7,0.8,2.7s0,2-0.2,2.7c-0.2,0.7-0.8,2.2-0.8,2.7s-0.5,1.8-0.7,2.5
		c-0.2,0.7-0.8,2.2-0.8,2.2v3H82c0,0,0.8,0.8,1.1,1.7c0.3,0.8,1.4,2.3,1.4,3c0,0.7,0,2.5,0,2.8s0.2,1.8,0.2,1.8l0.3,1.7
		c0,0,0.3,0.8,0.5,2s0.8,2.2,0.8,2.2s0.8-0.7,1,0c0.2,0.7,0.2,3,0.2,3l-1.3,1.3c0,0-0.3,0.8-0.3,1.3s0.2,0.8,0.3,1.7
		c0.2,0.8,0.7,1.5,0.7,1.5l0.3,2c0,0,0.2,0.5,0.2,1.3c0,0.8-0.2,1.3,0,1.8c0.2,0.5,0.2,1.3,0.2,1.3l1.3,2l1,1.5l1.2,1.2l0.7,1
		c0,0,0,2.3-0.2,3.2c-0.2,0.8-0.7,2.3-1.5,2.8s-1,1.5-1.2,2c-0.2,0.5-0.5,1.2-0.5,1.7s-1.2,1.5-1.2,1.5l-0.5,1.7l-0.7,2.3l-0.8,3.7
		l-1,2.2c0,0-0.7,0.7-0.7,1.7s0,2.7,0,2.7l-0.3,2.5H81h-3l-0.8,1l-0.9,2l-0.8,1L74,386l-0.8,1.2l-2.2,2c0,0-0.7,1-0.7,1.5
		s-1.2,2.8-1.2,2.8l-1.3,1.3l-2.2,3.2l-0.6,1.2l-1.6,2.3v2.5l1,1.7v2.3c0,0-0.3,0.7-0.3,1.5s0.2,2.8,0.2,3.3s0.5,2.2,1,2.5
		c0.5,0.3-0.7-0.8,0.5,0.3c1.2,1.2,1.2,1.2,1.2,1.2l-0.7,2.5l0.3,3.2c0,0,1.2,1.5,1.2,2.2c0,0.7,0.3,1.5,0.5,2c0.2,0.5,1,2.7,1,2.7
		s0.3,1.2,0.3,2.2s0.2,3,0.2,3l0.8,0.7c0,0,1,2.5,1.3,3.2c0.3,0.7,0.8,2.7,0.8,2.7s-0.3,3,0.2,3.3c0.5,0.3,1.3,1.3,1.3,1.3l3.5,2.8
		l2,1l0.5,2.5l1.8,1.5l1.7,2.5l1.5,1.5H87h2c0,0,1.8,1.2,2,1.7s1.3,1.5,1.3,1.5l2.8,2l0.8,2.2l0.3,1.8l0.5,2l-0.3,2.3l-0.2,1.8
		l-0.7,0.8l1.7,1.2l0.2,1.7c0,0-1.3,0.5-1.3,1.3c0,0.8,0.3,2.8,0.3,2.8s0.5-0.3,1.2,0c0.7,0.3,2.5-1.2,2.5-1.2l1.7,0.3
		c0,0,0.7,1.3,1.2,1.7s1,1.3,1,1.3l2.2-0.8l1.5-1l0.8,1.5h1.5l1.7,0.2l1.5,0.8h0.8l1.5,1h1.5l1.5,1h3.5l2.5-0.8l1.8,2.8h2.7l0.8,1
		h4.2c0,0,1.2,0.1,1.8,0c0.7-0.2,2.5,0,2.5,0h2.7l1.8-1.8l1.5-0.3l1.8,1l1-1.3l2.2-2.3l1.7-1.8l2.2-1.3l2.2,0.3l3.3,0.2l3,1.5
		l1.5,2.2l2.7,0.3c0,0,1.2,0,1.3,0.5c0.2,0.5,1.2,1.8,1.2,1.8l1.7,0.2h2l1.5,0.2V486l-1-1.3V483l-2,0.2l-2.2-0.5l-1.8-0.7l-1.8-2.3
		l-0.3-1.2l1-1.3l-0.7-2.3l-1-1.3l0.5-2.5l0.3-2.2l1.2-1.7l-0.5-1.7l-2-2.2l-1.2-1.5l-1-1.5l-0.3-1.7l1-1.7l0.7-2.3l0.2-1.5
		l-0.2-1.8l-0.7-2.2l0.3-2.7l0.5-3l0.7-2.5l0.7-1.3l0.8-1.7c0,0-1.2-3-1.2-3.5s0-3.5,0-3.5l-0.5-2.7l0.8-3.7l0.3-3.2
		c0,0,1.3-1.7,1.8-1.8c0.5-0.2,1.8-2.7,1.8-2.7s-0.5-0.5,1.2-0.8c1.7-0.3,3-0.3,3-0.3l1.5-2.5l3.5-1.8l4.2-3.8l2.5-1.7l4-1.7
		l3.7-3.5l2.7-1.7l4.2-2.5l1.8-3.2l3.7-2.3l5.5-2.8l3.8-2.3l4.7-1.5l2.8-1l-1-1.5v-3v-2l0.8-2l0.8-4l0.5-2.5l0.3-2.7l-0.5-1.5
		l-0.3-1.8h-1l-2.3-2.2l0.8-0.8h3.5l0.5-1.2l1.3-2.3l1.2-1l1.5-0.8l1-0.2v-4l-1.2-0.7l-2.2-1l-0.9-1.5l-0.6-0.9v-3l1-1v-3l1-2.5
		l0.5-1h2h2l1-1h2l1.8-1l2.8-0.2l2.8,0.2l1.2-1.5l1.2-1l0.7-2v-3v-3l2.8-0.5l3-0.3l3.7-0.7l2.7,0.3l-1.2-3.8v-1l-1.5-1.2l-1.5-1.8
		l-1.3-0.5l-2.3-1l-1.7,0.5l-1.8,0.5l-2.5,0.7l-2-0.8l-1.3-0.2l-1.8,1.2l-2,1.3l-2.2-0.8l-0.9-1.7l-0.2-1.8l0.2-2.2l1.7-2.2l1.5-2.2
		l-1-3.2l-0.2-2.2l-1.2-0.8l-0.3-1.8l-1.2-1.2l0.2-1.2h-3l-1.7-2.8l-2.3-3.2l-0.7-2l-1-3l-0.8-2.6l-0.7-2.2l-0.7-1.8l-1.5-1.3l1.2-1
		l-0.3-1.5v-2l-0.3-2.3l-1.5-1.7l1-1.3l0.8-2.3l-0.8-1.2l-2.7-1.7h-2l-2.7-2.1l-1.7,0.3l-2.7,1.8l-2-1h-1l-1,4h-1l-1.2,1.2l-1.8,1.6
		l-3.2,0.2l-2.7,0.2l-1.8,1.1l-0.3,1.7h-1l-2.3-2.3l-1.5-1.8l-0.8-0.8H182h-1l-2.8-2.2l0.5-2.3l0.8-2.9V256l0.7-1.5l-1.3-3.2
		l-0.2-2.2l-1.2-2.7l-3,0.7l-1.8,0.3l-2.8-1.5l-0.8-3.8l-2.2-1.3l-2.3-0.7l-1.7,0.3l-1.2,1.8l-2,1.5l-2,1.5l-1.3,1.3l-2.3,1.8h-3
		l-1-2l-2.2-0.3l-1.8-0.7l-3-0.5l-1.3-3.5l-2-2l-2,0l-1.3-1.7l-2.5-2.5l-1.8-0.8l-3.2,0l-2.3-0.7l-0.5-3.5l-1-2L124.9,225.4z"/>
</g>
<g id="_x31_8">
	<g>
		<polygon fill="none" stroke="#000000" stroke-miterlimit="10" points="444.1,148.1 448.6,149.1 455.5,154.2 465.7,162.1 
			468,164.5 468.8,165.8 467.5,167.8 466.7,172.7 460.3,178.8 459.8,184 456.5,186.7 453.2,185.9 451,186.5 449,186.5 447.2,188.2 
			444.2,185.8 441.5,184.3 439.7,186.2 437,182.8 434.2,183.2 430.3,182.7 427.5,182 423.3,181.8 421.2,180.3 418,179.8 414.6,172 
			411.5,170.2 411.5,168 408.2,168.2 400.7,164.8 395.7,163.5 393,163.5 395.7,161.8 397.8,160.8 405.2,158.5 408.2,158.8 
			409,156.3 413.2,154.8 414.2,156 414.7,157.2 417.2,156.8 417.5,154.2 419,152.5 421.8,152 423.8,151.3 427.5,151 429,151.2 
			430.9,153.8 432.7,151.5 434,151.7 435.7,150.7 438.3,152 439,148.1 439.5,147.2 		"/>
	</g>
</g>
<g id="captions">
	<g>
		<g>
			<path d="M452.1,333.5v-8h0l-1.5,0.9l-0.2-0.7l1.9-1h0.9v9H452.1z"/>
		</g>
		<g>
			<path d="M428.7,308h-5.3v-0.6l0.9-0.9c2.1-2.2,3.2-3.5,3.2-4.9c0-1-0.4-1.8-1.7-1.8c-0.7,0-1.4,0.4-1.8,0.7l-0.3-0.7
				c0.6-0.5,1.4-0.9,2.3-0.9c1.8,0,2.5,1.3,2.5,2.6c0,1.7-1.2,3.1-3,5l-0.7,0.7v0h4V308z"/>
		</g>
		<g>
			<path d="M472.6,229.8c1.1,0.2,2,1,2,2.3c0,1.4-1,2.7-3,2.7c-0.9,0-1.7-0.3-2.1-0.6l0.3-0.8c0.3,0.2,1,0.5,1.8,0.5
				c1.5,0,2-1.1,2-1.9c0-1.3-1.1-1.9-2.3-1.9h-0.6v-0.7h0.6c0.9,0,2-0.5,2-1.7c0-0.8-0.5-1.5-1.5-1.5c-0.7,0-1.3,0.3-1.6,0.6
				l-0.3-0.7c0.4-0.3,1.3-0.7,2.1-0.7c1.6,0,2.4,1,2.4,2.1C474.2,228.6,473.6,229.4,472.6,229.8L472.6,229.8z"/>
		</g>
		<g>
			<path d="M409.4,350h-0.9v-2.5h-3.9v-0.6l3.8-5.8h1v5.7h1.2v0.8h-1.2V350z M405.6,346.7h2.9v-3.2c0-0.5,0-1,0-1.4h0
				c-0.3,0.6-0.5,0.9-0.7,1.3L405.6,346.7L405.6,346.7z"/>
		</g>
		<g>
			<path d="M389.6,284v0.8h-3.2l-0.4,2.5c0.2,0,0.4,0,0.7,0c1.6,0,3,0.9,3,2.8c0,1.8-1.3,3-3.1,3c-0.9,0-1.7-0.3-2.1-0.5l0.3-0.8
				c0.3,0.2,1,0.5,1.8,0.5c1.1,0,2.1-0.8,2.1-2.1c0-1.2-0.8-2.1-2.5-2.1c-0.5,0-0.9,0-1.2,0.1l0.6-4.2H389.6z"/>
		</g>
		<g>
			<path d="M405.8,251.7c0.4-0.6,1.1-1.1,2.1-1.1c1.5,0,2.5,1.1,2.5,2.9c0,1.6-1,3.1-2.8,3.1s-2.9-1.5-2.9-3.8c0-2.4,1.1-4.9,4-5.4
				c0.3,0,0.6-0.1,0.8-0.1l0,0.8C407.2,248.2,406,250,405.8,251.7L405.8,251.7z M409.5,253.6c0-1.4-0.7-2.2-1.8-2.2
				c-1.1,0-1.9,1-1.9,1.7c0,1.6,0.7,2.8,2,2.8C408.8,255.9,409.5,254.9,409.5,253.6z"/>
		</g>
		<g>
			<path d="M435.4,202h5.3v0.6l-3.8,8.3h-1l3.8-8.1v0h-4.2V202z"/>
		</g>
		<g>
			<path d="M388.8,204.4c-1-0.5-1.4-1.3-1.4-2c0-1.4,1.1-2.3,2.5-2.3c1.6,0,2.4,1.1,2.4,2.2c0,0.8-0.4,1.6-1.5,2.1v0
				c1.1,0.5,1.8,1.3,1.8,2.4c0,1.5-1.2,2.6-2.8,2.6c-1.7,0-2.8-1.1-2.8-2.4C387,205.8,387.7,204.9,388.8,204.4L388.8,204.4z
				 M391.6,206.9c0-1.1-0.8-1.7-1.9-2.1c-1.1,0.3-1.6,1.1-1.6,2c0,1,0.7,1.8,1.8,1.8C390.9,208.6,391.6,207.8,391.6,206.9z
				 M388.3,202.3c0,1,0.7,1.5,1.7,1.8c0.8-0.3,1.4-0.9,1.4-1.8c0-0.8-0.4-1.5-1.5-1.5C388.8,200.8,388.3,201.5,388.3,202.3z"/>
		</g>
		<g>
			<path d="M394.9,150.3c-0.5,0.6-1.2,1-2.1,1c-1.5,0-2.5-1.2-2.5-2.7c0-1.6,1.1-3.2,2.8-3.2c1.7,0,2.7,1.5,2.7,3.8
				c0,3-1.5,5.1-3.8,5.4c-0.4,0.1-0.8,0.1-1.1,0.1v-0.8c0.3,0,0.5,0,0.9-0.1C393.5,153.5,394.6,152.3,394.9,150.3L394.9,150.3z
				 M391.3,148.5c0,1.2,0.7,2,1.7,2c1,0,1.9-0.7,1.9-1.5c0-1.7-0.6-2.9-1.8-2.9C392,146.1,391.3,147.1,391.3,148.5z"/>
		</g>
		<g>
			<path d="M500.5,219v-8h0l-1.5,0.9l-0.2-0.7l1.9-1h0.9v9H500.5z"/>
			<path d="M504.4,214.5c0-3.1,1.2-4.7,2.9-4.7c1.7,0,2.7,1.6,2.7,4.5c0,3.1-1.1,4.7-2.9,4.7C505.6,219.1,504.4,217.5,504.4,214.5z
				 M509.1,214.5c0-2.2-0.5-3.8-1.8-3.8c-1.1,0-1.8,1.4-1.8,3.8c0,2.4,0.7,3.9,1.8,3.9C508.6,218.3,509.1,216.6,509.1,214.5z"/>
		</g>
		<g>
			<path d="M467.1,426.1v-8h0l-1.5,0.9l-0.2-0.7l1.9-1h0.9v9H467.1z"/>
			<path d="M473.7,426.1v-8h0l-1.5,0.9l-0.2-0.7l1.9-1h0.9v9H473.7z"/>
		</g>
		<g>
			<path d="M356.1,345v-8h0l-1.5,0.9l-0.2-0.7l1.9-1h0.9v9H356.1z"/>
			<path d="M365.5,345h-5.3v-0.6l0.9-0.9c2.1-2.2,3.2-3.5,3.2-4.9c0-1-0.4-1.8-1.7-1.8c-0.7,0-1.4,0.4-1.8,0.7l-0.3-0.7
				c0.6-0.5,1.4-0.9,2.3-0.9c1.8,0,2.5,1.3,2.5,2.6c0,1.7-1.2,3.1-3,5l-0.7,0.7v0h4V345z"/>
		</g>
		<g>
			<path d="M332.6,264.5v-8h0l-1.5,0.9l-0.2-0.7l1.9-1h0.9v9H332.6z"/>
			<path d="M339.9,259.6c1.1,0.2,2,1,2,2.3c0,1.4-1,2.7-3,2.7c-0.9,0-1.7-0.3-2.1-0.6l0.3-0.8c0.3,0.2,1,0.5,1.8,0.5
				c1.5,0,2-1.1,2-1.9c0-1.3-1.1-1.9-2.3-1.9h-0.6v-0.7h0.6c0.9,0,2-0.5,2-1.7c0-0.8-0.5-1.5-1.5-1.5c-0.7,0-1.3,0.3-1.6,0.6
				L337,256c0.4-0.3,1.3-0.7,2.1-0.7c1.6,0,2.4,1,2.4,2.1C341.5,258.4,340.9,259.2,339.9,259.6L339.9,259.6z"/>
		</g>
		<g>
			<path d="M294.1,189.8v-8h0l-1.5,0.9l-0.2-0.7l1.9-1h0.9v9H294.1z"/>
			<path d="M302.7,189.8h-0.9v-2.5h-3.9v-0.6l3.8-5.8h1v5.7h1.2v0.8h-1.2V189.8z M298.9,186.5h2.9v-3.2c0-0.5,0-1,0-1.4h0
				c-0.3,0.6-0.5,0.9-0.7,1.3L298.9,186.5L298.9,186.5z"/>
		</g>
		<g>
			<path d="M270.1,350v-8h0l-1.5,0.9l-0.2-0.7l1.9-1h0.9v9H270.1z"/>
			<path d="M279.2,341v0.8H276l-0.4,2.5c0.2,0,0.4,0,0.7,0c1.6,0,3,0.9,3,2.8c0,1.8-1.3,3-3.1,3c-0.9,0-1.7-0.3-2.1-0.5l0.3-0.8
				c0.3,0.2,1,0.5,1.8,0.5c1.1,0,2.1-0.8,2.1-2.1c0-1.2-0.8-2.1-2.5-2.1c-0.5,0-0.9,0-1.2,0.1l0.6-4.2H279.2z"/>
		</g>
		<g>
			<path d="M224.1,219v-8h0l-1.5,0.9l-0.2-0.7l1.9-1h0.9v9H224.1z"/>
			<path d="M229.1,214.2c0.4-0.6,1.1-1.1,2.1-1.1c1.5,0,2.5,1.1,2.5,2.9c0,1.6-1,3.1-2.8,3.1s-2.9-1.5-2.9-3.8c0-2.4,1.1-4.9,4-5.4
				c0.3,0,0.6-0.1,0.8-0.1l0,0.8C230.5,210.7,229.3,212.5,229.1,214.2L229.1,214.2z M232.8,216.1c0-1.4-0.7-2.2-1.8-2.2
				c-1.1,0-1.9,1-1.9,1.7c0,1.6,0.7,2.8,2,2.8C232.1,218.4,232.8,217.4,232.8,216.1z"/>
		</g>
		<g>
			<path d="M126.6,353.6v-8h0l-1.5,0.9l-0.2-0.7l1.9-1h0.9v9H126.6z"/>
			<path d="M130.9,344.6h5.3v0.6l-3.8,8.3h-1l3.8-8.1v0h-4.2V344.6z"/>
		</g>
		<g>
			<path d="M437.7,170.8v-8h0l-1.5,0.9l-0.2-0.7l1.9-1h0.9v9H437.7z"/>
			<path d="M443.5,166.1c-1-0.5-1.4-1.3-1.4-2c0-1.4,1.1-2.3,2.5-2.3c1.6,0,2.4,1.1,2.4,2.2c0,0.8-0.4,1.6-1.5,2.1v0
				c1.1,0.5,1.8,1.3,1.8,2.4c0,1.5-1.2,2.6-2.8,2.6c-1.7,0-2.8-1.1-2.8-2.4C441.8,167.4,442.4,166.6,443.5,166.1L443.5,166.1z
				 M446.3,168.5c0-1.1-0.8-1.7-1.9-2.1c-1.1,0.3-1.6,1.1-1.6,2c0,1,0.7,1.8,1.8,1.8C445.7,170.2,446.3,169.5,446.3,168.5z
				 M443,163.9c0,1,0.7,1.5,1.7,1.8c0.8-0.3,1.4-0.9,1.4-1.8c0-0.8-0.4-1.5-1.5-1.5C443.6,162.4,443,163.2,443,163.9z"/>
		</g>
	</g>
</g>
</svg>
