<?xml version="1.0" encoding="utf-8"?>
<!-- Generator: Adobe Illustrator 18.1.0, SVG Export Plug-In . SVG Version: 6.00 Build 0)  -->
<!DOCTYPE svg PUBLIC "-//W3C//DTD SVG 1.1//EN" "http://www.w3.org/Graphics/SVG/1.1/DTD/svg11.dtd">
<svg version="1.1" xmlns="http://www.w3.org/2000/svg" xmlns:xlink="http://www.w3.org/1999/xlink" x="0px" y="0px"
	 viewBox="0 0 441 411" enable-background="new 0 0 441 411" xml:space="preserve">
<g id="Base">
</g>
<g id="_x31_">
	<polygon fill="none" stroke="#000000" stroke-miterlimit="10" points="339.3,225.6 340.4,225.9 342,224 343.9,224.8 342.7,226.8 
		343.1,227.9 347.1,229.4 348.8,227.4 349.8,227.7 351.2,228.3 352.7,228 353.4,228.9 348.7,230.8 350.4,232.3 354.3,229 
		355.8,229.7 354.5,232.3 354.3,233.6 356.4,231.3 357.2,231 358.3,232.2 355.7,235.9 356.5,236.6 359.5,232.3 360.9,232.7 
		361.4,234.5 360,242 359.2,243.1 357.2,241.6 356.3,243.1 359.6,245.8 359.5,248.5 360.7,248.5 362.5,247.8 362.5,249.7 
		362.5,251.3 362.5,252.8 363.6,253.8 362.6,256.2 360.8,255.2 361.4,253 360.9,251.3 358.8,253.8 357.2,251.1 358.3,249.3 
		353.9,252.9 351.8,252.3 348.8,249.5 347,248.5 345.5,248.5 343.7,248.6 341.8,248.5 340.2,248.5 338.2,250.1 336.8,249.5 
		335.8,249 336.6,252.1 339,251.6 342,251 343.5,252.3 343.5,253.5 343.2,254.3 340.9,254.5 337.7,254.5 335.8,254.5 334.8,254.5 
		333.5,256.2 333.5,258.1 334.3,259.3 336,258.6 338.4,258.1 339,260.5 335.1,262.5 336.5,263.5 338.6,263.5 340.9,263.5 
		344.3,259.9 346.6,261 346.9,262.4 342.6,266.3 343.7,267.4 344.7,268.3 346.4,267.3 347.5,270.9 347.5,271.8 345.3,272.3 
		344.5,274.5 344.6,276.2 345.5,277.6 346.3,278.9 346.8,280.2 346.9,283.8 346.4,284.8 344.3,286.7 340.9,284.4 339,287.5 
		337.9,287.5 336.2,289 337.6,291.2 338,293.2 339,294.1 340,294.9 338.2,297 336.6,296.1 335.3,297.5 333.7,299.8 332.9,300.7 
		331.4,301.5 329.5,301.5 328.7,301.5 326.6,303.5 325,301.5 322.7,301.2 320.8,300.7 319.3,299.3 320.1,297.5 320.5,296 
		317.7,294.5 318.1,291.7 317.5,290.4 317.5,289.4 318.1,287.7 318.2,285.9 317.5,284.8 317.5,284 318.5,282.5 319.1,281 
		319.3,280.1 318.8,278.9 318.2,278.4 320.1,277.2 319.8,276.3 319.8,274.9 321.6,273.5 322.2,272.5 321.9,270.4 320.6,268.8 
		319.2,266.6 320.3,264.3 322.4,263.1 324.1,263.8 325.9,262.1 324.1,260.4 324.9,258.1 324.1,256.5 322.4,254.7 323,253.4 
		325.3,252.8 326.4,252 325.5,250.5 325.5,246.7 326.3,243.9 328.9,241.9 331.8,239.5 337.9,239.5 339.9,238.6 341,237 338.5,234.5 
		338.5,233 339.1,231.1 339.5,229.8 339,227.6 	"/>
</g>
<g id="_x32_">
	<path fill="none" stroke="#000000" stroke-miterlimit="10" d="M339.5,219.5l-3,3.6l2,1.8v2.7l0.9,2.2l-0.9,3.4v1.3l0.6,1l1.8,1.7
		l-1,1.4l-2.3,0.9h-5.8l-2.9,2.4l-2.6,1.8l-0.8,2.8v3.9l0.9,1.5l-1.1,0.8l-2.3,0.6l-0.6,1.3l1.8,1.8l0.8,1.7l-0.8,2.3l1.8,1.7
		l-1.8,1.8l-1.8-0.8l-2,1.3l-1.1,2.3l1.4,2.2l1.3,1.7l0.4,2l-1.3,2l-1.8,0.6l-1.5-0.4l-2.5-0.5l-1.1-1.8l-2.9-0.3l-1.4-1.6h-1.5
		l-2.3-1l1-1.4c0,0,0.1-0.6-0.3-0.6c-0.4,0-2.1,0-2.1,0V265l-1.9-1.8l2.1-2.7l1.1-2.4l-1.1-2.2l-1.5-1.3l0.6-3.3l-1.3-1.4v-1.8
		l1.1-1.8l1.1-0.2l0.1-1.7h1.8l1.3,0.8l0.9,0.6l1-1.7l1.4-0.9l1.4-0.8l-1-2.2v-2.8l2.1-0.3l1.4,0.3l0.6-2l0.4-1.4l2.8-1.9l1.7,0.5
		l1.7,0.9l1.1,0.9l1.5-0.8l1-1.7l-0.5-1.4l-0.6-1.8l0.8-2.2l0.9-2.9l-0.4-2.1l-0.4-2.6l0.1-1.5l1-0.9l1.7-0.9l2.4,0.5l0.8,1l2.2,0.6
		l1.8,1.7l1.4-1.5L339.5,219.5z"/>
</g>
<g id="_x33_">
	<g>
		<polygon fill="none" stroke="#000000" stroke-miterlimit="10" points="349.5,179.4 354.1,181.1 358.6,177.7 361.5,178.6 
			361.6,183 362.5,185.8 362.6,189.5 364.6,190.1 367.2,199.2 369.6,199 373.8,205.9 367.5,208.6 365.3,204.5 363.8,204.5 
			362.6,205.2 365.1,209.7 362.4,211.5 361.5,211.5 358.5,205.3 360,214.7 357.8,216 354.6,217.5 353.1,217.5 353.2,215.5 
			355.9,214.2 356.2,211.5 354.6,211.5 353.4,212.1 349.8,212.5 347,212.5 344.6,212.4 343.2,213.1 346.3,215.3 346.1,217.3 
			347.6,218.8 346.9,219.6 343.2,216.9 339.4,219.6 337.9,219 336.8,218.1 335.5,219.6 333.7,218 331.5,217.3 330.8,216.3 
			329.1,215.4 326.7,216.7 326,217.6 324.5,217.2 324.5,215.4 324.8,214 323.5,212 323.5,210.1 321.6,210.5 319.6,210.5 318.7,211 
			317.2,212 316.3,213.5 315.5,215.2 314.6,213.8 313.5,212 313.5,208.6 312.2,207.5 310.1,205.1 307.9,202.3 311.3,198.1 
			313,197.5 314.7,198.5 316.6,198.5 318,198.5 318.4,199.5 322.1,200.6 325,201.3 327,199.3 328.5,200 328.5,201.7 327.5,203 
			328.4,203.6 331,203 331.9,204.4 333.9,205.1 334.8,205.9 337.1,204.1 339.1,204 340.5,203.6 340.5,200.2 341.5,197.5 
			341.5,196.4 340.4,195 340.6,191.5 343.5,190 343.5,188 344.3,187.6 345.7,185.6 345.1,182.8 345.5,181 		"/>
		<polygon fill="none" stroke="#000000" stroke-miterlimit="10" points="374.6,207.5 378.1,212.8 372.3,215.8 369.4,211.6 		"/>
		<polygon fill="none" stroke="#000000" stroke-miterlimit="10" points="363.3,215.8 357.2,218.1 357.9,220.9 361.6,219.6 
			364.5,218.3 		"/>
		<polygon fill="none" stroke="#000000" stroke-miterlimit="10" points="358.3,222 359.3,223.8 364.5,222 363.9,219.6 		"/>
	</g>
</g>
<g id="_x34_">
	<path fill="none" stroke="#000000" stroke-miterlimit="10" d="M277.2,279.2l0.4-0.7h2.3l0.5,2.2l0.6,1.1l0.8,0.7h0.7v3.1
		c1,0.6,3,0.8,3,0.8v1.5l-1.1,1.8l-3.1,1.4l-1.4,0.4h-0.8l-0.8,2.4l-1.1,1.2c0,0-0.9,0.4-0.8,0.8c0.1,0.4,0.1,1.8,0.1,1.8v1.5
		l-0.1,1.5l-1.1,0.9l-1.4,0.6l-1.5,1.7v1.4l1.5,1.1h1.4h2.3h3.8l1.9,0.8l2.5,1.2h1.7h2.3h1.7v-0.1l1.1-2l0.5-1l0.8,0.1h1.3l2.3,0
		l1.4,0.9l1.8,1.3l0.8,2v1l-1.2,1.1l1.3,0.7h0.4h1.5v2h1.6l2.3-0.8l1.1-0.3c0,0,0.8,0.5,0.9,0.8c0.1,0.4,0,1.4,0,1.4l1.1,1.4l-2,1
		l-0.6,1.3l1.4,1.8l0.1,1.7l-0.1,1.9l-0.3,1.5l-0.5,0.9l-0.4,1l0.8,0.6h1.5l0.1,0.9v1.9l0.9,1l1.2,1.2h0.9l-0.9,1l-0.9,1h1l1.9-0.4
		l1.4-1l1.7,0l2.8,0.1l2.4-0.6l1.1-1l1.4,0h2.5l2.8-1.9l2,1.5l0.6,1.4l1.5,0.6l0.9-1l1.4-1.6h1.4l2-0.7l-0.1-2.6l-0.6-1.8l0.8-1.3
		l1.3-0.5l-1.3-1l-1.9,0.1l-3.2-1.9l-1.3-0.9l-1.3-0.5l-0.8-1.5l0.9-1.8l-0.3-5l-1.5-1.4l-0.4-2.2l-1.3-1.1l-1.4-0.9l0.4-1.7
		l-2.2-1.7l-1.5-1.9l-2.3-0.3l-1.9-0.5l-1.5-1.4l1.1-3.3l-2.8-1.5l0.4-2.8l-0.6-1.3v-1l0.6-1.7l0.1-1.8l-0.7-1.1V284l1-1.5l0.7-1.5
		l0.1-0.9l-0.5-1.1l-0.6-0.5l1.9-1.3l-0.2-2.3l-2.2-0.2l-2.5-0.5l-1.1-1.8l-2.9-0.3l-1.4-1.6h-1.5l-2.3-1l1-1.4l-0.3-0.6h-3l0.4-2.2
		l-1.2-1.5l-2.3,1l-0.9,2.1l-3.4,0.5l-2.7-1.6l-0.8-0.2v3.2l-1.1-0.1l-1.5-1.2h-1.5l-1.4-1.2l-0.6,1.1l1.5,1.6l0.6,1.5H286l0.5,2.4
		l0.5,1.8l0.4,2.8H286l-2.2-2l-2.3-1.4l-1-0.6l-1.4-1.2l-0.9,2.9l-1.3,0.8l-1.5,0.9v1.9L277.2,279.2z"/>
</g>
<g id="_x35_">
	<path fill="none" stroke="#000000" stroke-miterlimit="10" d="M271.8,198.3"/>
	<path fill="none" stroke="#000000" stroke-miterlimit="10" d="M273.5,200l-1,6.3v1.5l1.6,0.4l1.7,1.1l0.9,0.6l0.8,1.1l1.8,0.5
		l0.6,1l-1.5,1.9l0.3,1.3l1.8,1.3l0.4,1.3l-0.1,2.5l0.6,1.5l1.4,1.5l-1.1,1.2l-0.5,1.5l1.1,3l1.1,0.4l0.6-1.4l0.9-1l1.5-0.4l2,1.3
		l1.4-0.6l1.3,0.3l1,0.1l1.3,1l0.9,1.8l1,0.4l1.8-0.9l1.4-0.5l0.6-1.4l1.8,0.5l1.1,1.2h1.5l1.1,1.4l-0.8,2.6l1.2,1h1.5l1.3-0.4
		l2-0.5l0.9,0.5l0.4,2.8l0.4,2.4l1,2.2l-1.4,0.8l-1.4,0.9l-1,1.9l-2.2-1.5h-1.5l-0.4,1.7l-1.1,0.3l-1.1,1.7v1.5l1.3,1.7l-0.6,3.3
		l1.5,1.3l1,2.2l-1.1,2.4l-2.3,2.7l-1.9,1.8l-0.9,2.5h-1.3l-2.2,0.2l-1.8-1.6l-1.7-0.5v1.9h-1.1h-1.5h-1.5l-1.4-1.2l-0.6,1.1
		l1.5,1.6l0.6,1.5h-1.7H286l0.5,2.4l0.5,1.4l0.3,1.7l0.1,1.5H286l-2.2-2l-1.7-1.1l-1.7-1l-1.4-1.2l-0.6,1.4l-0.3,1.5l-1.3,0.8
		l-1.5,0.9v0.7h-0.9l-1.6-0.4l-0.5-0.5v-1.8l0.5-2.2l0.5-1.8l1.1-1.1l1.2-1l-0.1-2l-1-0.6l-1.1-1.4l-1.1-0.3v-1l-0.4-1.7l-1.7-0.5
		l-1-1.1l-1.9-1v-1v-1.5c0,0,0.2-1.1,0.3-1.5c0.1-0.4-0.3-1.4-0.3-1.4V252l0.4-1.7c0,0-0.3-1,0-1.9c0.3-0.9,0.1-1.3,0.2-1.9
		c0.1-0.6,0.2-1.1,0.2-1.1l-1.4-1.7l-1.5-1.1v-0.5v-1.5c0,0-0.2-1.8,0.2-2c0.4-0.3,0.5-2.4,0.5-2.4l0.3-1.1l0.8-2.4l1-1.5l0.8-1.5
		l0.3-1.3l-0.9-1.8l-1-2.5l-1.9-3.1v-2.4l1.1-2.7l-2-2.3l0.7-2.7l-0.7-2.8l0.9-1.4l-0.9-3.7l-1.6-0.5l-0.9-0.9h1l1-1.5l1.3-1.3
		l2.3,1l1.8-1l2-0.5l1.3,1.3L273.5,200z"/>
</g>
<g id="_x36_">
	<path fill="none" stroke="#000000" stroke-miterlimit="10" d="M272.8,199.5l1-1.9l1.6-1.2l0.9-0.1l0.8-1.4l1.9,0.5l1.5,0.9v2.4
		l1.6,0.5l0.7,0.2l1.5,1.3l1.9-0.9l1.4-0.1l2.3-1.5l1.9,0.9l1.1,1.7l3.2-0.4l1.1,1.2h2.5l0.8,1h2.3l1.7,1.5v3l0.9-0.4l2.7-4.3
		l2.1,2.8l2.1,2.4l1.3,1.1v3l2.2,3.6l0.7-1.7l0.8-1.5l2.4-1.5h2.3l1.6-0.4v1.5l1.3,2.4l-0.3,1.4v1.5l1.5,0.6l-0.3,1.5l0.3,2.6
		l0.3,2.1l-0.9,2.9l-0.8,2.2l0.6,1.8l0.5,1.4l-1,1.7l-1.5,0.8l-1.1-0.9l-1.7-0.9l-1.7-0.5l-2.8,2.4l-1,3.9h-3.8l-0.4-3.1l-0.9-0.7
		l-2,0.4l-1.5,0.3h-1.3l-0.8-0.8l1.2-1.6v-0.9l-2.3-1.7H302l-1.1-1.2l-1.8-0.6l-0.6,1.5l-1.4,0.5l-1.8,0.9l-1-0.4l-0.9-1.8l-1.3-1
		l-1-0.1l-1.3-0.3l-1.4,0.6l-1.1-0.9l-0.9-0.4l-1.5,0.4l-0.9,1l-0.6,1.4l-1.1-0.4l-0.6-1.7l-0.5-1.4l0.5-1.5l1.1-1.2l-1.4-1.5
		l-0.6-1.5l0.1-2.5l-0.4-1.3l-1.8-1.3c0,0-0.5-0.8-0.3-1.3c0.3-0.5,1.5-1.9,1.5-1.9l-0.6-1l-1.8-0.5l-0.8-1.1l-0.9-0.6l-1.8-1.1
		l-1.6-0.7v-1.2v-3v-1.5L272.8,199.5z"/>
</g>
<g id="_x37_">
	<g>
		<polygon fill="none" stroke="#000000" stroke-miterlimit="10" points="308.8,161.6 307.7,164.3 308.7,165 306.9,166.8 
			307.7,169.3 306.6,172.9 305.3,172.2 302.5,174.9 302.5,178.1 301.8,177.7 302.8,179.2 301.9,180.2 301.2,179.8 298.5,182 
			300.9,190.8 305,196 309,195.7 311.4,195 311.9,192.9 313.9,193.1 315.8,193.9 317.5,193.3 317.5,195.6 316.6,198.5 318.5,198.5 
			318.5,199.4 322.1,200.6 325.1,201.3 327,199.3 328.5,200 328.5,201.7 327.5,203 328.4,203.6 331,203 331.9,204.4 333.9,205.1 
			334.8,205.9 337.1,204.1 339.1,204 340.5,203.6 340.5,200.2 341.5,197.5 341.5,196.4 340.4,195 340.6,191.5 343.5,190 
			343.5,187.5 344,187.5 345.5,185.5 345,182.7 345.5,181 349.3,179.2 348.5,177.7 349.8,171.2 346.5,168.5 340.7,168.5 
			338.5,166.9 338.5,165.9 338,166.4 335.6,165.9 334.1,166.5 332.5,166.5 331.1,167.6 328.8,165.8 326.8,164.6 325.4,166 
			323.4,163.5 321.2,163.7 320.2,163.6 318.3,163.3 316.1,162.8 313,162.7 311.3,161.6 309.5,161.2 		"/>
	</g>
</g>
<g id="_x38_">
	<g>
		<path fill="none" stroke="#000000" stroke-miterlimit="10" d="M265.9,161l-1.2,3l0.8,3.2l2.6-1l0.8,1.3l1.2,2l1.4,3.5l-1,3.4v1.5
			l1,1.4h0.9l-0.8,2.3l1.5,2.3l-1,2.7l-0.1,3l-1.1,1.9l-1.3,3.1l1.5,1.4l0.5,2l1.5,1.3l0.9-1.9l1.5-1.1l0.9-0.1l0.8-1.4l1.9,0.5
			l1.5,0.9v2.4l2.3,0.8l1.5,1.3l1.4-0.9l1.9-0.1l2.3-1.5l1.9,0.9l1.1,1.7l3.2-0.4l1.1,1.2h2.5l0.8,1h2.3l1.7,1.5v2.5h0.6l2.8-4.2
			l3.4-4.2l1.7-0.6l1.8,0.9l1.8-0.1l1-2.7v-2.3l-1.7,0.6l-2-0.9l-1.9-0.1l-0.5,2c0,0-2,0.8-2.4,0.8S305,196,305,196l-4.1-5.2
			l-2.4-8.8l2.7-2.2l0.8,0.4l0.9-1l-1-1.5l0.9-0.8l0.1-2l1.5-1.8l1.1-0.9l1.1,0.6l1.1-3.6l-0.9-2.5l1.9-1.9l-1-0.8l1.1-2.9l-2.4-5.4
			l-0.8-1l-1.3-0.9v-1.7l-2.8,0.2l-5.9-2.6l-4.6-1l0,0.8l0.3,1.4v1.8l0.3,1.2l-0.6,2.7l-2-0.6l1.6,3.2l-2.9,3.2l-1.4-0.4l-1.9,1.8
			l-2.4-3.6l-1.7,1.1l-1.9,0.5l-0.8,2.4l-1.7,0.1l-0.4,1.8l-1.9-0.1l-1.1-2.3l0.4-1.5l-1.8-0.9l-5.2-1L265.9,161z"/>
	</g>
</g>
<g id="_x39_">
	<g>
		<polygon fill="none" stroke="#000000" stroke-miterlimit="10" points="323.6,136 320.4,135.3 317.8,134.7 316.3,132.5 
			313.5,132.5 311.6,131.7 310.2,130.3 307.9,126.5 302,126.5 299.8,124.9 296.3,123.4 290.7,121.9 288.7,124.4 289.5,126.5 
			289.5,127.8 286.7,129 285.8,130.8 283.1,132.1 280.7,132.8 279.9,134.7 277.6,135.3 276.6,137.2 278,140 279.2,141.7 
			277.9,142.5 274.6,142.5 273.3,140.7 271.7,140.5 269.8,138.5 268.5,138.5 269.1,135.1 265.6,133.7 263.5,133.9 263.5,130.8 
			261.5,131.3 261.5,133.9 259.9,135.4 258,136.3 256.5,138.4 257.7,140.6 257.6,142.6 258.5,143.4 263.2,140.3 264.3,140.7 
			263.9,142.5 267.6,145.5 270,145.5 269.6,147.7 271.8,149.2 275.9,151.9 276.8,153.8 277,155.2 282.2,160 283.9,162.9 
			284.6,163.6 286.5,161.8 287.9,162.2 290.9,159 289.2,155.8 291.5,156 291.6,153.8 290.9,151.9 291,149.5 289.1,149.2 292.8,147 
			296.4,145.8 299,144.3 301.4,145.2 302.8,142.7 305.2,142.1 307,143.8 308.4,142.7 309.7,139.7 311.1,140.1 313.3,139.4 
			315.5,139.2 317.3,139.3 318.7,141.3 320.1,139.6 321.1,139.7 322.4,138.9 324.5,140 324.5,136.1 		"/>
		<polygon fill="none" stroke="#000000" stroke-miterlimit="10" points="273.3,154.3 268.6,155.6 266.2,160.2 271.4,161.2 
			272.6,157.7 274,155.5 		"/>
	</g>
</g>
<g id="_x31_0">
	<g>
		<polygon fill="none" stroke="#000000" stroke-miterlimit="10" points="348.5,149.5 350.1,149.5 352.1,150.8 353.7,152.5 
			355.8,155.5 357.1,159 357.6,161.8 358.7,165 360,166.9 362,168.3 365.2,169.2 368.6,170.3 370.1,171.7 368.5,175.3 367.3,177.3 
			367.5,179.5 369.6,180 371.7,180.5 374.5,180.5 375.7,179.3 378.5,178 381.2,177.5 383.6,177.5 386.1,177.5 389.3,176.1 
			392.2,176.9 396.3,178.7 401,180.8 404.8,182.5 407.6,184.9 408.6,187.5 407.4,189.3 405.7,190.4 404.2,192.4 401.9,194.6 
			398.2,190.4 399.2,187.5 397.5,187.3 396.1,184.3 394.2,184.2 395,187.7 397.7,193.4 392.2,195.6 390.8,190.6 389.3,190.9 
			390.5,195.6 390.5,197.1 383.9,200 383.6,191.8 382.1,191.9 382.5,200.8 377.4,203.6 374.6,198.5 373.6,199.4 375.9,203.9 
			375.6,205.5 374.5,205.5 369.6,199.2 367.2,199.3 364.5,190.2 362.5,189.5 362.5,186.5 361.6,183 361.5,178.6 358.6,177.7 
			354,181 349.3,179.2 348.5,177.7 349.8,171.2 346.5,168.5 343.1,168.5 340.9,168.5 338.5,166.9 338.5,165.9 340.5,164.3 
			340.9,161.9 341.1,160.4 343.5,158.2 346,155.7 347.6,150.1 		"/>
		<polygon fill="none" stroke="#000000" stroke-miterlimit="10" points="386,202.3 391.3,199.9 395.8,197.5 398.1,197.5 
			398.7,199.4 394,202.3 388.1,205.1 		"/>
		<polygon fill="none" stroke="#000000" stroke-miterlimit="10" points="384.1,203 386.7,207.3 379,212 375.7,207.5 		"/>
	</g>
</g>
<g id="_x31_1">
	<path fill="none" stroke="#000000" stroke-miterlimit="10" d="M339.7,296l1.7-2.4l2,0.6l1.8,1.6l1.3,2.1l-1.3,1.6H344l-0.3,4.1
		l-0.4,1.9h-1.6l-0.8-1.3l-0.2,0.9l1.4,2.6l-2.7,0.7l-2.2,0.8l1,2.2h1.9l1.7-0.7l0.8-0.4l1-2.4l2-2.3l1.8,1.9v1.5l-1.8,1.5l-0.9,2.3
		l0.5,2.4l1.5,1.6l1.4,0.5h1.9h0.8l-0.9-1.2l-1.4-1.2v-0.6l2.3-0.8l1.7,1.3v-2.8v-1.5l-1.8-1.6l1.3-0.7h2.7l2.3,1.2l1.6,1.8v1.5
		l0.9,2.3c0,0-0.9,0.5-1.4,0.5s-1.7,0.1-1.7,0.1l0.9,2l-1.6,1l2,0.8l2,3.3l-0.9,1.3c0,0,0,1,0.1,1.4c0.1,0.4,1.5,1.4,1.5,1.4
		l1.8,1.3l2,1.1h2.7l3,0.5c0,0,3.7,0.6,4.1,0.6c0.4,0,3,0.2,3.9,0s2.7-1.5,2.7-1.5l2.2-1c0,0-0.6,1.5,0,1.6c0.6,0.1,1.8,0.4,1.8,0.4
		l1.5,1.5h1.4l0.5,1.1l0.5,1.4v1.9l-1.1,0.9l-2.1,1.1l-1.5,1.3l-0.4,1.1l-0.3,1.2h-1.8l-1.4,1h-1.7l-1.8-2.6l-1.3-2.1l0.6,3.3
		l1.3,2.2l1.8,1.6l2,1.3l-0.1,3.3c0,0,0,0.8-0.3,1.1c-0.3,0.4-1.7,0.8-1.7,0.8l-0.8-0.8l-1-1.5l-1.5-0.4l-1.1,1v1.4l-0.3,2.4l0.9,1
		h1.7h1.5l0.5,0.7l-1.3,1.4l-0.1,1.9l-1.1,0.8l-1.7-1.1l-2.7,0.4h-2.8l-2.5,0.4c0,0-2-0.4-2.4,0.2c-0.4,0.5-3.2,1.6-3.2,1.6
		l-2.4,0.7l-2,1.9l-2,1.8l-1.5,1.8l-1.9,1.9l-2.3,1.7c0,0-0.4,1.3-0.6,1.7c-0.3,0.4-0.8,3.6-0.8,3.6s0,0.9,0.1,1.3
		c0.1,0.4,0.8,2,0.8,2l1.1,0.8l0.6,2.3l0.1,2.5l0.8,1.6l2.3,0.4h2.2l1.7,1.3l1.4,0.8c0,0,0,1.8,0,2.1s0,2.3,0,2.3v1.5l-0.4,1.9h-1.1
		l0.4,2l-1.5-1.8l-1.3,0.8h-1v-2.9l-1.9,0.4l-1.1,0.6l0.8,1.1l-2.1,0.8H347l-1.4-1.5l-0.9,0.7l-1.9,0.8h-1.9l-1.5-1l-2.2,1.1
		l-1.4,1.7l-2.4-1c0,0-2.2,1.4-1.7,1c0.5-0.4,2.2,0.6,2.2,0.6l0.2,1.4l1.4,0.8v2.3h-1.4l-1.5-2.2l-0.8-1.2l-1.7,1.2l-0.6-0.8l-1.9,0
		h-1l-0.6-1.8l1.1-1.3l1.7,0h1.7l-1.7-2.2l-1.3-0.6l1.8-1.6l0.4-1.9l-1-1.1l-1.9-0.8l-0.8-1.1l2.2-0.6l1.4,0.3l1.3,0.1l-0.6-1.3
		l-1.5-0.8l2.7-0.4l-0.6-1.4l1.7-0.6h2.7l-2.7-1.4l-2-1.1l0.4-1.4l0.4-2.3l-0.8-2.7l-0.4-1.3l-0.4-0.8l1.8-0.5l-0.5-1.8l-1.5-1.3
		l-2.3-1.3l-1-1.5l-1.4-0.3l-2.4-0.1l1.7-1.8l0.8-2v-1.3l1.2-0.9l1.2-1l0.7-1.1c0,0,1.9,1.1,2.2,1.3s2.1,0.4,2.1,0.4l1.5-0.6
		l0.9-1.8l1.3-1.4l-1.3-0.9l-1.8-1.9l-3.7-1.3l-2.8-0.9l-2.2,1.1l-0.6-1.3l1.3-2l-0.6-3.2l-1.9-4.1l-2.5-1.9l-1.8-1.8l-2.2-2.3
		l-0.9-1.1l1.4-1l4.4,0.1l2.4-0.6l1.1-1l1.4,0h2.5l0.9-0.8l1.9-1.2l0.8,0.1l1.3,1.4c0,0,0.3,1.3,0.6,1.4s1.5,0.6,1.5,0.6l0.9-1
		l1.4-1.6h1.4l1.9-1.1v-2.2c0,0-0.6-1.4-0.6-1.8s0.8-1.3,0.8-1.3l1.3-0.5l-1.3-1l-1.9,0.1l-3.2-1.9l-1.3-0.9l-1.3-0.5l-0.8-1.5
		l1.2-1.8l0-2.9v-2l-1.8-1.4l-0.5-2.2l-1.3-1.1l-1.4-0.9l0.4-1.7l-2.2-1.5l2.2-2h3l1.1-0.8l0.8-0.8l1.7-2.3l1.4-2.1l1.5,1.5
		L339.7,296z"/>
</g>
<g id="_x31_2">
	<path fill="none" stroke="#000000" stroke-miterlimit="10" d="M265.1,243.2l-1.9-1.3l-0.6-1.7l0.7-2.2l-1.2-0.8l-1.1,4.3l-2.1-0.6
		l-2.2-0.4l-1.5-1.5l-1.7,1v0.7l2.2,1.9l1.9,2.3l1.3,0.7l-0.6,2l-0.9,1h-1.9h-2.3l1.2,2.2l-1.9-0.5v-2v-1.5l-2.5-1l-2.6-1.2h-2.5
		l-0.6,1.2l-2.4-0.7l-2.3-0.8l-1.3,1.3l-0.8,2.3v1.1l-1,1.3l-1.2,2.2l-0.6,1.1l-1.5,0.5l-1.4,0.5h-2.9l-2.3,0.6l-1.3-0.6h-1.8
		l-2,0.1v2.8v3.8v1.5l-1,2.5v2l-1,2v1.8v3l-1,1c0,0,0.2,1.5,0.6,1.7c0.4,0.1,0.6,1.3,0.7,1.5c0.1,0.3,0.1,1.4,0.1,1.4l-1.5,1.2
		l1.1,1.6h1.7h3l2.9-0.7l1.9-0.3h1.3l0.8-3.1l-0.3-1.3l-0.9-0.9c0,0-0.4-0.5-0.3-1c0.1-0.5,1-1.4,1-1.4l1.3-0.5l1-0.9l0.6-1l0.6-2
		l0.3-1.5l0.5-1.1l1.1-0.8c0,0,0.1-0.4,1-0.6c0.9-0.3,1.4-0.6,1.4-0.6l1.4-0.9l0.8-0.8c0,0,0.6,0.5,1.3,0.8s2,0.8,2.4,0.8
		c0.4,0,0.8-1.2,1.3-0.8c0.5,0.4,1.5-0.2,1.9,0c0.4,0.2,0.6,0.8,0.6,1.4c0,0.6,0.4,1.1,0,1.7c-0.4,0.5-0.8,0.9-1,1.3
		s-0.5,0.9-0.8,1.5c-0.3,0.6-0.3,0.6-0.3,0.6l1,0.6c0,0,0.5-0.4,1-0.5c0.5-0.1,0.4-0.1,0.4-0.1s-0.2,1-0.2,1.5s0,0.9,0,0.9l2.1-0.1
		h0.4l0.9,0.5c0,0-0.3,0.8-0.6,1.1c-0.4,0.3-0.4,0.2-0.4,0.2l-1,0.9l-0.3,1.5v1.3c0,0,0,0.9,0,1.3c0,0.4,0.1,0.5,0.5,1
		c0.4,0.5,0.7,1,0.7,1l0.5,0.9l1.3,0.6v1.3l0.3,1.8c0,0,0.7,0.4,0.5,0.9c-0.1,0.5,0.1,1.4-0.3,1.7c-0.4,0.3-0.5,1.3-0.5,1.3
		s-0.1,1.3-0.3,1.7c-0.1,0.4-0.4,1.1-0.6,1.5s-0.4,1.8-0.4,1.8s-0.3,0.6-0.4,1c-0.1,0.4-0.3,0.9-0.3,0.9l-0.3,1.2l-0.1,0.8h0.8
		l2.3,0.9c0,0,1-0.1,1.7,0.2c0.6,0.3,2,0.9,2,0.9h1.7h1.5h0.8l1.3,0.4l1.4,0.6h1.1l1.9,0.9l1.3,0.9c0,0,1.4,3.2,0.5,3.6
		c-0.9,0.4-0.9,0.4-1.7,0.8c-0.8,0.4-1.1-0.5-0.8,0.4s0.6,0.9,1.4,1s1.5-0.1,2.2,0s3,0,3,0v-0.7l-0.9-1.1l-1.3-0.4l-0.7-1.4h1.1
		l1,0.4l0.7,0v-2l1.5-1.5l1.3-0.6l1.1-0.9l0.1-1.5v-1.5l-0.1-1.8l0.4-0.8l0.7-1v-1.8l2.2-0.4l1.4-0.7l3.3-1.7l1.1-1.8v-1.5l-3-0.8
		v-2.3l-1.5-1.1l-0.8-2.2l-0.3-1.4h-2.3l-1.9-0.1l-1.1-0.2l-1.8-0.7l-1.5-1.2l1-2.4l1-2.9l1.1-1.1l1.3-1l-0.1-2l-1-0.6l-1.3-1.4
		l-1.3-0.3l-0.1-2.7l-1.5-0.5l-0.6-1.1l-1.5-2l0-3l-0.6-1.4V252l0.4-1.7l0.1-2.5l0.1-1.3l0.2-1.1l-1.2-1.7l-1.3-1.1L265.1,243.2z"/>
</g>
<g id="_x31_3">
	<path fill="none" stroke="#000000" stroke-miterlimit="10" d="M221.2,254.5h-1.7v-1.7v-1.5v-1.4v-2v-2.4v-1.1c0,0,0.8-1.5,0.8-2
		s0.8-1.9,0.8-1.9s-0.3-2,0.1-2.2c0.4-0.2,0.5-1,0.5-1s-0.1-1.1,0-1.6c0.1-0.5,0.4,0.1,0-1.1c-0.4-1.3,0.1-0.4-0.4-1.3
		s-1.5-1.3-1.5-1.7s-0.3-1.1-0.3-1.1v-1.3c0-0.9,0.4-2,0.4-2l1.9-1.7l0.6-1.5l1.7-2.2l1.3-0.8v-2.4c0,0-0.2-0.5-0.4-1.7
		s-0.7-1.9-0.7-1.9l-0.4-2l-1.4-2.4l-0.4-0.8c0,0-0.9,0.3-0.5-0.9s0.4-2.2,0.4-2.2s-0.4,0.1-0.4-0.5c0-0.6,0.5-1.6,0.5-1.6h1.4h1.5
		l1,0.7c0,0,1-0.2,1.4,0c0.4,0.1,1.5-0.8,1.5-0.8s0.4-0.5,0.9-1c0.5-0.5,1-1.1,1-1.1s0.3-0.8,0.6-0.8s1.1,0,1.1,0h1.5h0.8
		c0,0,0.1,1.7,1-0.1c0.9-1.8,1.3-2.7,1.3-2.7l1-1.8l1.4-2l0.9-0.9l1.5-1.5h1.3h1.5l0.8,1.1l1,1.1l0.8,1l2.4-0.2h1.9l1.8-1.3
		c0,0-0.6-0.8,0-1.2c0.6-0.4,1.9-1.6,1.9-1.6l1-1.3l2.7-0.7h1.8l1.6-0.1v1.7l1,1.8v2l1,1.8v0.5v0.8l-0.2,2.2l-1.1,1.5h-0.8l0.6,0.9
		l1.6,0.6l0.9,3.7l-0.9,1.4l0.7,2.8l-0.7,2.7l1.9,2.3l-1.1,2.7v2.3l1.9,3.2l0.9,2.5l0.9,1.8l-0.2,1.3l-0.8,1.5l-1.8,3.9l-0.4,1.1
		l-0.5,2.4v2v1.5v0.8l-0.6,0.3l-1.8-1.3l-0.5-1.7l0.8-2.2l-1.2-0.8l-1.1,4.3l-2.1-0.6l-2.2-0.4l-1.5-1.5l-1.7,1v0.7l2.2,1.9l1.4,1.6
		l1.9,1.4l-0.6,2l-0.9,1h-4.2l1.2,2.2l-1.9-0.5v-3.6l-2.5-1l-2.6-1.2h-2.5l-0.6,1.2l-2.4-0.7l-2.3-0.8l-1.3,1.3l-0.8,2.3v1.1l-1,1.3
		l-1.2,2.2l-0.6,1.1l-1.5,0.5l-1.4,0.5h-2.9l-2.3,0.6l-1.3-0.6h-1.8H221.2z"/>
</g>
<g id="_x31_4">
	<path fill="none" stroke="#000000" stroke-miterlimit="10" d="M259.3,189.9l-2.1-2.7l1.3-0.8v-1.5l0.6-0.9l-0.8-1.1l-1.9-1.3
		l-0.6-1.7l-1.1-1.1l-0.9-1.1l-2.1-1.1l-1.6-0.9l-1.4-1.3l-1.2-0.5l-1-1.4v-1.4l-2-0.6v-1.7l-0.2-0.4h-1.7l-2.1-1.9v-0.8l-0.3-2.4
		h-0.6l-2.1-2.6l-0.1-1.5c-0.6-0.8-1.8-1-1.8-1s-0.7,0.3-1-0.7c-0.4-1-0.9-2.1-0.9-2.1v-0.4l-1-0.7h-2.2l-1.3-0.9l-0.5-1.8l-1.7-1.3
		H225l-0.8-0.5l-0.8-0.8v0.3h-3l-1.1-1.5l-1.4-1.7l-1.1-0.8h-1.7l-1-1h-2h-1.5h-3.1V143l-1.1-1.5h-1.1h-1.5h-1.5h-2.3h-0.8h-0.8
		h-2.9v1.5v1.5c0,0,0.5,0.4,0.6,0.8c0.1,0.4,0,0.6,0,1s0.1,2.2,0.1,2.4c0,0.3-0.7,0.9-0.7,0.9v1l-0.1,0.9h-1.7l-0.5,1.5l-1.5,0.3
		c0,0-1.2-0.1-1.8,0c-0.5,0.1-1.5,0.3-1.5,0.3v2.3v1.5l0.9,0.3l0.8,0.9l1.3,0.4l1.5,0.4l0.6,1.1l1.1,1.5l0.8,0.9
		c0,0,0.1,0.5,0.5,0.6c0.4,0.1,0.5,0.6,0.5,0.6s1,1.4,1,1.7s0.9,1,0.9,1l0.9,0.6v0.6c0,0,0.1,0.4,0.1,0.8s-0.1-0.5,0,0.4
		c0.1,0.9-0.1,0.8-0.1,1.4c0,0.6-0.1,1.1-0.1,1.1v0.9l0.4,1.8l0.6,1.8l0.1,1.4l3.3,1.3l1.7,0.8l1.1,1c0,0,0.6,0.6,1,0.9
		s1.7,0.9,1.7,0.9l1.1,1h0.8l0.6,0.9l0.9,0.7c0.9,0.8,1.4,1.1,1.4,1.1s0.8,0.3,1.1,0.3c0.4,0,2,0,2,0s0.3-0.3,1-0.3
		c0.8,0,2-0.2,2.5-0.2c0.5,0,2.3-0.4,2.3-0.4l1.5-0.8l1.4-0.6l1.7-1.8l0.9-0.6c0,0,0,0.1,0.6,0.4c0.6,0.3,0.9,0.1,1.5,0.4
		c0.6,0.3,0.6,0.3,0.6,0.3l0.6,0.9l0.5,0.9c0.6,1,1.1,2,1.1,2l0.9,1h1l1-0.6c0,0-0.3-0.4,0.7-0.4s1.4,0,1.4,0s0.6,0,0.8,0.7
		c0.1,0.6,0.1,0.5,0.1,0.5l0.9,0.7c0,0,0.1-0.5,0.8-0.2s1.3,0.3,1.3,0.3h0.8l0.2,1.4v1.1l-0.1,0.8l0,0.7h1.5l0.8,1.1l1,1.1l0.8,1
		l2.4-0.2h1.9l1.8-1.4v-0.8l1.8-1.9l1-1.1L259.3,189.9z"/>
</g>
<g id="_x31_5">
	<path fill="none" stroke="#000000" stroke-miterlimit="10" d="M221.2,257.5h-1.5h-2.3h-1.5h-1.5c0,0-0.9-0.3-0.9-0.8
		c0-0.5,0-1.7,0-1.7s0.4-0.4-0.1-0.9c-0.5-0.5-0.8-1.5-0.8-1.5s-0.8-0.6-0.9,0c-0.1,0.6,0,2.4,0,2.4l-0.1,1.9v1.9l1.1,0.6l1.3,1.1
		l0.6,0.8v1.3l-0.5,1l-0.9,0.8l-1.5,1.1l-0.8,0.5c0,0-0.1,0.6-1.5,0.8c-1.4,0.1-1.5,0.1-1.5,0.1l0.7-1.4c0,0,0-0.6,0-1
		c0-0.4,0-1.1,0-1.1l0.3-1.3l-1.4-1.1c0,0-0.9,1.1-0.9,1.5s0,0.9,0,0.9s0.7,0.3,0.3,1.3c-0.4,1-0.2,1-0.2,1l0,0l-1.2-0.6l-0.7-0.5
		l-0.9-1.1h-2.3v1.5l-0.4,0.6l-1.3-0.1l-0.7,1h-0.8c0,0-0.4-0.8-0.6-1.2s-0.9-1.5-0.9-1.5l-0.4,1.6v2.7v1.5v1.5l-1.3-0.9l-0.7-0.9
		v-2c0,0,0.2-0.6-0.2-1.1c-0.4-0.5-1.4-0.8-1.4-1.1s0.8,0,0-0.4c-0.9-0.4-2.1-0.9-2.1-0.9l-0.8,0.7c0,0-0.6,0.3-0.6-0.7
		c0-1,0-1.7,0-1.7l-1.1-1.3l-0.9,0.5v1.5v1.5v1.3h-0.6c0,0-0.1,0-1,0s-2.4,0-2.4,0v1l0.8,1.9l0.1,0.7c0,0-0.1-0.6-0.9-0.6
		c-0.8,0-1.1,0-1.1,0s-1,0-1.4,0c-0.4,0-0.1,0-0.1,0l-1.3,0.8c0,0-0.5,0.4-1,0.3c-0.5-0.1-0.5-0.1-1.3-0.1c-0.8,0-1.8,0-1.8,0v3.1
		v0.8v1.5c0,0-0.3,0.9-0.7,1.5c-0.4,0.6-1,0.4-1,0.4l-1,0.7h-0.4c0,0-0.8,0.5-1.3,0.4c-0.5-0.1,1,0.1-0.5,0.1
		c-1.5,0-1.4,0.1-2.2,0.2c-0.8,0.1,0.1-1.1-0.8-0.2c-0.9,0.9-0.9,0.5-0.9,0.5h-1.3l-1,1h-1.3h-0.8h-0.8l-0.4,0.9l-0.8,1.9v2.4
		l-1,0.6v0.9v1.5l1.3,1.8l1.7,0.8l1,0.8v0.5v1.1v1.1c0,0.1-0.7,0.1-0.7,0.1l-1.1,0.6l-0.9,0.8c-0.8,1-0.8,1-0.8,1l-0.2,0.4l-0.6,0.6
		H158c-0.5,0-1.1,0.3-1.1,0.3l-0.6,0.8l0.9,0.9l0.8,1h0.9l0.3,1.4c0,0,0.6,0.4,0.4,1.1c-0.3,0.8-0.3,1-0.3,1.5s0.3-0.6,0,0.5
		c-0.3,1.1-0.3,1-0.4,1.9c-0.1,0.9-0.4,2.2-0.4,2.2s0-0.1-0.2,0.8s-0.6,1.4-0.6,1.8c0,0.4,0,1.3,0,1.3s0-0.3,0,0.9
		c0,1.1,0,1.4,0,1.4l0.8,1.2h1.9l1.5-1.9l4.7-1.8l4.8-1.7l6.2-2l3.4-0.8l5.7-0.4l3.2-0.8l2.9-0.4l1.7-0.3l1.3-1.8l1.8-1.1
		c0,0,0.8-0.3,1.8-0.4c1-0.1,2.8-0.3,3.4-0.4c0.6-0.1,4.1-0.5,4.1-0.5s2.3-0.6,2.7-0.6s2.2-0.2,2.7-0.2c0.5,0,3,0,3,0h2.3
		c0,0,2.4,0.6,2.9,0.6s2.3-0.2,2.3-0.2s2.4-0.4,2.9-0.4c0.5,0,1.4,0,2.2,0c0.8,0,2.3,0,2.3,0h1.1l1.4-0.5l1.3-1.3c0,0,0.8,0.1,1.1,0
		c0.4-0.2,0.8-0.5,1.7,0.1s2,0.7,2,0.7h1.7c0,0,1.7-1,2.2-1h1.7l1.9-1h1.9c0,0,0.6,1,1,0.9c0.4-0.2,1.3-0.6,1.3-0.6l0.1-1l0.3-1.4
		l0.3-0.9l0.3-1l0.3-1.8v-0.4l0.8-1.1l0.2-1.7l0.5-1.3l0.2-1.7l-0.4-0.9l-0.3-1.8v-1.5l-1.3-0.4l-0.4-0.9l-0.7-1l-0.6-1l-0.1-1.3
		v-1.5l0.3-1.3l1-0.9l1.1-1.4l-0.9-0.6l-2.7,0.4l-0.5-1.1l0.8-1.3l-1.3,0.6l-1-0.6l1.1-2.2l1.1-1.3V265l-0.8-1.5h-2l-1.1,0.8
		l-2.4-0.7l-1.3-0.8l-2.2,1.8l-2.4,1.3l-1.1,0.8l-0.5,1.1l-0.3,1.5l-0.6,2l-0.6,1l-2.3,1.4l-1,1.4l0.3,1l0.9,0.9l0.1,2.1l-0.6,2.4
		h-1.5l-2.3,0.4l-2.8,0.6h-2.5h-0.8h-0.8l-1.3-2.2l1.5-0.5l-0.1-1.4l-0.8-1.5l-0.5-1.7l1-1v-4.6l1-2.3V265l1-2.3v-1.5L221.2,257.5z"
		/>
</g>
<g id="_x31_6">
	<path fill="none" stroke="#000000" stroke-miterlimit="10" d="M194.6,141.5h-2.3H190l-1.9-1.1l-1.9-0.9h-0.8l-1.7-1.2l-2.2-0.8
		h-1.5h-3h-0.8l-1,2.2c0,0-1.1,0.3-1.3,0.7c-0.1,0.4-0.6,1.5-0.6,1.5s0.1,1.3,0,1.8c-0.1,0.5,0,1,0,1l-2.7-1.4l-0.9-0.8h-1.9
		l-0.4,0.9l-1.9-0.7v-0.5l-1.5,0.5l-1-1.8l-1.3,0.9l-1.2-0.9l-0.6-1.3l-1.8-1l-0.9-1.4l-0.9-2.2l-1.8-1.5v-1.1h-0.4l-0.6-1.3v-2.7
		l-1.4-1.8l-1.6-1.8v-1v-2.3v-2.3l-0.4-0.3l-0.5-0.6H148l-2.3-2h-1.5h-4.7v1.3l-0.5,1.4l-1.9,0.4l-2,0.1l-1.7-0.4l-2-1.9l-0.7-1H129
		h-0.8l0.7-2.4l-1.4-1.6v-2.3v-1.9v-0.8h-2.3l-0.9,1h-1.4l-2.8,0l-1.1-0.6l-1-1.4h-1.1h-1.5l-1.1-1.3c0,0-0.9-0.5-1.4-0.6
		c-0.5-0.1-1.2,1-1.2,1v1.5v0.8c0,0,1,0.8,0,0.8c0,0,0.7-0.3-0.2,0c-0.9,0.3-0.8,0.3-0.8,0.3s-0.2,0.1-1.4,0.8
		c-1.1,0.6-0.6,1.1-0.6,1.1l-1,1.3v1.1v0.8l-1.4,0.5l0.7,2.3l1.1,1.5l1.4,1.4l0.9,0.9l0.3,1.3v1.3l-0.2,0.8l-0.8,0.6l-0.6,0.9
		c0,0-0.4,0.5-0.4,1s0,2,0,2s0.7,0.3,0.7,0.6c0,0.4,0.3,0.6,0.6,1c0.3,0.4-0.1-0.4,0.3,0.4c0.4,0.8,0.2,0.8,0.2,0.8s0.2,0.3,0.2,0.9
		c0,0.6,0,0.9,0,0.9l1.1,1.4c1,1,1.8,1.4,1.8,1.4l1.5,0.4l-3.5,0.9l0.4,1.1c0,0,1,0.4,1.2,0.8s0.4,1.3,0.4,1.3l0.3,0.6v1.3l-0.6,0.5
		c0,0-0.4,0.5-0.4,1s0,0.8,0,0.8s-0.3,0.5-0.5,1s-0.4,0.8-0.5,1.1c-0.1,0.4-0.2,1.5-0.2,1.5l-0.7,1.3h-1.4l-0.1,1.3
		c0,0,0,1.1-0.4,1.3s-1,1.5-1,1.5l0.1,1h1.4l0.9,0.3l0.4,0.5v2.2v0.9v1.4c0,0,0.6,0.4,0.6,1.1c0,0.8,0.4,0.9,0.4,1.5
		c0,0.6,0,1.1,0,1.1v1.5c-1,0.4-1-0.1-1.5,0.8s-0.4,0.9-0.4,0.9l-0.8,0.6l-1.4,1.4l-0.9,0.5l-0.1,0.8l-0.9,1.8v3.2l-1,1.4v1.7
		c0,0-1,0.3-1,0.6s0,1.7,0,1.7v0.8l-1.2,0.8c0,0-0.1-0.4-0.6,0c-0.5,0.4-1.1,0-1.1,0l-1.1,2.3v0.8l-0.8,1.3l-1.4,0.5
		c0,0-0.5,0.6-0.9,0.8c-0.4,0.1-1.1,0.5-1.1,0.5l-0.9,0.9l-0.9,1l-1.7,1.7l-0.9,1.1c0,0-1,0.8-1.4,0.9c-0.4,0.1-1.7-0.1-1.7-0.1h-2
		h-1.4v1.3v1.5l0.7,1c0,0-0.2,0,0.4,0.8c0.5,0.8,0.6,1.1,0.7,1.5s0.2,1.4,0.2,1.4s-0.1,0.4,0,0.9s-1-0.4,0.1,0.2
		c1.1,0.6,2.5,0.3,2.5,0.3h1.7l1.4,0.8l1,0.8c0,0,0.5,1.1,0.9,1.2c0.4,0.1,0.8,1.4,1,1.3c0.3-0.1,0.3-0.1,0.3-0.1l1.3,0.1
		c0,0,0.6,0.1,0.8,0.6s0.5,0.5,0.8,0.9c0.3,0.4,0.3,1,0.3,1l0.4,1c0,0,0.3,0.4,0.4,0.8c0.1,0.4,0.1,0.5,0.1,0.5h2.2
		c1.1,0,2.2,0,2.2,0h0.9c0,0,0.3,0.8,0.6,1.2c0.4,0.4,0.4,0.8,0.4,0.8h2l1.8-1.4l1-1l1.5-1.1l1.5-1.1l0.4-0.6l0.5-0.8
		c0,0,0.3-0.3,0.8-0.3c0.5,0-0.8-0.5,0.5,0s1.1,0.1,1.8,0.5c0.6,0.4,0.6,0.4,0.6,0.4l1.1,0.6c0.3,1,0.3,1.5,0.3,1.5v0.6
		c0,0.8-0.3,0.3,0.2,0.8s0.5,0.5,0.5,0.5l1.6,0.6c0,0,0.1,0.3,0.8,0c0.6-0.3,0.6-0.3,0.6-0.3l2.3-0.5c0.5,0.9,0.9,2,0.9,2
		s0,1.3,0.1,1.7c0.1,0.4,0.5,1.7,0.5,1.7l0.7,0.8l-0.3,0.9v1.8l-0.8,1.6c-0.3,0.9-0.5,1.7-0.5,1.7l0.6,0.7l1.2,0.8h1
		c0,0,0-0.1,0.6,0.1c0.6,0.3,1.1,0.1,1.1,0.1s0.4,0.3,0.6,0.7c0.3,0.4,1.1,1.4,1.1,1.4l0.9,0.9l0.8,0.9h0.9l0.3-1.3l1.4-0.7l2-0.1
		h0.9l0.6,0l0.9-0.3c0.9-0.5,1.4-1,1.4-1l0.8-0.7h0.9c0,0,0.1-0.7,0.3-1c0.1-0.4,0.1-0.5,0.1-0.5l0.1-1.6l0.1-0.8h0.9l1.1,1h0.4
		l2-1.3c0,0,1.1-0.6,1.3-0.2c0.1,0.4,2.3,1.6,2.3,1.6h1.3l2,1.4l0.6,0.9l-0.6,1.8l-0.8,1l1,1.3l0.1,1.9v1.4l0.4,1.1l-0.8,0.8
		c0,0,0.8,0.5,1.2,1c0.4,0.5,0.5,1.4,0.5,1.4s0.4,1.4,0.5,1.7c0.1,0.3,0.6,2,0.6,2l0.8,2.3l0.5,1.5c0,0,0.6,0.6,0.9,1.3
		s0.9,1.1,0.9,1.1l0.6,1.4c0,0,0.3,0.6,0.8,0.6s1.4,0,1.4,0h0.8l-0.1,0.9l0.9,0.9l0.3,1.4l0.9,0.6l0.3,1l-0.1,0.6l0.5,1.8l0.3,0.6
		l-1.1,1.7l-1.3,1.7l-0.1,1.7l0.3,1.9l0.6,0.8l0.6,0.6c0,0,0.3,0.3,1,0c0.8-0.3,1.5-1,1.5-1l0.6-0.6c0,0,0.3-0.3,0.8-0.3
		s1,0.1,1,0.1l1.5,0.6c0,0,0.5,0.1,0.9,0c0.4-0.1,0.6-0.4,1-0.5s1.4-0.3,1.4-0.3s0.9-0.3,1.3-0.3c0.4,0,0.1,0,0.1,0l1.7,0.7
		c0,0,0.5,0,1,0.3c0.5,0.4,0.8,1.4,1.1,1.4c0.4,0,1.1,0.6,1.1,0.6h2.7h1.5l-0.2-2.8v-1.5l0.9-0.5l1.1,1.3v1.5l0.6,0.9l0.7-0.7
		l2.2,0.9l1.4,1.5v3.4l0.7,0.6l1.3,0.9v-1.5V268v-2.3l0.4-2.1l0.9,1.6l0.6,1.2h0.8l0.8-1l1.3,0.2l0.4-0.7v-0.8l2.2-0.4l1.7,1.3
		l1,0.6l0.1-1v-1.3v-0.8l0.9-1.7l1.2,1.1l-0.2,1.3v1.5v0.8l-0.7,1.3l1.4-0.1l1.5-0.8l2.2-1.7l1-0.8l0.5-1v-1.5l-0.5-0.5l-1.2-1.1
		l-1.2-0.6v-1.5l0.1-2.4l0-2.5h0.5l1.4,1.7v2.4l0.9,0.9h1.5h1.5h2.3h0.8v-2.4l-1-0.4v-4.2v-2.3l0.7-2.7l0.1-3.1l0.2-1.9v-2.2l1-2.7
		v-1.1l-0.2-1.3l-1.2-1.7l0-2.4l0.1-2l1.8-1.7l0.6-1.5l1.7-2.2l1.3-0.8v-2.4v-1.5l-0.9-2l-0.5-2l-1.5-2.4l-0.9-1.7l0.4-2.2l-0.4-0.5
		l0.5-1.6h2.9l1,1h1.3l1.7-0.9l0.9-1.1l1-1.1l0.6-0.8h2.7h0.8l2.3-2.7l1-1.8l1.4-2.1l0.9-0.7l1.5-1.3l1.7-1.9l-0.4-1.9l-2-0.6
		l-1.7-0.9l-0.9-1.5l-2,0.3l-2,0.5l-1.6-1.7l-0.4-0.7l-1.1-1.8l-0.6-0.3l-1.5-0.4l-1.5,0.3l-1.7,1.8l-2.9,1.4l-2.3,0.4l-2.5,0.1
		l-3,0.1l-2.5-0.9l-2.2-2.4l-2-0.6l-2-1.5l-1.1-1l-5-2l-0.1-1.4l-0.8-2.7l-0.2-1.7v-3.7l-0.9-1.3l-1.9-2.7l-1.8-2.2l-1.8-2.7
		l-1.5-0.4l-1.4-0.4l-1.7-1.1V156v-2.3l3.1-0.3l2.1-1.7l1.2-1.1l0.9-1.9l0.1-2.4l0.2-1l-0.6-0.8V143L194.6,141.5z"/>
</g>
<g id="_x31_7">
	<path fill="none" stroke="#000000" stroke-miterlimit="10" d="M85.5,196.1l-3.7-0.6h-1.5l-2.4-0.5l-2.4-0.9v-1.5l-2,1.3
		c0,0,0.4,0.7-0.1,1.3s0,1.9,0,1.9l-0.2,1.5l-1.3,1.8l-1,2l-1.3,1.5l-1.3,1.9l-2.8,0.8v3.8h-2.1l-0.8-0.8l-1.9,0.8h-2.3v1.1
		c0,0-1-0.5-1.5,0.1s-0.6,1.8-0.6,1.8h-2H52h-1.5h-2.3h-0.8l-0.9,1.7v1l-1.4,0.6l-1.1,0.9l-0.7,0.8h-1.3l-0.8-1.7l-1.7,0l-0.5,1.7
		h-1.7l-1.5,1h-1.5l-2.3,1.1l-1.3,2.2l-1.7,0.5l-1.8,1.9l-1.5,1.7l-2,1.3l-0.8,1.4l-1.4,1.3l-1.3,1.5v1.4l-2,1.8v1.3v1.7H20l0.5,1.3
		v2.3l0,1.4h-1.3l-0.7,1.7c0,0,1,0.8,0,0.8l-1.8,1.1l-1.2,0.8v1.1l-2,1.8v0.5v0.8l1.1,1.5h2.3l1.8,1h2h0.8h1.9h1.1h1.5h0.8l2.3-0.4
		l1.1-0.6h1.1l1.1,0.1l1.5-0.3l1-0.5c0,0,0.8,0.8,1.1,0.8c0.4,0,1.3,0,1.3,0l0.9-1.6l1.1-0.7l1.3,0.2l2.2,0.2l1.1,0.1l1,0.6l0.9,1.2
		l0.8-1.1h1.4c0,0,1.3,0,1.7-0.1c0.4-0.1,0.6-0.3,1.1,0c0.5,0.3,1.7,0.4,1.9,1c0.3,0.6,0.6,1.3,0.6,2c0,0.8,0,1.5-0.1,2
		c-0.1,0.5-0.6,1.7-0.6,2c0,0.4-0.4,1.4-0.6,1.9c-0.1,0.5-0.7,1.7-0.7,1.7v2.4h1.3c0,0,0.5,0.6,0.7,1.2c0.3,0.6,1,1.7,1,2.2
		s0,1.9,0,2.2c0,0.3,0.2,1.4,0.2,1.4l0.3,1.3c0,0,0.3,0.6,0.4,1.5s0.6,1.7,0.6,1.7s0.6-0.5,0.8,0c0.1,0.5,0.1,2.3,0.1,2.3l-1,1
		c0,0-0.3,0.6-0.3,1s0.1,0.6,0.3,1.3c0.1,0.6,0.5,1.1,0.5,1.1l0.3,1.5c0,0,0.1,0.4,0.1,1c0,0.6-0.1,1,0,1.4c0.1,0.4,0.1,1,0.1,1
		l1,1.5l0.8,1.1l0.9,0.9l0.5,0.8c0,0,0,1.8-0.1,2.4c-0.1,0.6-0.5,1.8-1.1,2.2c-0.6,0.4-0.8,1.1-0.9,1.5s-0.4,0.9-0.4,1.3
		s-0.9,1.1-0.9,1.1l-0.4,1.3l-0.5,1.8l-0.6,2.8l-1,1.7c0,0-0.7,0.5-0.7,1.3c0,0.8,0,2,0,2l0.1,2.3H52h-2.3l-0.6,0.6l-0.7,1.4
		l-0.6,0.7l-1.1,1.1l-0.6,0.9l-1.7,1.5c0,0-0.5,0.8-0.5,1.1s-0.9,2.2-0.9,2.2l-1,1l-1.7,2.4l-0.5,0.9l-1.3,1.8v1.9l1,1.3v1.8
		c0,0-0.3,0.5-0.3,1.1s0.1,2.2,0.1,2.5c0,0.4,0.4,1.7,0.8,1.9c0.4,0.3-0.5-0.6,0.4,0.3c0.9,0.9,0.9,0.9,0.9,0.9l-0.5,1.9l0.3,2.4
		c0,0,0.9,1.1,0.9,1.7s0.3,1.1,0.4,1.5s0.8,2,0.8,2s0.3,0.9,0.3,1.7s0.1,2.3,0.1,2.3l0.6,0.5c0,0,0.8,1.9,1,2.4c0.3,0.5,0.6,2,0.6,2
		s-0.3,2.3,0.1,2.5c0.4,0.3,1,1,1,1l2.7,2.2l1.5,0.8l0.4,1.9l1.4,1.1l1.3,1.7l1.1,1h1.3h1.5c0,0,1.4,1.1,1.5,1.4
		c0.1,0.4,1,1.2,1,1.2l2.2,1.6l0.6,1.7l0.3,1.4l0.4,1.5l-0.3,1.8l-0.1,1.4l-0.5,0.6l1.3,0.9l0.1,1.3c0,0-1,0.4-1,1s0.3,2.2,0.3,2.2
		s0.4-0.3,0.9,0c0.5,0.3,1.9-0.9,1.9-0.9l1.3,0.3c0,0,0.5,1,0.9,1.3c0.4,0.3,0.8,1,0.8,1l1.7-0.6l1.1-1l0.6,0.9h1.1l1.3,0.3l1.1,0.7
		h0.6l1.1,1h1.1l1.1,1h2.7l1.9-0.3l1.4,2.3h2h0.6h3.2c0,0,0.9,0.1,1.4,0s1.9,0,1.9,0h2l1.4-1.4l1.1-0.3l1.4,0.8l0.8-1l1.7-1.8
		l1.3-1.4l1.7-1l1.7,0.3l2.5,0.1l2.3,1.1l1.1,1.7l2,0.3c0,0,0.9,0,1,0.4c0.1,0.4,0.9,1.8,0.9,1.8l1.3,0.5h1.5l1.1-0.7v-1.3l-1-1
		v-1.3l-1.4,0.1l-1.6-0.4l-1.4-0.5l-1.4-1.8l-0.2-0.9l0.8-1l-0.5-1.8l-0.8-1l0.4-1.9l0.3-1.7l0.9-1.3l-0.4-1.3l-1.5-1.7l-0.9-1.1
		L113,375l-0.3-1.3l0.8-1.3l0.5-1.8l0.1-1.1l-0.1-1.4l-0.5-1.7l0.3-2l0.4-2.3l0.5-1.9l0.5-1l0.9-1.3c0,0-0.6-2.3-0.6-2.7
		s0-2.7,0-2.7l-0.7-2l0.5-2.8l0.2-2.4c0,0,1-1.3,1.4-1.4c0.4-0.1,1.4-2,1.4-2s-0.4-0.4,0.9-0.6s2.3-0.3,2.3-0.3l1.1-1.9l2.7-1.4
		l3.2-2.9l1.9-1.3l3-1.3l2.8-2.7l2-1.3l3.2-1.9l1.4-2.4l2.8-1.8l4.2-2.2l2.9-1.8l3.6-1.1l2.1-0.8l-0.8-1.1V313v-1.5l0.6-1.5l0.6-3
		l0.4-1.9l0.3-2l-0.4-1.1l-0.3-1.4H158l-1.8-2l0.6-1h2.7l0.4-0.6l1-1.6l0.9-0.7l1.1-0.6l0.7-0.1v-3l-0.9-0.5l-1.7-0.8l-0.9-1.1
		l-0.6-0.7v-2.3l1-0.8v-2.3l0.8-2.1l0.4-0.9h1.5h1.5l0.8-1h1.5l1.4-0.5l2.2,0l2.2,0.2l0.9-1.1l1.1-0.7l0.7-1.5v-2.3v-2.3l2-0.4
		l2.2-0.3l2.7-0.5l2,0.3l-0.9-2.9v-0.8l-1.1-0.9l-1.1-1.4l-1-0.4l-1.8-0.8l-1.3,0.4l-1.4,0.4l-1.9,0.5l-1.5-0.6l-1-0.1l-1.4,0.9
		l-1.5,1l-1.7-0.6l-0.7-1.3l-0.2-1.4l0.1-1.7l1.3-1.7l1.1-1.7l-0.8-2.4l-0.1-1.7l-0.9-0.6l-0.3-1.4l-0.9-0.9l0.1-0.9h-2.3l-1.3-2.1
		l-1.8-2.4l-0.5-1.5l-0.8-2.3l-0.6-2l-0.5-1.7l-0.5-1.4l-1.1-1l0.7-0.8l-0.4-1.1v-1.5l-0.1-1.8l-1.1-1.3l0.8-1l0.7-1.8l-0.6-1
		l-2-1.4h-1.5l-2-1.5l-1.3,0.2l-2,1.2l-1.5-0.9H145l-0.8,4h-0.8l-0.9,0.7l-1.4,1.1l-2.4,0.1l-2,0.2l-1.4,0.8l-0.3,1.2h-0.8l-1.8-1.8
		l-1.1-1.5l-0.6-0.7H129h-0.8l-2.2-1.5l0.6-1.7l0.8-2.1v-0.9l0.3-1.1l-1.1-2.4l-0.2-1.7l-0.9-2l-2.3,0.5l-1.4,0.3l-2.2-1.1l-0.6-2.9
		l-1.7-1l-1.8-0.5l-1.3,0.3l-0.9,1.4L112,210l-1.5,1.1l-1,1l-1.8,1.4h-2.3l-0.8-1.5l-1.7-0.2l-1.4-0.5l-2.3-0.4l-1-2.7l-1.5-1.5
		l-1.5,0l-1-1.3l-1.9-1.9l-1.4-0.6l-2.4,0l-1.8-0.5l-0.4-2.7l-0.8-1.5L85.5,196.1z"/>
</g>
<g id="_x31_8">
	<g>
		<polygon fill="none" stroke="#000000" stroke-miterlimit="10" points="328.8,137 332.2,137.8 337.5,141.7 345.2,147.7 347,149.5 
			347.6,150.5 346.6,152 346,155.7 341.2,160.4 340.8,164.3 338.2,166.4 335.7,165.9 334.1,166.5 332.5,166.5 331.1,167.6 
			328.8,165.8 326.8,164.6 325.4,166 323.4,163.5 321.2,163.7 318.3,163.3 316.1,162.8 313,162.7 311.3,161.6 308.9,161.2 
			306.6,155.2 304.5,153.8 304.5,152.1 301.7,152.3 295.8,150.1 291.9,149.5 289.8,149.5 291.9,147.8 293.5,146.9 299.1,145 
			301.4,145.2 302,143.3 305.2,142.1 306,143 306.4,143.9 308.3,143.6 308.5,141.6 309.7,140.3 311.8,140 313.3,139.4 316.1,139.2 
			317.3,139.3 318.7,141.3 320.1,139.6 321.1,139.7 322.4,138.9 324.4,140 324.9,137 325.3,136.3 		"/>
	</g>
</g>
<g id="captions">
	<g>
		<g>
			<path d="M334.9,278.3v-6.1h0l-1.1,0.6l-0.2-0.6l1.4-0.8h0.6v6.8H334.9z"/>
		</g>
		<g>
			<path d="M317.1,258.9h-4v-0.5l0.7-0.7c1.6-1.6,2.5-2.6,2.5-3.8c0-0.7-0.3-1.4-1.3-1.4c-0.5,0-1,0.3-1.4,0.6l-0.3-0.5
				c0.4-0.4,1-0.7,1.8-0.7c1.4,0,1.9,1,1.9,1.9c0,1.3-0.9,2.4-2.3,3.8l-0.5,0.6v0h3V258.9z"/>
		</g>
		<g>
			<path d="M350.5,199.3c0.8,0.1,1.5,0.8,1.5,1.8c0,1.1-0.8,2-2.3,2c-0.7,0-1.3-0.2-1.6-0.4l0.2-0.6c0.2,0.2,0.8,0.4,1.4,0.4
				c1.2,0,1.5-0.8,1.5-1.4c0-1-0.9-1.5-1.7-1.5H349V199h0.4c0.7,0,1.5-0.4,1.5-1.3c0-0.6-0.4-1.1-1.2-1.1c-0.5,0-1,0.2-1.3,0.4
				l-0.2-0.6c0.3-0.3,1-0.5,1.6-0.5c1.3,0,1.8,0.8,1.8,1.6C351.8,198.3,351.3,199,350.5,199.3L350.5,199.3z"/>
		</g>
		<g>
			<path d="M302.4,290.9h-0.7V289h-3v-0.5l2.9-4.4h0.8v4.3h0.9v0.6h-0.9V290.9z M299.4,288.4h2.2V286c0-0.4,0-0.7,0-1.1h0
				c-0.2,0.4-0.4,0.7-0.5,1L299.4,288.4L299.4,288.4z"/>
		</g>
		<g>
			<path d="M287.2,240.6v0.6h-2.5l-0.3,1.9c0.1,0,0.3,0,0.5,0c1.2,0,2.3,0.7,2.3,2.1c0,1.4-1,2.3-2.4,2.3c-0.7,0-1.3-0.2-1.6-0.4
				l0.2-0.6c0.3,0.2,0.8,0.4,1.4,0.4c0.9,0,1.6-0.6,1.6-1.6c0-0.9-0.6-1.6-1.9-1.6c-0.4,0-0.6,0-0.9,0.1l0.4-3.2H287.2z"/>
		</g>
		<g>
			<path d="M299.6,216c0.3-0.5,0.9-0.8,1.6-0.8c1.2,0,1.9,0.9,1.9,2.2c0,1.3-0.8,2.4-2.1,2.4s-2.2-1.1-2.2-2.9
				c0-1.8,0.9-3.8,3.1-4.1c0.3,0,0.5-0.1,0.6-0.1l0,0.6C300.7,213.3,299.8,214.7,299.6,216L299.6,216z M302.4,217.4
				c0-1.1-0.6-1.7-1.4-1.7c-0.8,0-1.4,0.8-1.4,1.3c0,1.3,0.5,2.1,1.5,2.1C301.9,219.1,302.4,218.4,302.4,217.4z"/>
		</g>
		<g>
			<path d="M322.1,178.1h4v0.5l-2.9,6.4h-0.8l2.9-6.2v0h-3.2V178.1z"/>
		</g>
		<g>
			<path d="M286.6,179.9c-0.7-0.4-1.1-1-1.1-1.5c0-1.1,0.8-1.8,1.9-1.8c1.2,0,1.8,0.8,1.8,1.7c0,0.6-0.3,1.2-1.1,1.6v0
				c0.8,0.4,1.4,1,1.4,1.8c0,1.2-1,2-2.2,2c-1.3,0-2.1-0.8-2.1-1.8C285.3,180.9,285.8,180.3,286.6,179.9L286.6,179.9z M288.8,181.8
				c0-0.9-0.6-1.3-1.5-1.6c-0.8,0.3-1.2,0.9-1.2,1.5c0,0.8,0.5,1.4,1.3,1.4C288.3,183.1,288.8,182.5,288.8,181.8z M286.3,178.3
				c0,0.7,0.5,1.1,1.3,1.4c0.6-0.2,1-0.7,1-1.3c0-0.6-0.3-1.2-1.1-1.2C286.6,177.1,286.3,177.7,286.3,178.3z"/>
		</g>
		<g>
			<path d="M291.3,138.6c-0.4,0.5-0.9,0.8-1.6,0.8c-1.2,0-1.9-0.9-1.9-2.1c0-1.3,0.8-2.4,2.2-2.4c1.3,0,2.1,1.1,2.1,2.9
				c0,2.3-1.2,3.9-2.9,4.1c-0.3,0.1-0.6,0.1-0.8,0.1v-0.6c0.2,0,0.4,0,0.7,0C290.2,141.1,291.1,140.2,291.3,138.6L291.3,138.6z
				 M288.6,137.3c0,0.9,0.5,1.5,1.3,1.5c0.7,0,1.4-0.6,1.4-1.1c0-1.3-0.5-2.2-1.4-2.2C289.1,135.5,288.6,136.2,288.6,137.3z"/>
		</g>
		<g>
			<path d="M371.8,191v-6.1h0l-1.1,0.6l-0.2-0.6l1.4-0.8h0.6v6.8H371.8z"/>
			<path d="M374.8,187.6c0-2.4,0.9-3.6,2.2-3.6c1.3,0,2.1,1.2,2.1,3.5c0,2.4-0.8,3.6-2.2,3.6C375.7,191.1,374.8,189.9,374.8,187.6z
				 M378.3,187.6c0-1.7-0.4-2.9-1.4-2.9c-0.8,0-1.4,1.1-1.4,2.9c0,1.8,0.5,2.9,1.4,2.9C377.9,190.5,378.3,189.2,378.3,187.6z"/>
		</g>
		<g>
			<path d="M346.3,348.9v-6.1h0l-1.1,0.6l-0.2-0.6l1.4-0.8h0.6v6.8H346.3z"/>
			<path d="M351.4,348.9v-6.1h0l-1.1,0.6l-0.2-0.6l1.4-0.8h0.6v6.8H351.4z"/>
		</g>
		<g>
			<path d="M261.7,287.1v-6.1h0l-1.1,0.6l-0.2-0.6l1.4-0.8h0.6v6.8H261.7z"/>
			<path d="M268.9,287.1h-4v-0.5l0.7-0.7c1.6-1.6,2.5-2.6,2.5-3.8c0-0.7-0.3-1.4-1.3-1.4c-0.5,0-1,0.3-1.4,0.6l-0.3-0.5
				c0.4-0.4,1-0.7,1.8-0.7c1.4,0,1.9,1,1.9,1.9c0,1.3-0.9,2.4-2.3,3.8l-0.5,0.6v0h3V287.1z"/>
		</g>
		<g>
			<path d="M243.8,225.7v-6.1h0l-1.1,0.6l-0.2-0.6l1.4-0.8h0.6v6.8H243.8z"/>
			<path d="M249.3,222c0.8,0.1,1.5,0.8,1.5,1.8c0,1.1-0.8,2-2.3,2c-0.7,0-1.3-0.2-1.6-0.4l0.2-0.6c0.2,0.2,0.8,0.4,1.4,0.4
				c1.2,0,1.5-0.8,1.5-1.4c0-1-0.9-1.5-1.7-1.5h-0.4v-0.6h0.4c0.7,0,1.5-0.4,1.5-1.3c0-0.6-0.4-1.1-1.2-1.1c-0.5,0-1,0.2-1.3,0.4
				l-0.2-0.6c0.3-0.3,1-0.5,1.6-0.5c1.3,0,1.8,0.8,1.8,1.6C250.6,221.1,250.1,221.7,249.3,222L249.3,222z"/>
		</g>
		<g>
			<path d="M214.5,168.8v-6.1h0l-1.1,0.6l-0.2-0.6l1.4-0.8h0.6v6.8H214.5z"/>
			<path d="M221,168.8h-0.7v-1.9h-3v-0.5l2.9-4.4h0.8v4.3h0.9v0.6H221V168.8z M218.1,166.3h2.2v-2.4c0-0.4,0-0.7,0-1.1h0
				c-0.2,0.4-0.4,0.7-0.5,1L218.1,166.3L218.1,166.3z"/>
		</g>
		<g>
			<path d="M196.2,290.9v-6.1h0l-1.1,0.6l-0.2-0.6l1.4-0.8h0.6v6.8H196.2z"/>
			<path d="M203.1,284v0.6h-2.5l-0.3,1.9c0.1,0,0.3,0,0.5,0c1.2,0,2.3,0.7,2.3,2.1c0,1.4-1,2.3-2.4,2.3c-0.7,0-1.3-0.2-1.6-0.4
				l0.2-0.6c0.3,0.2,0.8,0.4,1.4,0.4c0.9,0,1.6-0.6,1.6-1.6c0-0.9-0.6-1.6-1.9-1.6c-0.4,0-0.6,0-0.9,0.1l0.4-3.2H203.1z"/>
		</g>
		<g>
			<path d="M161.1,191v-6.1h0l-1.1,0.6l-0.2-0.6l1.4-0.8h0.6v6.8H161.1z"/>
			<path d="M164.9,187.4c0.3-0.5,0.9-0.8,1.6-0.8c1.2,0,1.9,0.9,1.9,2.2c0,1.3-0.8,2.4-2.1,2.4c-1.3,0-2.2-1.1-2.2-2.9
				c0-1.8,0.9-3.8,3.1-4.1c0.3,0,0.5-0.1,0.6-0.1l0,0.6C165.9,184.7,165,186.1,164.9,187.4L164.9,187.4z M167.7,188.8
				c0-1.1-0.6-1.7-1.4-1.7c-0.8,0-1.4,0.8-1.4,1.3c0,1.3,0.5,2.1,1.5,2.1C167.2,190.5,167.7,189.8,167.7,188.8z"/>
		</g>
		<g>
			<path d="M86.8,293.7v-6.1h0l-1.1,0.6l-0.2-0.6l1.4-0.8h0.6v6.8H86.8z"/>
			<path d="M90,286.8h4v0.5l-2.9,6.4h-0.8l2.9-6.2v0H90V286.8z"/>
		</g>
		<g>
			<path d="M323.9,154.3v-6.1h0l-1.1,0.6l-0.2-0.6l1.4-0.8h0.6v6.8H323.9z"/>
			<path d="M328.3,150.7c-0.7-0.4-1.1-1-1.1-1.5c0-1.1,0.8-1.8,1.9-1.8c1.2,0,1.8,0.8,1.8,1.7c0,0.6-0.3,1.2-1.1,1.6v0
				c0.8,0.4,1.4,1,1.4,1.8c0,1.2-1,2-2.2,2c-1.3,0-2.1-0.8-2.1-1.8C327,151.7,327.5,151.1,328.3,150.7L328.3,150.7z M330.5,152.5
				c0-0.9-0.6-1.3-1.5-1.6c-0.8,0.3-1.2,0.9-1.2,1.5c0,0.8,0.5,1.4,1.3,1.4C330,153.9,330.5,153.3,330.5,152.5z M328,149.1
				c0,0.7,0.5,1.1,1.3,1.4c0.6-0.2,1-0.7,1-1.3c0-0.6-0.3-1.2-1.1-1.2C328.4,147.9,328,148.5,328,149.1z"/>
		</g>
	</g>
</g>
</svg>
